<?xml version='1.0' encoding='utf-8'?>
<mlt title="Anonymous Submission" LC_NUMERIC="en_US" producer="main_bin" version="6.17.0" root="C:/Users/SERGEI/Pictures/Photo/2019/Kristiina/Proj">
 <profile frame_rate_num="25" sample_aspect_num="1" display_aspect_den="1080" colorspace="709" progressive="1" description="1920x1080 25.00fps" display_aspect_num="1920" frame_rate_den="1" width="1920" height="1080" sample_aspect_den="1"/>
 <producer title="Anonymous Submission" id="producer0" in="00:00:00.000" out="00:03:25.840">
  <property name="length">5147</property>
  <property name="eof">pause</property>
  <property name="resource">C:/Users/SERGEI/Music/nostalgic_love/nostalgic_love_Lity.mp3</property>
  <property name="meta.media.nb_streams">1</property>
  <property name="meta.media.0.stream.type">audio</property>
  <property name="meta.media.0.codec.sample_fmt">fltp</property>
  <property name="meta.media.0.codec.sample_rate">44100</property>
  <property name="meta.media.0.codec.channels">2</property>
  <property name="meta.media.0.codec.name">mp3float</property>
  <property name="meta.media.0.codec.long_name">MP3 (MPEG audio layer 3)</property>
  <property name="meta.media.0.codec.bit_rate">187003</property>
  <property name="meta.attr.0.stream.encoder.markup">LAME3.99r</property>
  <property name="seekable">1</property>
  <property name="audio_index">0</property>
  <property name="video_index">-1</property>
  <property name="mute_on_pause">1</property>
  <property name="mlt_service">avformat</property>
  <property name="kdenlive:clipname"/>
  <property name="kdenlive:id">2</property>
  <property name="kdenlive:file_size">4812314</property>
  <property name="kdenlive:file_hash">a5b4ff872af96d12661f6df26a96f557</property>
  <property name="kdenlive:folderid">-1</property>
  <property name="global_feed">1</property>
 </producer>
 <producer id="producer1" in="00:00:00.000" out="00:00:04.960">
  <property name="length">00:00:05.000</property>
  <property name="eof">pause</property>
  <property name="resource">C:/Users/SERGEI/Pictures/Photo/2019/Kristiina/Nostalgy/160900_19226.JPG</property>
  <property name="ttl">25</property>
  <property name="aspect_ratio">1</property>
  <property name="progressive">1</property>
  <property name="seekable">1</property>
  <property name="meta.media.width">704</property>
  <property name="meta.media.height">576</property>
  <property name="mlt_service">qimage</property>
  <property name="kdenlive:clipname"/>
  <property name="kdenlive:duration">00:00:05.000</property>
  <property name="kdenlive:id">3</property>
  <property name="kdenlive:file_size">50225</property>
  <property name="kdenlive:file_hash">0ac678d8138ecbaa995efca776f564ed</property>
  <property name="kdenlive:folderid">-1</property>
 </producer>
 <producer id="producer2" in="00:00:00.000" out="00:00:04.960">
  <property name="length">00:00:05.000</property>
  <property name="eof">pause</property>
  <property name="resource">C:/Users/SERGEI/Pictures/Photo/2019/Kristiina/Nostalgy/1653941_1402955589959653_413222562_n.jpg</property>
  <property name="ttl">25</property>
  <property name="aspect_ratio">1</property>
  <property name="progressive">1</property>
  <property name="seekable">1</property>
  <property name="meta.media.width">634</property>
  <property name="meta.media.height">960</property>
  <property name="mlt_service">qimage</property>
  <property name="kdenlive:clipname"/>
  <property name="kdenlive:duration">00:00:05.000</property>
  <property name="kdenlive:id">4</property>
  <property name="kdenlive:file_size">50715</property>
  <property name="kdenlive:file_hash">4a41a2e1f937407c61c0b29e3b7ded6d</property>
  <property name="kdenlive:folderid">-1</property>
 </producer>
 <producer id="producer3" in="00:00:00.000" out="00:00:04.960">
  <property name="length">00:00:05.000</property>
  <property name="eof">pause</property>
  <property name="resource">C:/Users/SERGEI/Pictures/Photo/2019/Kristiina/Nostalgy/1656226_1402953459959866_1663128375_n.jpg</property>
  <property name="ttl">25</property>
  <property name="aspect_ratio">1</property>
  <property name="progressive">1</property>
  <property name="seekable">1</property>
  <property name="meta.media.width">960</property>
  <property name="meta.media.height">640</property>
  <property name="mlt_service">qimage</property>
  <property name="kdenlive:clipname"/>
  <property name="kdenlive:duration">00:00:05.000</property>
  <property name="kdenlive:id">5</property>
  <property name="kdenlive:file_size">60767</property>
  <property name="kdenlive:file_hash">0d456e339508d2a8e58615a445096fd6</property>
  <property name="kdenlive:folderid">-1</property>
 </producer>
 <producer id="producer4" in="00:00:00.000" out="00:00:04.960">
  <property name="length">00:00:05.000</property>
  <property name="eof">pause</property>
  <property name="resource">C:/Users/SERGEI/Pictures/Photo/2019/Kristiina/Nostalgy/200900_496.JPG</property>
  <property name="ttl">25</property>
  <property name="aspect_ratio">1</property>
  <property name="progressive">1</property>
  <property name="seekable">1</property>
  <property name="meta.media.width">704</property>
  <property name="meta.media.height">576</property>
  <property name="mlt_service">qimage</property>
  <property name="kdenlive:clipname"/>
  <property name="kdenlive:duration">00:00:05.000</property>
  <property name="kdenlive:id">6</property>
  <property name="kdenlive:file_size">67078</property>
  <property name="kdenlive:file_hash">f273be58356530df14a5528dd235964d</property>
  <property name="kdenlive:folderid">-1</property>
 </producer>
 <producer id="producer5" in="00:00:00.000" out="00:00:04.960">
  <property name="length">00:00:05.000</property>
  <property name="eof">pause</property>
  <property name="resource">C:/Users/SERGEI/Pictures/Photo/2019/Kristiina/Nostalgy/200900A_6213.JPG</property>
  <property name="ttl">25</property>
  <property name="aspect_ratio">1</property>
  <property name="progressive">1</property>
  <property name="seekable">1</property>
  <property name="meta.media.width">704</property>
  <property name="meta.media.height">576</property>
  <property name="mlt_service">qimage</property>
  <property name="kdenlive:clipname"/>
  <property name="kdenlive:duration">00:00:05.000</property>
  <property name="kdenlive:id">7</property>
  <property name="kdenlive:file_size">49058</property>
  <property name="kdenlive:file_hash">fc0c66901fd0978d525248c31941ae36</property>
  <property name="kdenlive:folderid">-1</property>
 </producer>
 <producer id="producer6" in="00:00:00.000" out="00:00:04.960">
  <property name="length">00:00:05.000</property>
  <property name="eof">pause</property>
  <property name="resource">C:/Users/SERGEI/Pictures/Photo/2019/Kristiina/Nostalgy/210900B_14099.JPG</property>
  <property name="ttl">25</property>
  <property name="aspect_ratio">1</property>
  <property name="progressive">1</property>
  <property name="seekable">1</property>
  <property name="meta.media.width">704</property>
  <property name="meta.media.height">576</property>
  <property name="mlt_service">qimage</property>
  <property name="kdenlive:clipname"/>
  <property name="kdenlive:duration">00:00:05.000</property>
  <property name="kdenlive:id">8</property>
  <property name="kdenlive:file_size">74180</property>
  <property name="kdenlive:file_hash">634e57c09c935301e34fc217275f2ac9</property>
  <property name="kdenlive:folderid">-1</property>
 </producer>
 <producer id="producer7" in="00:00:00.000" out="00:00:04.960">
  <property name="length">00:00:05.000</property>
  <property name="eof">pause</property>
  <property name="resource">C:/Users/SERGEI/Pictures/Photo/2019/Kristiina/Nostalgy/210900B_16542.JPG</property>
  <property name="ttl">25</property>
  <property name="aspect_ratio">1</property>
  <property name="progressive">1</property>
  <property name="seekable">1</property>
  <property name="meta.media.width">704</property>
  <property name="meta.media.height">576</property>
  <property name="mlt_service">qimage</property>
  <property name="kdenlive:clipname"/>
  <property name="kdenlive:duration">00:00:05.000</property>
  <property name="kdenlive:id">9</property>
  <property name="kdenlive:file_size">70235</property>
  <property name="kdenlive:file_hash">f3f5d2e235b277ccb6d3a1b9c9c22005</property>
  <property name="kdenlive:folderid">-1</property>
 </producer>
 <producer id="producer8" in="00:00:00.000" out="00:00:04.960">
  <property name="length">00:00:05.000</property>
  <property name="eof">pause</property>
  <property name="resource">C:/Users/SERGEI/Pictures/Photo/2019/Kristiina/Nostalgy/210900B_3836.JPG</property>
  <property name="ttl">25</property>
  <property name="aspect_ratio">1</property>
  <property name="progressive">1</property>
  <property name="seekable">1</property>
  <property name="meta.media.width">704</property>
  <property name="meta.media.height">576</property>
  <property name="mlt_service">qimage</property>
  <property name="kdenlive:clipname"/>
  <property name="kdenlive:duration">00:00:05.000</property>
  <property name="kdenlive:id">10</property>
  <property name="kdenlive:file_size">65814</property>
  <property name="kdenlive:file_hash">8aa1d0518c2e4c933cf59c4df798680f</property>
  <property name="kdenlive:folderid">-1</property>
 </producer>
 <producer id="producer9" in="00:00:00.000" out="00:00:04.960">
  <property name="length">00:00:05.000</property>
  <property name="eof">pause</property>
  <property name="resource">C:/Users/SERGEI/Pictures/Photo/2019/Kristiina/Nostalgy/210900B_9497.JPG</property>
  <property name="ttl">25</property>
  <property name="aspect_ratio">1</property>
  <property name="progressive">1</property>
  <property name="seekable">1</property>
  <property name="meta.media.width">704</property>
  <property name="meta.media.height">576</property>
  <property name="mlt_service">qimage</property>
  <property name="kdenlive:clipname"/>
  <property name="kdenlive:duration">00:00:05.000</property>
  <property name="kdenlive:id">11</property>
  <property name="kdenlive:file_size">63906</property>
  <property name="kdenlive:file_hash">b477a9ce1894d6f26933c0d6d5f58e5d</property>
  <property name="kdenlive:folderid">-1</property>
 </producer>
 <producer id="producer10" in="00:00:00.000" out="00:00:04.960">
  <property name="length">00:00:05.000</property>
  <property name="eof">pause</property>
  <property name="resource">C:/Users/SERGEI/Pictures/Photo/2019/Kristiina/Nostalgy/270900_3381.JPG</property>
  <property name="ttl">25</property>
  <property name="aspect_ratio">1</property>
  <property name="progressive">1</property>
  <property name="seekable">1</property>
  <property name="meta.media.width">704</property>
  <property name="meta.media.height">576</property>
  <property name="mlt_service">qimage</property>
  <property name="kdenlive:clipname"/>
  <property name="kdenlive:duration">00:00:05.000</property>
  <property name="kdenlive:id">12</property>
  <property name="kdenlive:file_size">50259</property>
  <property name="kdenlive:file_hash">d7342a1181d6ccb9ec06c251d6cc484d</property>
  <property name="kdenlive:folderid">-1</property>
 </producer>
 <producer id="producer11" in="00:00:00.000" out="00:00:04.960">
  <property name="length">00:00:05.000</property>
  <property name="eof">pause</property>
  <property name="resource">C:/Users/SERGEI/Pictures/Photo/2019/Kristiina/Nostalgy/270900_5904.JPG</property>
  <property name="ttl">25</property>
  <property name="aspect_ratio">1</property>
  <property name="progressive">1</property>
  <property name="seekable">1</property>
  <property name="meta.media.width">704</property>
  <property name="meta.media.height">576</property>
  <property name="mlt_service">qimage</property>
  <property name="kdenlive:clipname"/>
  <property name="kdenlive:duration">00:00:05.000</property>
  <property name="kdenlive:id">13</property>
  <property name="kdenlive:file_size">45804</property>
  <property name="kdenlive:file_hash">aa5917065fff494ce21309ba4ef70a03</property>
  <property name="kdenlive:folderid">-1</property>
 </producer>
 <producer id="producer12" in="00:00:00.000" out="00:00:04.960">
  <property name="length">00:00:05.000</property>
  <property name="eof">pause</property>
  <property name="resource">C:/Users/SERGEI/Pictures/Photo/2019/Kristiina/Nostalgy/270900_8067.JPG</property>
  <property name="ttl">25</property>
  <property name="aspect_ratio">1</property>
  <property name="progressive">1</property>
  <property name="seekable">1</property>
  <property name="meta.media.width">704</property>
  <property name="meta.media.height">576</property>
  <property name="mlt_service">qimage</property>
  <property name="kdenlive:clipname"/>
  <property name="kdenlive:duration">00:00:05.000</property>
  <property name="kdenlive:id">14</property>
  <property name="kdenlive:file_size">50200</property>
  <property name="kdenlive:file_hash">6901f90c2abcfe6b51717509b22b6487</property>
  <property name="kdenlive:folderid">-1</property>
 </producer>
 <producer id="producer13" in="00:00:00.000" out="00:00:04.960">
  <property name="length">00:00:05.000</property>
  <property name="eof">pause</property>
  <property name="resource">C:/Users/SERGEI/Pictures/Photo/2019/Kristiina/Nostalgy/270900_9659.JPG</property>
  <property name="ttl">25</property>
  <property name="aspect_ratio">1</property>
  <property name="progressive">1</property>
  <property name="seekable">1</property>
  <property name="meta.media.width">704</property>
  <property name="meta.media.height">576</property>
  <property name="mlt_service">qimage</property>
  <property name="kdenlive:clipname"/>
  <property name="kdenlive:duration">00:00:05.000</property>
  <property name="kdenlive:id">15</property>
  <property name="kdenlive:file_size">54297</property>
  <property name="kdenlive:file_hash">5ba53bdd54be66ee907ea9c319d5127d</property>
  <property name="kdenlive:folderid">-1</property>
 </producer>
 <producer id="producer14" in="00:00:00.000" out="00:00:08.720">
  <property name="length">219</property>
  <property name="eof">pause</property>
  <property name="resource">C:/Users/SERGEI/Pictures/Photo/2019/Kristiina/Nostalgy/56157931_2714992135210120_667831044744937472_n.jpg</property>
  <property name="ttl">25</property>
  <property name="aspect_ratio">1</property>
  <property name="progressive">1</property>
  <property name="seekable">1</property>
  <property name="meta.media.width">160</property>
  <property name="meta.media.height">160</property>
  <property name="mlt_service">qimage</property>
  <property name="kdenlive:clipname"/>
  <property name="kdenlive:duration">00:00:05.000</property>
  <property name="kdenlive:id">17</property>
  <property name="kdenlive:file_size">6730</property>
  <property name="kdenlive:file_hash">84fffc50ddd58359e3a0696cd5e8f5b0</property>
  <property name="kdenlive:folderid">-1</property>
 </producer>
 <producer id="producer15" in="00:00:00.000" out="00:00:04.960">
  <property name="length">00:00:05.000</property>
  <property name="eof">pause</property>
  <property name="resource">C:/Users/SERGEI/Pictures/Photo/2019/Kristiina/Nostalgy/270900_9784.JPG</property>
  <property name="ttl">25</property>
  <property name="aspect_ratio">1</property>
  <property name="progressive">1</property>
  <property name="seekable">1</property>
  <property name="meta.media.width">704</property>
  <property name="meta.media.height">576</property>
  <property name="mlt_service">qimage</property>
  <property name="kdenlive:clipname"/>
  <property name="kdenlive:duration">00:00:05.000</property>
  <property name="kdenlive:id">16</property>
  <property name="kdenlive:file_size">84249</property>
  <property name="kdenlive:file_hash">d52756bbd743958a9bf4e542e4be874a</property>
  <property name="kdenlive:folderid">-1</property>
 </producer>
 <producer id="producer16" in="00:00:00.000" out="00:00:04.960">
  <property name="length">00:00:05.000</property>
  <property name="eof">pause</property>
  <property name="resource">C:/Users/SERGEI/Pictures/Photo/2019/Kristiina/Nostalgy/docu0002_3 (2).JPG</property>
  <property name="ttl">25</property>
  <property name="aspect_ratio">1</property>
  <property name="progressive">1</property>
  <property name="seekable">1</property>
  <property name="meta.media.width">497</property>
  <property name="meta.media.height">740</property>
  <property name="mlt_service">qimage</property>
  <property name="kdenlive:clipname"/>
  <property name="kdenlive:duration">00:00:05.000</property>
  <property name="kdenlive:id">18</property>
  <property name="kdenlive:file_size">158322</property>
  <property name="kdenlive:file_hash">4496cfd98d81591fd9d096d131084026</property>
  <property name="kdenlive:folderid">-1</property>
 </producer>
 <producer id="producer17" in="00:00:00.000" out="00:00:04.960">
  <property name="length">00:00:05.000</property>
  <property name="eof">pause</property>
  <property name="resource">C:/Users/SERGEI/Pictures/Photo/2019/Kristiina/Nostalgy/docu0005_3.jpg</property>
  <property name="ttl">25</property>
  <property name="aspect_ratio">1</property>
  <property name="progressive">1</property>
  <property name="seekable">1</property>
  <property name="meta.media.width">490</property>
  <property name="meta.media.height">682</property>
  <property name="mlt_service">qimage</property>
  <property name="kdenlive:clipname"/>
  <property name="kdenlive:duration">00:00:05.000</property>
  <property name="kdenlive:id">19</property>
  <property name="kdenlive:file_size">60448</property>
  <property name="kdenlive:file_hash">4a36e701dec2ccf371efecd986c945f5</property>
  <property name="kdenlive:folderid">-1</property>
 </producer>
 <producer id="producer18" in="00:00:00.000" out="00:00:04.960">
  <property name="length">00:00:05.000</property>
  <property name="eof">pause</property>
  <property name="resource">C:/Users/SERGEI/Pictures/Photo/2019/Kristiina/Nostalgy/docu0005_4.JPG</property>
  <property name="ttl">25</property>
  <property name="aspect_ratio">1</property>
  <property name="progressive">1</property>
  <property name="seekable">1</property>
  <property name="meta.media.width">1040</property>
  <property name="meta.media.height">740</property>
  <property name="mlt_service">qimage</property>
  <property name="kdenlive:clipname"/>
  <property name="kdenlive:duration">00:00:05.000</property>
  <property name="kdenlive:id">20</property>
  <property name="kdenlive:file_size">112021</property>
  <property name="kdenlive:file_hash">f07ac4f6e00f9349c59799118077dd2b</property>
  <property name="kdenlive:folderid">-1</property>
 </producer>
 <producer id="producer19" in="00:00:00.000" out="00:00:04.960">
  <property name="length">00:00:05.000</property>
  <property name="eof">pause</property>
  <property name="resource">C:/Users/SERGEI/Pictures/Photo/2019/Kristiina/Nostalgy/docu0005_4a.JPG</property>
  <property name="ttl">25</property>
  <property name="aspect_ratio">1</property>
  <property name="progressive">1</property>
  <property name="seekable">1</property>
  <property name="meta.media.width">395</property>
  <property name="meta.media.height">740</property>
  <property name="mlt_service">qimage</property>
  <property name="kdenlive:clipname"/>
  <property name="kdenlive:duration">00:00:05.000</property>
  <property name="kdenlive:id">21</property>
  <property name="kdenlive:file_size">71133</property>
  <property name="kdenlive:file_hash">3f22c15dd3357ba1b6e3478af95cb887</property>
  <property name="kdenlive:folderid">-1</property>
 </producer>
 <producer id="producer20" in="00:00:00.000" out="00:00:04.960">
  <property name="length">00:00:05.000</property>
  <property name="eof">pause</property>
  <property name="resource">C:/Users/SERGEI/Pictures/Photo/2019/Kristiina/Nostalgy/docu0006_1.JPG</property>
  <property name="ttl">25</property>
  <property name="aspect_ratio">1</property>
  <property name="progressive">1</property>
  <property name="seekable">1</property>
  <property name="meta.media.width">1080</property>
  <property name="meta.media.height">740</property>
  <property name="mlt_service">qimage</property>
  <property name="kdenlive:clipname"/>
  <property name="kdenlive:duration">00:00:05.000</property>
  <property name="kdenlive:id">22</property>
  <property name="kdenlive:file_size">107267</property>
  <property name="kdenlive:file_hash">075341668d0f4917a80fd3e8220afa1d</property>
  <property name="kdenlive:folderid">-1</property>
 </producer>
 <producer id="producer21" in="00:00:00.000" out="00:00:04.960">
  <property name="length">00:00:05.000</property>
  <property name="eof">pause</property>
  <property name="resource">C:/Users/SERGEI/Pictures/Photo/2019/Kristiina/Nostalgy/docu0013_4.JPG</property>
  <property name="ttl">25</property>
  <property name="aspect_ratio">1</property>
  <property name="progressive">1</property>
  <property name="seekable">1</property>
  <property name="meta.media.width">450</property>
  <property name="meta.media.height">564</property>
  <property name="mlt_service">qimage</property>
  <property name="kdenlive:clipname"/>
  <property name="kdenlive:duration">00:00:05.000</property>
  <property name="kdenlive:id">23</property>
  <property name="kdenlive:file_size">38618</property>
  <property name="kdenlive:file_hash">01b955da3514455a021ea7444cc89ec4</property>
  <property name="kdenlive:folderid">-1</property>
 </producer>
 <producer id="producer22" in="00:00:00.000" out="00:00:04.960">
  <property name="length">00:00:05.000</property>
  <property name="eof">pause</property>
  <property name="resource">C:/Users/SERGEI/Pictures/Photo/2019/Kristiina/Nostalgy/Docu0018_1a.jpg</property>
  <property name="ttl">25</property>
  <property name="aspect_ratio">1</property>
  <property name="progressive">1</property>
  <property name="seekable">1</property>
  <property name="meta.media.width">1090</property>
  <property name="meta.media.height">623</property>
  <property name="mlt_service">qimage</property>
  <property name="kdenlive:clipname"/>
  <property name="kdenlive:duration">00:00:05.000</property>
  <property name="kdenlive:id">24</property>
  <property name="kdenlive:file_size">123682</property>
  <property name="kdenlive:file_hash">56da9dd843e8b01c146cc810dcfe4a1a</property>
  <property name="kdenlive:folderid">-1</property>
 </producer>
 <producer id="producer23" in="00:00:00.000" out="00:00:04.960">
  <property name="length">00:00:05.000</property>
  <property name="eof">pause</property>
  <property name="resource">C:/Users/SERGEI/Pictures/Photo/2019/Kristiina/Nostalgy/Docu0018_3.jpg</property>
  <property name="ttl">25</property>
  <property name="aspect_ratio">1</property>
  <property name="progressive">1</property>
  <property name="seekable">1</property>
  <property name="meta.media.width">732</property>
  <property name="meta.media.height">351</property>
  <property name="mlt_service">qimage</property>
  <property name="kdenlive:clipname"/>
  <property name="kdenlive:duration">00:00:05.000</property>
  <property name="kdenlive:id">25</property>
  <property name="kdenlive:file_size">76926</property>
  <property name="kdenlive:file_hash">900ded11a014fb635a47bc980b1a52b7</property>
  <property name="kdenlive:folderid">-1</property>
 </producer>
 <producer id="producer24" in="00:00:00.000" out="00:00:04.960">
  <property name="length">00:00:05.000</property>
  <property name="eof">pause</property>
  <property name="resource">C:/Users/SERGEI/Pictures/Photo/2019/Kristiina/Nostalgy/DSC02152.JPG</property>
  <property name="ttl">25</property>
  <property name="aspect_ratio">1</property>
  <property name="progressive">1</property>
  <property name="seekable">1</property>
  <property name="meta.media.width">987</property>
  <property name="meta.media.height">740</property>
  <property name="mlt_service">qimage</property>
  <property name="kdenlive:clipname"/>
  <property name="kdenlive:duration">00:00:05.000</property>
  <property name="kdenlive:id">26</property>
  <property name="kdenlive:file_size">133215</property>
  <property name="kdenlive:file_hash">d1964ca924c3465ebd151c3873b2978b</property>
  <property name="kdenlive:folderid">-1</property>
 </producer>
 <producer id="producer25" in="00:00:00.000" out="00:00:04.960">
  <property name="length">00:00:05.000</property>
  <property name="eof">pause</property>
  <property name="resource">C:/Users/SERGEI/Pictures/Photo/2019/Kristiina/Nostalgy/DSC02297.JPG</property>
  <property name="ttl">25</property>
  <property name="aspect_ratio">1</property>
  <property name="progressive">1</property>
  <property name="seekable">1</property>
  <property name="meta.media.width">555</property>
  <property name="meta.media.height">740</property>
  <property name="mlt_service">qimage</property>
  <property name="kdenlive:clipname"/>
  <property name="kdenlive:duration">00:00:05.000</property>
  <property name="kdenlive:id">27</property>
  <property name="kdenlive:file_size">115032</property>
  <property name="kdenlive:file_hash">6391993d9c83355a6ea02543b130ef30</property>
  <property name="kdenlive:folderid">-1</property>
 </producer>
 <producer id="producer26" in="00:00:00.000" out="00:00:04.960">
  <property name="length">00:00:05.000</property>
  <property name="eof">pause</property>
  <property name="resource">C:/Users/SERGEI/Pictures/Photo/2019/Kristiina/Nostalgy/IMG-20181120-WA0001.jpg</property>
  <property name="ttl">25</property>
  <property name="aspect_ratio">1</property>
  <property name="progressive">1</property>
  <property name="seekable">1</property>
  <property name="meta.media.width">323</property>
  <property name="meta.media.height">740</property>
  <property name="mlt_service">qimage</property>
  <property name="kdenlive:clipname"/>
  <property name="kdenlive:duration">00:00:05.000</property>
  <property name="kdenlive:id">28</property>
  <property name="kdenlive:file_size">63186</property>
  <property name="kdenlive:file_hash">2968df3d6385e259c045cce65edb5768</property>
  <property name="kdenlive:folderid">-1</property>
 </producer>
 <producer id="producer27" in="00:00:00.000" out="00:00:04.960">
  <property name="length">00:00:05.000</property>
  <property name="eof">pause</property>
  <property name="resource">C:/Users/SERGEI/Pictures/Photo/2019/Kristiina/Nostalgy/IMG-20181120-WA0004.jpg</property>
  <property name="ttl">25</property>
  <property name="aspect_ratio">1</property>
  <property name="progressive">1</property>
  <property name="seekable">1</property>
  <property name="meta.media.width">658</property>
  <property name="meta.media.height">741</property>
  <property name="mlt_service">qimage</property>
  <property name="kdenlive:clipname"/>
  <property name="kdenlive:duration">00:00:05.000</property>
  <property name="kdenlive:id">29</property>
  <property name="kdenlive:file_size">103563</property>
  <property name="kdenlive:file_hash">0c0dc99f8950b11563693a6fb42f855d</property>
  <property name="kdenlive:folderid">-1</property>
 </producer>
 <producer id="producer28" in="00:00:00.000" out="00:00:04.960">
  <property name="length">00:00:05.000</property>
  <property name="eof">pause</property>
  <property name="resource">C:/Users/SERGEI/Pictures/Photo/2019/Kristiina/Nostalgy/kri-krym2.JPG</property>
  <property name="ttl">25</property>
  <property name="aspect_ratio">1</property>
  <property name="progressive">1</property>
  <property name="seekable">1</property>
  <property name="meta.media.width">442</property>
  <property name="meta.media.height">740</property>
  <property name="mlt_service">qimage</property>
  <property name="kdenlive:clipname"/>
  <property name="kdenlive:duration">00:00:05.000</property>
  <property name="kdenlive:id">30</property>
  <property name="kdenlive:file_size">106371</property>
  <property name="kdenlive:file_hash">f9690b574e5c553b536bd856d8705ac2</property>
  <property name="kdenlive:folderid">-1</property>
 </producer>
 <producer id="producer29" in="00:00:00.000" out="00:00:04.960">
  <property name="length">00:00:05.000</property>
  <property name="eof">pause</property>
  <property name="resource">C:/Users/SERGEI/Pictures/Photo/2019/Kristiina/Nostalgy/Krista2.jpg</property>
  <property name="ttl">25</property>
  <property name="aspect_ratio">1</property>
  <property name="progressive">1</property>
  <property name="seekable">1</property>
  <property name="meta.media.width">670</property>
  <property name="meta.media.height">493</property>
  <property name="mlt_service">qimage</property>
  <property name="kdenlive:clipname"/>
  <property name="kdenlive:duration">00:00:05.000</property>
  <property name="kdenlive:id">31</property>
  <property name="kdenlive:file_size">29680</property>
  <property name="kdenlive:file_hash">6407a548ef28882c6e08b47bb78bb7d3</property>
  <property name="kdenlive:folderid">-1</property>
 </producer>
 <producer id="producer30" in="00:00:00.000" out="00:00:04.960">
  <property name="length">00:00:05.000</property>
  <property name="eof">pause</property>
  <property name="resource">C:/Users/SERGEI/Pictures/Photo/2019/Kristiina/Nostalgy/P1010094.JPG</property>
  <property name="ttl">25</property>
  <property name="aspect_ratio">1</property>
  <property name="progressive">1</property>
  <property name="seekable">1</property>
  <property name="meta.media.width">987</property>
  <property name="meta.media.height">740</property>
  <property name="mlt_service">qimage</property>
  <property name="kdenlive:clipname"/>
  <property name="kdenlive:duration">00:00:05.000</property>
  <property name="kdenlive:id">32</property>
  <property name="kdenlive:file_size">177609</property>
  <property name="kdenlive:file_hash">d58458c591f88d04b55606ad2abe4834</property>
  <property name="kdenlive:folderid">-1</property>
 </producer>
 <producer id="producer31" in="00:00:00.000" out="00:00:04.960">
  <property name="length">00:00:05.000</property>
  <property name="eof">pause</property>
  <property name="resource">C:/Users/SERGEI/Pictures/Photo/2019/Kristiina/Nostalgy/Изображение 034.jpg</property>
  <property name="ttl">25</property>
  <property name="aspect_ratio">1</property>
  <property name="progressive">1</property>
  <property name="seekable">1</property>
  <property name="meta.media.width">987</property>
  <property name="meta.media.height">740</property>
  <property name="mlt_service">qimage</property>
  <property name="kdenlive:clipname"/>
  <property name="kdenlive:duration">00:00:05.000</property>
  <property name="kdenlive:id">33</property>
  <property name="kdenlive:file_size">210521</property>
  <property name="kdenlive:file_hash">163aaece06602d86a077bc43b59c276a</property>
  <property name="kdenlive:folderid">-1</property>
 </producer>
 <producer id="producer32" in="00:00:00.000" out="00:03:24.400">
  <property name="length">5111</property>
  <property name="eof">pause</property>
  <property name="resource">C:/Users/SERGEI/Pictures/Photo/2019/Kristiina/Img/087d0d4a2791cdaea931dcb79e04df04.jpg</property>
  <property name="ttl">25</property>
  <property name="aspect_ratio">1</property>
  <property name="progressive">1</property>
  <property name="seekable">1</property>
  <property name="meta.media.width">699</property>
  <property name="meta.media.height">537</property>
  <property name="mlt_service">qimage</property>
  <property name="kdenlive:clipname"/>
  <property name="kdenlive:duration">00:00:05.000</property>
  <property name="kdenlive:id">34</property>
  <property name="kdenlive:file_size">78347</property>
  <property name="kdenlive:file_hash">24e035c8f898ff430d73a8544fa3a7ab</property>
  <property name="kdenlive:folderid">-1</property>
 </producer>
 <playlist id="main_bin">
  <property name="kdenlive:docproperties.activeTrack">0</property>
  <property name="kdenlive:docproperties.audioTarget">1</property>
  <property name="kdenlive:docproperties.decimalPoint">.</property>
  <property name="kdenlive:docproperties.disablepreview">0</property>
  <property name="kdenlive:docproperties.documentid">1572079488951</property>
  <property name="kdenlive:docproperties.enableTimelineZone">0</property>
  <property name="kdenlive:docproperties.enableexternalproxy">0</property>
  <property name="kdenlive:docproperties.enableproxy">0</property>
  <property name="kdenlive:docproperties.externalproxyparams"/>
  <property name="kdenlive:docproperties.generateimageproxy">0</property>
  <property name="kdenlive:docproperties.generateproxy">0</property>
  <property name="kdenlive:docproperties.groups">[
]
</property>
  <property name="kdenlive:docproperties.kdenliveversion">19.04.2</property>
  <property name="kdenlive:docproperties.position">2490</property>
  <property name="kdenlive:docproperties.previewextension"/>
  <property name="kdenlive:docproperties.previewparameters"/>
  <property name="kdenlive:docproperties.profile">C:/Users/SERGEI/AppData/Roaming/kdenlive/profiles/customprofile10</property>
  <property name="kdenlive:docproperties.proxyextension">mkv</property>
  <property name="kdenlive:docproperties.proxyimageminsize">2000</property>
  <property name="kdenlive:docproperties.proxyimagesize">800</property>
  <property name="kdenlive:docproperties.proxyminsize">1000</property>
  <property name="kdenlive:docproperties.proxyparams">-vf yadif,scale=960:-2 -qscale 3 -vcodec mjpeg -acodec pcm_s16le</property>
  <property name="kdenlive:docproperties.scrollPos">200</property>
  <property name="kdenlive:docproperties.seekOffset">30000</property>
  <property name="kdenlive:docproperties.version">0.98</property>
  <property name="kdenlive:docproperties.verticalzoom">1</property>
  <property name="kdenlive:docproperties.videoTarget">2</property>
  <property name="kdenlive:docproperties.zonein">0</property>
  <property name="kdenlive:docproperties.zoneout">75</property>
  <property name="kdenlive:docproperties.zoom">9</property>
  <property name="kdenlive:documentnotes"/>
  <property name="xml_retain">1</property>
  <entry producer="producer0" in="00:00:00.000" out="00:03:25.840"/>
  <entry producer="producer1" in="00:00:00.000" out="00:00:04.960"/>
  <entry producer="producer2" in="00:00:00.000" out="00:00:04.960"/>
  <entry producer="producer3" in="00:00:00.000" out="00:00:04.960"/>
  <entry producer="producer4" in="00:00:00.000" out="00:00:04.960"/>
  <entry producer="producer5" in="00:00:00.000" out="00:00:04.960"/>
  <entry producer="producer6" in="00:00:00.000" out="00:00:04.960"/>
  <entry producer="producer7" in="00:00:00.000" out="00:00:04.960"/>
  <entry producer="producer8" in="00:00:00.000" out="00:00:04.960"/>
  <entry producer="producer9" in="00:00:00.000" out="00:00:04.960"/>
  <entry producer="producer10" in="00:00:00.000" out="00:00:04.960"/>
  <entry producer="producer11" in="00:00:00.000" out="00:00:04.960"/>
  <entry producer="producer12" in="00:00:00.000" out="00:00:04.960"/>
  <entry producer="producer13" in="00:00:00.000" out="00:00:04.960"/>
  <entry producer="producer14" in="00:00:00.000" out="00:00:04.960"/>
  <entry producer="producer15" in="00:00:00.000" out="00:00:04.960"/>
  <entry producer="producer16" in="00:00:00.000" out="00:00:04.960"/>
  <entry producer="producer17" in="00:00:00.000" out="00:00:04.960"/>
  <entry producer="producer18" in="00:00:00.000" out="00:00:04.960"/>
  <entry producer="producer19" in="00:00:00.000" out="00:00:04.960"/>
  <entry producer="producer20" in="00:00:00.000" out="00:00:04.960"/>
  <entry producer="producer21" in="00:00:00.000" out="00:00:04.960"/>
  <entry producer="producer22" in="00:00:00.000" out="00:00:04.960"/>
  <entry producer="producer23" in="00:00:00.000" out="00:00:04.960"/>
  <entry producer="producer24" in="00:00:00.000" out="00:00:04.960"/>
  <entry producer="producer25" in="00:00:00.000" out="00:00:04.960"/>
  <entry producer="producer26" in="00:00:00.000" out="00:00:04.960"/>
  <entry producer="producer27" in="00:00:00.000" out="00:00:04.960"/>
  <entry producer="producer28" in="00:00:00.000" out="00:00:04.960"/>
  <entry producer="producer29" in="00:00:00.000" out="00:00:04.960"/>
  <entry producer="producer30" in="00:00:00.000" out="00:00:04.960"/>
  <entry producer="producer31" in="00:00:00.000" out="00:00:04.960"/>
  <entry producer="producer32" in="00:00:00.000" out="00:00:04.960"/>
 </playlist>
 <producer id="black_track" in="00:00:00.000" out="00:23:30.480">
  <property name="length">2147483647</property>
  <property name="eof">continue</property>
  <property name="resource">black</property>
  <property name="aspect_ratio">1</property>
  <property name="mlt_service">color</property>
  <property name="set.test_audio">0</property>
 </producer>
 <producer title="Anonymous Submission" id="producer33" in="00:00:00.000" out="00:03:25.840">
  <property name="length">5147</property>
  <property name="eof">pause</property>
  <property name="resource">C:/Users/SERGEI/Music/nostalgic_love/nostalgic_love_Lity.mp3</property>
  <property name="meta.media.nb_streams">1</property>
  <property name="meta.media.0.stream.type">audio</property>
  <property name="meta.media.0.codec.sample_fmt">fltp</property>
  <property name="meta.media.0.codec.sample_rate">44100</property>
  <property name="meta.media.0.codec.channels">2</property>
  <property name="meta.media.0.codec.name">mp3float</property>
  <property name="meta.media.0.codec.long_name">MP3 (MPEG audio layer 3)</property>
  <property name="meta.media.0.codec.bit_rate">187003</property>
  <property name="meta.attr.0.stream.encoder.markup">LAME3.99r</property>
  <property name="seekable">1</property>
  <property name="audio_index">0</property>
  <property name="video_index">-1</property>
  <property name="mute_on_pause">1</property>
  <property name="mlt_service">avformat-novalidate</property>
  <property name="kdenlive:clipname"/>
  <property name="kdenlive:id">2</property>
  <property name="kdenlive:file_size">4812314</property>
  <property name="kdenlive:file_hash">a5b4ff872af96d12661f6df26a96f557</property>
  <property name="kdenlive:folderid">-1</property>
  <property name="global_feed">1</property>
  <property name="xml">was here</property>
  <property name="set.test_audio">0</property>
  <property name="set.test_image">1</property>
 </producer>
 <playlist id="playlist0">
  <property name="kdenlive:audio_track">1</property>
  <blank length="00:01:40.680"/>
  <entry producer="producer33" in="00:01:23.520" out="00:03:13.280">
   <property name="kdenlive:id">2</property>
  </entry>
 </playlist>
 <playlist id="playlist1">
  <property name="kdenlive:audio_track">1</property>
 </playlist>
 <tractor id="tractor0" in="00:00:00.000" out="00:03:30.440">
  <property name="kdenlive:audio_track">1</property>
  <property name="kdenlive:trackheight">56</property>
  <property name="kdenlive:collapsed">0</property>
  <property name="kdenlive:thumbs_format"/>
  <property name="kdenlive:audio_rec"/>
  <track hide="both" producer="playlist0"/>
  <track hide="both" producer="playlist1"/>
 </tractor>
 <producer title="Anonymous Submission" id="producer34" in="00:00:00.000" out="00:03:25.840">
  <property name="length">5147</property>
  <property name="eof">pause</property>
  <property name="resource">C:/Users/SERGEI/Music/nostalgic_love/nostalgic_love_Lity.mp3</property>
  <property name="meta.media.nb_streams">1</property>
  <property name="meta.media.0.stream.type">audio</property>
  <property name="meta.media.0.codec.sample_fmt">fltp</property>
  <property name="meta.media.0.codec.sample_rate">44100</property>
  <property name="meta.media.0.codec.channels">2</property>
  <property name="meta.media.0.codec.name">mp3float</property>
  <property name="meta.media.0.codec.long_name">MP3 (MPEG audio layer 3)</property>
  <property name="meta.media.0.codec.bit_rate">187003</property>
  <property name="meta.attr.0.stream.encoder.markup">LAME3.99r</property>
  <property name="seekable">1</property>
  <property name="audio_index">0</property>
  <property name="video_index">-1</property>
  <property name="mute_on_pause">1</property>
  <property name="mlt_service">avformat-novalidate</property>
  <property name="kdenlive:clipname"/>
  <property name="kdenlive:id">2</property>
  <property name="kdenlive:file_size">4812314</property>
  <property name="kdenlive:file_hash">a5b4ff872af96d12661f6df26a96f557</property>
  <property name="kdenlive:folderid">-1</property>
  <property name="global_feed">1</property>
  <property name="xml">was here</property>
  <property name="set.test_audio">0</property>
  <property name="set.test_image">1</property>
 </producer>
 <playlist id="playlist2">
  <property name="kdenlive:audio_track">1</property>
  <entry producer="producer34" in="00:00:01.440" out="00:01:23.480">
   <property name="kdenlive:id">2</property>
  </entry>
  <entry producer="producer34" in="00:03:13.320" out="00:03:25.840">
   <property name="kdenlive:id">2</property>
  </entry>
 </playlist>
 <playlist id="playlist3">
  <property name="kdenlive:audio_track">1</property>
 </playlist>
 <tractor id="tractor1" in="00:00:00.000" out="00:01:34.600">
  <property name="kdenlive:audio_track">1</property>
  <property name="kdenlive:trackheight">56</property>
  <property name="kdenlive:collapsed">0</property>
  <property name="kdenlive:thumbs_format"/>
  <property name="kdenlive:audio_rec"/>
  <track hide="video" producer="playlist2"/>
  <track hide="video" producer="playlist3"/>
 </tractor>
 <playlist id="playlist4">
  <entry producer="producer32" in="00:00:00.000" out="00:01:34.600">
   <property name="kdenlive:id">34</property>
   <property name="kdenlive:activeeffect">0</property>
   <filter id="filter0">
    <property name="rotate_center">1</property>
    <property name="mlt_service">qtblend</property>
    <property name="kdenlive_id">qtblend</property>
    <property name="rect">00:00:00.000=0 0 1920 1480 1</property>
    <property name="rotation">00:00:00.000=0</property>
    <property name="compositing">0</property>
    <property name="distort">0</property>
    <property name="kdenlive:collapsed">0</property>
   </filter>
  </entry>
 </playlist>
 <playlist id="playlist5"/>
 <tractor id="tractor2" in="00:00:00.000" out="00:01:34.600">
  <property name="kdenlive:trackheight">56</property>
  <property name="kdenlive:collapsed">0</property>
  <property name="kdenlive:thumbs_format"/>
  <property name="kdenlive:audio_rec"/>
  <track hide="audio" producer="playlist4"/>
  <track hide="audio" producer="playlist5"/>
 </tractor>
 <playlist id="playlist6">
  <entry producer="producer29" in="00:00:00.000" out="00:00:04.960">
   <property name="kdenlive:id">31</property>
  </entry>
  <blank length="00:00:00.680"/>
  <entry producer="producer2" in="00:00:00.000" out="00:00:04.960">
   <property name="kdenlive:id">4</property>
  </entry>
  <blank length="00:00:01.360"/>
  <entry producer="producer2" in="00:00:00.000" out="00:00:04.960">
   <property name="kdenlive:id">4</property>
  </entry>
  <blank length="00:00:01.920"/>
  <entry producer="producer17" in="00:00:00.000" out="00:00:04.960">
   <property name="kdenlive:id">19</property>
  </entry>
  <blank length="00:00:01.960"/>
  <entry producer="producer16" in="00:00:00.000" out="00:00:04.960">
   <property name="kdenlive:id">18</property>
  </entry>
  <blank length="00:00:02.320"/>
  <entry producer="producer1" in="00:00:00.000" out="00:00:04.960">
   <property name="kdenlive:id">3</property>
  </entry>
  <blank length="00:00:01.440"/>
  <entry producer="producer9" in="00:00:00.000" out="00:00:04.960">
   <property name="kdenlive:id">11</property>
  </entry>
  <blank length="00:00:01.360"/>
  <entry producer="producer7" in="00:00:00.000" out="00:00:04.960">
   <property name="kdenlive:id">9</property>
  </entry>
  <blank length="00:00:01.720"/>
  <entry producer="producer8" in="00:00:00.000" out="00:00:04.960">
   <property name="kdenlive:id">10</property>
  </entry>
  <blank length="00:00:01.080"/>
  <entry producer="producer13" in="00:00:00.000" out="00:00:04.960">
   <property name="kdenlive:id">15</property>
  </entry>
  <blank length="00:00:02.480"/>
  <entry producer="producer12" in="00:00:00.000" out="00:00:04.960">
   <property name="kdenlive:id">14</property>
  </entry>
  <blank length="00:00:01.400"/>
  <entry producer="producer25" in="00:00:00.000" out="00:00:04.960">
   <property name="kdenlive:id">27</property>
  </entry>
  <blank length="00:00:01.520"/>
  <entry producer="producer26" in="00:00:00.000" out="00:00:04.960">
   <property name="kdenlive:id">28</property>
  </entry>
  <blank length="00:00:01.640"/>
  <entry producer="producer14" in="00:00:00.000" out="00:00:08.720">
   <property name="kdenlive:id">17</property>
  </entry>
 </playlist>
 <playlist id="playlist7"/>
 <tractor id="tractor3" in="00:00:00.000" out="00:01:34.600">
  <property name="kdenlive:trackheight">56</property>
  <property name="kdenlive:collapsed">0</property>
  <property name="kdenlive:thumbs_format"/>
  <property name="kdenlive:audio_rec"/>
  <track hide="audio" producer="playlist6"/>
  <track hide="audio" producer="playlist7"/>
 </tractor>
 <tractor title="Anonymous Submission" id="tractor4" global_feed="1" in="00:00:00.000" out="00:23:30.480">
  <track producer="black_track"/>
  <track producer="tractor0"/>
  <track producer="tractor1"/>
  <track producer="tractor2"/>
  <track producer="tractor3"/>
  <transition id="transition0">
   <property name="a_track">0</property>
   <property name="b_track">1</property>
   <property name="mlt_service">mix</property>
   <property name="kdenlive_id">mix</property>
   <property name="internal_added">237</property>
   <property name="always_active">1</property>
   <property name="sum">1</property>
  </transition>
  <transition id="transition1">
   <property name="a_track">0</property>
   <property name="b_track">2</property>
   <property name="mlt_service">mix</property>
   <property name="kdenlive_id">mix</property>
   <property name="internal_added">237</property>
   <property name="always_active">1</property>
   <property name="sum">1</property>
  </transition>
  <transition id="transition2">
   <property name="a_track">0</property>
   <property name="b_track">3</property>
   <property name="compositing">0</property>
   <property name="distort">0</property>
   <property name="rotate_center">0</property>
   <property name="mlt_service">qtblend</property>
   <property name="kdenlive_id">qtblend</property>
   <property name="internal_added">237</property>
   <property name="always_active">1</property>
  </transition>
  <transition id="transition3">
   <property name="a_track">0</property>
   <property name="b_track">4</property>
   <property name="compositing">0</property>
   <property name="distort">0</property>
   <property name="rotate_center">0</property>
   <property name="mlt_service">qtblend</property>
   <property name="kdenlive_id">qtblend</property>
   <property name="internal_added">237</property>
   <property name="always_active">1</property>
  </transition>
 </tractor>
</mlt>
