<?xml version='1.0' encoding='utf-8'?>
<mlt title="Anonymous Submission" LC_NUMERIC="en_US" producer="main_bin" version="6.17.0" root="C:/Users/SERGEI/Pictures/Photo/2019/Ostin/Proj">
 <profile frame_rate_num="25" sample_aspect_num="1" display_aspect_den="1080" colorspace="709" progressive="1" description="1920x1080 25.00fps" display_aspect_num="1920" frame_rate_den="1" width="1920" height="1080" sample_aspect_den="1"/>
 <producer title="Anonymous Submission" id="producer0" in="00:00:00.000" out="00:05:16.760">
  <property name="length">7920</property>
  <property name="eof">pause</property>
  <property name="resource">C:/Users/SERGEI/Music/Victory.mp3</property>
  <property name="meta.media.nb_streams">1</property>
  <property name="meta.media.0.stream.type">audio</property>
  <property name="meta.media.0.codec.sample_fmt">fltp</property>
  <property name="meta.media.0.codec.sample_rate">44100</property>
  <property name="meta.media.0.codec.channels">2</property>
  <property name="meta.media.0.codec.name">mp3float</property>
  <property name="meta.media.0.codec.long_name">MP3 (MPEG audio layer 3)</property>
  <property name="meta.media.0.codec.bit_rate">187638</property>
  <property name="meta.attr.0.stream.encoder.markup">LAME3.99r</property>
  <property name="seekable">1</property>
  <property name="audio_index">0</property>
  <property name="video_index">-1</property>
  <property name="mute_on_pause">1</property>
  <property name="mlt_service">avformat</property>
  <property name="kdenlive:clipname"/>
  <property name="kdenlive:id">2</property>
  <property name="kdenlive:file_size">7430755</property>
  <property name="kdenlive:file_hash">29891eb95957c1cf1f121724d358d192</property>
  <property name="kdenlive:folderid">-1</property>
  <property name="global_feed">1</property>
 </producer>
 <producer id="producer1" in="00:00:00.000" out="00:00:04.960">
  <property name="length">00:00:05.000</property>
  <property name="eof">pause</property>
  <property name="resource">C:/Users/SERGEI/Pictures/Photo/2019/Ostin/Pistol_1/IMG-20190727-WA0002.jpg</property>
  <property name="ttl">25</property>
  <property name="aspect_ratio">1</property>
  <property name="progressive">1</property>
  <property name="seekable">1</property>
  <property name="meta.media.width">555</property>
  <property name="meta.media.height">740</property>
  <property name="mlt_service">qimage</property>
  <property name="kdenlive:clipname"/>
  <property name="kdenlive:duration">00:00:05.000</property>
  <property name="kdenlive:id">3</property>
  <property name="kdenlive:file_size">128644</property>
  <property name="kdenlive:file_hash">7dea9d4d2d2e812da14f053133994e72</property>
  <property name="kdenlive:folderid">-1</property>
 </producer>
 <producer id="producer2" in="00:00:00.000" out="00:04:20.280">
  <property name="length">6508</property>
  <property name="eof">pause</property>
  <property name="resource">C:/Users/SERGEI/Pictures/Photo/2019/Ostin/Pistol_1/IMG-20190727-WA0011.jpg</property>
  <property name="ttl">25</property>
  <property name="aspect_ratio">1</property>
  <property name="progressive">1</property>
  <property name="seekable">1</property>
  <property name="meta.media.width">495</property>
  <property name="meta.media.height">740</property>
  <property name="mlt_service">qimage</property>
  <property name="kdenlive:clipname"/>
  <property name="kdenlive:duration">00:00:05.000</property>
  <property name="kdenlive:id">4</property>
  <property name="kdenlive:file_size">181921</property>
  <property name="kdenlive:file_hash">1bb75d631fd4be8906bc7f3647f594a4</property>
  <property name="kdenlive:folderid">-1</property>
 </producer>
 <producer id="producer3" in="00:00:00.000" out="00:00:34.040">
  <property name="length">852</property>
  <property name="eof">pause</property>
  <property name="resource">C:/Users/SERGEI/Pictures/Photo/2019/Ostin/Pistol_1/IMG-20190727-WA0012.jpg</property>
  <property name="ttl">25</property>
  <property name="aspect_ratio">1</property>
  <property name="progressive">1</property>
  <property name="seekable">1</property>
  <property name="meta.media.width">469</property>
  <property name="meta.media.height">740</property>
  <property name="mlt_service">qimage</property>
  <property name="kdenlive:clipname"/>
  <property name="kdenlive:duration">00:00:05.000</property>
  <property name="kdenlive:id">5</property>
  <property name="kdenlive:file_size">156390</property>
  <property name="kdenlive:file_hash">bc10a25adcc771470dd1321dcb038338</property>
  <property name="kdenlive:folderid">-1</property>
 </producer>
 <producer id="producer4" in="00:00:00.000" out="00:00:04.960">
  <property name="length">00:00:05.000</property>
  <property name="eof">pause</property>
  <property name="resource">C:/Users/SERGEI/Pictures/Photo/2019/Ostin/Pistol_1/IMG-20190727-WA0013.jpg</property>
  <property name="ttl">25</property>
  <property name="aspect_ratio">1</property>
  <property name="progressive">1</property>
  <property name="seekable">1</property>
  <property name="meta.media.width">444</property>
  <property name="meta.media.height">740</property>
  <property name="mlt_service">qimage</property>
  <property name="kdenlive:clipname"/>
  <property name="kdenlive:duration">00:00:05.000</property>
  <property name="kdenlive:id">6</property>
  <property name="kdenlive:file_size">145821</property>
  <property name="kdenlive:file_hash">680f28755798da08fe808e3fc6e774e5</property>
  <property name="kdenlive:folderid">-1</property>
 </producer>
 <producer id="producer5" in="00:00:00.000" out="00:00:04.960">
  <property name="length">00:00:05.000</property>
  <property name="eof">pause</property>
  <property name="resource">C:/Users/SERGEI/Pictures/Photo/2019/Ostin/Pistol_1/IMG-20190812-WA0026.jpg</property>
  <property name="ttl">25</property>
  <property name="aspect_ratio">1</property>
  <property name="progressive">1</property>
  <property name="seekable">1</property>
  <property name="meta.media.width">555</property>
  <property name="meta.media.height">740</property>
  <property name="mlt_service">qimage</property>
  <property name="kdenlive:clipname"/>
  <property name="kdenlive:duration">00:00:05.000</property>
  <property name="kdenlive:id">7</property>
  <property name="kdenlive:file_size">162228</property>
  <property name="kdenlive:file_hash">82b28c8bedd6261e506e8c53a68cb7da</property>
  <property name="kdenlive:folderid">-1</property>
 </producer>
 <producer id="producer6" in="00:00:00.000" out="00:00:04.960">
  <property name="length">00:00:05.000</property>
  <property name="eof">pause</property>
  <property name="resource">C:/Users/SERGEI/Pictures/Photo/2019/Ostin/Pistol_1/IMG-20190812-WA0031.jpg</property>
  <property name="ttl">25</property>
  <property name="aspect_ratio">1</property>
  <property name="progressive">1</property>
  <property name="seekable">1</property>
  <property name="meta.media.width">555</property>
  <property name="meta.media.height">740</property>
  <property name="mlt_service">qimage</property>
  <property name="kdenlive:clipname"/>
  <property name="kdenlive:duration">00:00:05.000</property>
  <property name="kdenlive:id">8</property>
  <property name="kdenlive:file_size">76918</property>
  <property name="kdenlive:file_hash">23ee1bc5ec2ed2e7b9dfd9ce0f79b0a4</property>
  <property name="kdenlive:folderid">-1</property>
 </producer>
 <producer id="producer7" in="00:00:00.000" out="00:00:04.960">
  <property name="length">00:00:05.000</property>
  <property name="eof">pause</property>
  <property name="resource">C:/Users/SERGEI/Pictures/Photo/2019/Ostin/IMG-20190812-WA0035.jpg</property>
  <property name="ttl">25</property>
  <property name="aspect_ratio">1</property>
  <property name="progressive">1</property>
  <property name="seekable">1</property>
  <property name="meta.media.width">740</property>
  <property name="meta.media.height">740</property>
  <property name="mlt_service">qimage</property>
  <property name="kdenlive:clipname"/>
  <property name="kdenlive:duration">00:00:05.000</property>
  <property name="kdenlive:id">9</property>
  <property name="kdenlive:file_size">221781</property>
  <property name="kdenlive:file_hash">6dc319c2f8a8d1e73ebae530a9ebcfe6</property>
  <property name="kdenlive:folderid">-1</property>
 </producer>
 <producer id="producer8" in="00:00:00.000" out="00:00:04.960">
  <property name="length">00:00:05.000</property>
  <property name="eof">pause</property>
  <property name="resource">C:/Users/SERGEI/Pictures/Photo/2019/Ostin/Pistol_2/IMG-20190727-WA0012.jpg</property>
  <property name="ttl">25</property>
  <property name="aspect_ratio">1</property>
  <property name="progressive">1</property>
  <property name="seekable">1</property>
  <property name="meta.media.width">469</property>
  <property name="meta.media.height">740</property>
  <property name="mlt_service">qimage</property>
  <property name="kdenlive:clipname"/>
  <property name="kdenlive:duration">00:00:05.000</property>
  <property name="kdenlive:id">11</property>
  <property name="kdenlive:file_size">156390</property>
  <property name="kdenlive:file_hash">bc10a25adcc771470dd1321dcb038338</property>
  <property name="kdenlive:folderid">-1</property>
 </producer>
 <producer id="producer9" in="00:00:00.000" out="00:00:04.960">
  <property name="length">00:00:05.000</property>
  <property name="eof">pause</property>
  <property name="resource">C:/Users/SERGEI/Pictures/Photo/2019/Ostin/Pistol_2/IMG-20190727-WA0011.jpg</property>
  <property name="ttl">25</property>
  <property name="aspect_ratio">1</property>
  <property name="progressive">1</property>
  <property name="seekable">1</property>
  <property name="meta.media.width">495</property>
  <property name="meta.media.height">740</property>
  <property name="mlt_service">qimage</property>
  <property name="kdenlive:clipname"/>
  <property name="kdenlive:duration">00:00:05.000</property>
  <property name="kdenlive:id">10</property>
  <property name="kdenlive:file_size">181921</property>
  <property name="kdenlive:file_hash">1bb75d631fd4be8906bc7f3647f594a4</property>
  <property name="kdenlive:folderid">-1</property>
 </producer>
 <producer id="producer10" in="00:00:00.000" out="00:00:08.720">
  <property name="length">219</property>
  <property name="eof">pause</property>
  <property name="resource">C:/Users/SERGEI/Pictures/Photo/2019/Ostin/Pistol_2/IMG-20190727-WA0013.jpg</property>
  <property name="ttl">25</property>
  <property name="aspect_ratio">1</property>
  <property name="progressive">1</property>
  <property name="seekable">1</property>
  <property name="meta.media.width">444</property>
  <property name="meta.media.height">740</property>
  <property name="mlt_service">qimage</property>
  <property name="kdenlive:clipname"/>
  <property name="kdenlive:duration">00:00:05.000</property>
  <property name="kdenlive:id">12</property>
  <property name="kdenlive:file_size">145821</property>
  <property name="kdenlive:file_hash">680f28755798da08fe808e3fc6e774e5</property>
  <property name="kdenlive:folderid">-1</property>
 </producer>
 <producer id="producer11" in="00:00:00.000" out="00:00:22.960">
  <property name="length">575</property>
  <property name="eof">pause</property>
  <property name="resource">C:/Users/SERGEI/Pictures/Photo/2019/Ostin/Pistol_2/IMG-20190809-WA0009.jpg</property>
  <property name="ttl">25</property>
  <property name="aspect_ratio">1</property>
  <property name="progressive">1</property>
  <property name="seekable">1</property>
  <property name="meta.media.width">907</property>
  <property name="meta.media.height">740</property>
  <property name="mlt_service">qimage</property>
  <property name="kdenlive:clipname"/>
  <property name="kdenlive:duration">00:00:05.000</property>
  <property name="kdenlive:id">14</property>
  <property name="kdenlive:file_size">260612</property>
  <property name="kdenlive:file_hash">0e9620f786bc41bfba78d7b467cd1a59</property>
  <property name="kdenlive:folderid">-1</property>
 </producer>
 <producer id="producer12" in="00:00:00.000" out="00:00:10.160">
  <property name="length">255</property>
  <property name="eof">pause</property>
  <property name="resource">C:/Users/SERGEI/Pictures/Photo/2019/Ostin/Pistol_2/IMG-20190809-WA0015.jpg</property>
  <property name="ttl">25</property>
  <property name="aspect_ratio">1</property>
  <property name="progressive">1</property>
  <property name="seekable">1</property>
  <property name="meta.media.width">499</property>
  <property name="meta.media.height">740</property>
  <property name="mlt_service">qimage</property>
  <property name="kdenlive:clipname"/>
  <property name="kdenlive:duration">00:00:05.000</property>
  <property name="kdenlive:id">15</property>
  <property name="kdenlive:file_size">206987</property>
  <property name="kdenlive:file_hash">786e52a0d1f5775d69adaa10c2e27d49</property>
  <property name="kdenlive:folderid">-1</property>
 </producer>
 <producer id="producer13" in="00:00:00.000" out="00:00:05.200">
  <property name="length">131</property>
  <property name="eof">pause</property>
  <property name="resource">C:/Users/SERGEI/Pictures/Photo/2019/Ostin/Pistol_2/IMG-20190727-WA0010.jpg</property>
  <property name="ttl">25</property>
  <property name="aspect_ratio">1</property>
  <property name="progressive">1</property>
  <property name="seekable">1</property>
  <property name="meta.media.width">964</property>
  <property name="meta.media.height">740</property>
  <property name="mlt_service">qimage</property>
  <property name="kdenlive:clipname"/>
  <property name="kdenlive:duration">00:00:05.000</property>
  <property name="kdenlive:id">16</property>
  <property name="kdenlive:file_size">242948</property>
  <property name="kdenlive:file_hash">32bd7b5fd7be6be9c1ee5087ee134547</property>
  <property name="kdenlive:folderid">-1</property>
 </producer>
 <producer id="producer14" in="00:00:00.000" out="00:00:04.960">
  <property name="length">00:00:05.000</property>
  <property name="eof">pause</property>
  <property name="resource">C:/Users/SERGEI/Pictures/Photo/2019/Ostin/Pistol_2/IMG-20190727-WA0009.jpg</property>
  <property name="ttl">25</property>
  <property name="aspect_ratio">1</property>
  <property name="progressive">1</property>
  <property name="seekable">1</property>
  <property name="meta.media.width">874</property>
  <property name="meta.media.height">740</property>
  <property name="mlt_service">qimage</property>
  <property name="kdenlive:clipname"/>
  <property name="kdenlive:duration">00:00:05.000</property>
  <property name="kdenlive:id">17</property>
  <property name="kdenlive:file_size">217940</property>
  <property name="kdenlive:file_hash">4ce2025634dba848ced42bbf939a8622</property>
  <property name="kdenlive:folderid">-1</property>
 </producer>
 <producer id="producer15" in="00:00:00.000" out="00:00:04.960">
  <property name="length">00:00:05.000</property>
  <property name="eof">pause</property>
  <property name="resource">C:/Users/SERGEI/Pictures/Photo/2019/Ostin/Pistol_2/IMG-20190812-WA0026.jpg</property>
  <property name="ttl">25</property>
  <property name="aspect_ratio">1</property>
  <property name="progressive">1</property>
  <property name="seekable">1</property>
  <property name="meta.media.width">555</property>
  <property name="meta.media.height">740</property>
  <property name="mlt_service">qimage</property>
  <property name="kdenlive:clipname"/>
  <property name="kdenlive:duration">00:00:05.000</property>
  <property name="kdenlive:id">18</property>
  <property name="kdenlive:file_size">162228</property>
  <property name="kdenlive:file_hash">82b28c8bedd6261e506e8c53a68cb7da</property>
  <property name="kdenlive:folderid">-1</property>
 </producer>
 <producer id="producer16" in="00:00:00.000" out="00:00:14.160">
  <property name="length">355</property>
  <property name="eof">pause</property>
  <property name="resource">C:/Users/SERGEI/Pictures/Photo/2019/Ostin/Pistol_2/IMG-20190812-WA0031.jpg</property>
  <property name="ttl">25</property>
  <property name="aspect_ratio">1</property>
  <property name="progressive">1</property>
  <property name="seekable">1</property>
  <property name="meta.media.width">555</property>
  <property name="meta.media.height">740</property>
  <property name="mlt_service">qimage</property>
  <property name="kdenlive:clipname"/>
  <property name="kdenlive:duration">00:00:05.000</property>
  <property name="kdenlive:id">19</property>
  <property name="kdenlive:file_size">76918</property>
  <property name="kdenlive:file_hash">23ee1bc5ec2ed2e7b9dfd9ce0f79b0a4</property>
  <property name="kdenlive:folderid">-1</property>
 </producer>
 <producer id="producer17" in="00:00:00.000" out="00:00:04.960">
  <property name="length">00:00:05.000</property>
  <property name="eof">pause</property>
  <property name="resource">C:/Users/SERGEI/Pictures/Photo/2019/Ostin/Pistol_2/IMG-20190812-WA0033.jpg</property>
  <property name="ttl">25</property>
  <property name="aspect_ratio">1</property>
  <property name="progressive">1</property>
  <property name="seekable">1</property>
  <property name="meta.media.width">740</property>
  <property name="meta.media.height">740</property>
  <property name="mlt_service">qimage</property>
  <property name="kdenlive:clipname"/>
  <property name="kdenlive:duration">00:00:05.000</property>
  <property name="kdenlive:id">20</property>
  <property name="kdenlive:file_size">237199</property>
  <property name="kdenlive:file_hash">4f9ea0c4af619a5b69e74dd4e272bb96</property>
  <property name="kdenlive:folderid">-1</property>
 </producer>
 <producer title="Anonymous Submission" id="producer18" in="00:00:00.000" out="00:00:01.680">
  <property name="length">43</property>
  <property name="eof">pause</property>
  <property name="resource">C:/Users/SERGEI/Pictures/Photo/2019/Ostin/Pistol_2/VID-20190731-WA0008.mp4</property>
  <property name="audio_index">1</property>
  <property name="video_index">0</property>
  <property name="mute_on_pause">1</property>
  <property name="mlt_service">avformat-novalidate</property>
  <property name="meta.media.nb_streams">2</property>
  <property name="meta.media.0.stream.type">video</property>
  <property name="meta.media.0.stream.frame_rate">6</property>
  <property name="meta.media.0.stream.sample_aspect_ratio">0</property>
  <property name="meta.media.0.codec.width">480</property>
  <property name="meta.media.0.codec.height">640</property>
  <property name="meta.media.0.codec.rotate">0</property>
  <property name="meta.media.0.codec.frame_rate">6</property>
  <property name="meta.media.0.codec.pix_fmt">yuv420p</property>
  <property name="meta.media.0.codec.sample_aspect_ratio">1</property>
  <property name="meta.media.0.codec.colorspace">601</property>
  <property name="meta.media.0.codec.name">h264</property>
  <property name="meta.media.0.codec.long_name">H.264 / AVC / MPEG-4 AVC / MPEG-4 part 10</property>
  <property name="meta.media.0.codec.bit_rate">317596</property>
  <property name="meta.attr.0.stream.creation_time.markup">2019-07-31T09:42:01.000000Z</property>
  <property name="meta.attr.0.stream.handler_name.markup">ISO Media file produced by Google Inc. Created on: 07/31/2019.</property>
  <property name="meta.media.1.stream.type">audio</property>
  <property name="meta.media.1.codec.sample_fmt">fltp</property>
  <property name="meta.media.1.codec.sample_rate">44100</property>
  <property name="meta.media.1.codec.channels">2</property>
  <property name="meta.media.1.codec.name">aac</property>
  <property name="meta.media.1.codec.long_name">AAC (Advanced Audio Coding)</property>
  <property name="meta.media.1.codec.bit_rate">127998</property>
  <property name="meta.attr.1.stream.creation_time.markup">2019-07-31T09:42:01.000000Z</property>
  <property name="meta.attr.1.stream.handler_name.markup">ISO Media file produced by Google Inc. Created on: 07/31/2019.</property>
  <property name="meta.attr.major_brand.markup">mp42</property>
  <property name="meta.attr.minor_version.markup">0</property>
  <property name="meta.attr.compatible_brands.markup">isommp42</property>
  <property name="meta.attr.creation_time.markup">2019-07-31T09:42:01.000000Z</property>
  <property name="meta.attr.encoder.markup">Google</property>
  <property name="seekable">1</property>
  <property name="meta.media.sample_aspect_num">1</property>
  <property name="meta.media.sample_aspect_den">1</property>
  <property name="aspect_ratio">1</property>
  <property name="kdenlive:clipname"/>
  <property name="meta.media.frame_rate_num">6</property>
  <property name="meta.media.frame_rate_den">1</property>
  <property name="meta.media.colorspace">601</property>
  <property name="meta.media.color_trc">2</property>
  <property name="meta.media.width">480</property>
  <property name="meta.media.height">640</property>
  <property name="kdenlive:id">13</property>
  <property name="kdenlive:file_size">95349</property>
  <property name="kdenlive:file_hash">632989f29e2e8900088c62cb961a557e</property>
  <property name="kdenlive:folderid">-1</property>
  <property name="meta.media.top_field_first">0</property>
  <property name="meta.media.progressive">1</property>
  <property name="global_feed">1</property>
 </producer>
 <producer id="producer19" in="00:00:00.000" out="00:00:27.840">
  <property name="length">697</property>
  <property name="eof">pause</property>
  <property name="resource">C:/Users/SERGEI/Pictures/Photo/2019/Ostin/Pistol_2/IMG-20190812-WA0035.jpg</property>
  <property name="ttl">25</property>
  <property name="aspect_ratio">1</property>
  <property name="progressive">1</property>
  <property name="seekable">1</property>
  <property name="meta.media.width">740</property>
  <property name="meta.media.height">740</property>
  <property name="mlt_service">qimage</property>
  <property name="kdenlive:clipname"/>
  <property name="kdenlive:duration">00:00:05.000</property>
  <property name="kdenlive:id">21</property>
  <property name="kdenlive:file_size">221781</property>
  <property name="kdenlive:file_hash">6dc319c2f8a8d1e73ebae530a9ebcfe6</property>
  <property name="kdenlive:folderid">-1</property>
 </producer>
 <producer id="producer20" in="00:00:00.000" out="00:00:09.960">
  <property name="length">250</property>
  <property name="eof">pause</property>
  <property name="resource">C:/Users/SERGEI/Pictures/Photo/2019/Ostin/Pistol_2/IMG-20190808-WA0000.jpg</property>
  <property name="ttl">25</property>
  <property name="aspect_ratio">1</property>
  <property name="progressive">1</property>
  <property name="seekable">1</property>
  <property name="meta.media.width">416</property>
  <property name="meta.media.height">740</property>
  <property name="mlt_service">qimage</property>
  <property name="kdenlive:clipname"/>
  <property name="kdenlive:duration">00:00:05.000</property>
  <property name="kdenlive:id">22</property>
  <property name="kdenlive:file_size">69717</property>
  <property name="kdenlive:file_hash">f94f5190f8fb450f1eec548d4ae03bd9</property>
  <property name="kdenlive:folderid">-1</property>
 </producer>
 <producer id="producer21" in="00:00:00.000" out="00:00:46.120">
  <property name="length">1154</property>
  <property name="eof">pause</property>
  <property name="resource">C:/Users/SERGEI/Pictures/Photo/2019/Ostin/Pistol_2/IMG-20191003-WA0000.jpg</property>
  <property name="ttl">25</property>
  <property name="aspect_ratio">1</property>
  <property name="progressive">1</property>
  <property name="seekable">1</property>
  <property name="meta.media.width">402</property>
  <property name="meta.media.height">740</property>
  <property name="mlt_service">qimage</property>
  <property name="kdenlive:clipname"/>
  <property name="kdenlive:duration">00:00:05.000</property>
  <property name="kdenlive:id">23</property>
  <property name="kdenlive:file_size">120336</property>
  <property name="kdenlive:file_hash">3cc3257ae5060834469e4e93ab0eda59</property>
  <property name="kdenlive:folderid">-1</property>
 </producer>
 <producer id="producer22" in="00:00:00.000" out="00:00:04.960">
  <property name="length">00:00:05.000</property>
  <property name="eof">pause</property>
  <property name="resource">C:/Users/SERGEI/Pictures/Photo/2019/Ostin/Pistol_2/IMG-20191003-WA0001.jpg</property>
  <property name="ttl">25</property>
  <property name="aspect_ratio">1</property>
  <property name="progressive">1</property>
  <property name="seekable">1</property>
  <property name="meta.media.width">359</property>
  <property name="meta.media.height">740</property>
  <property name="mlt_service">qimage</property>
  <property name="kdenlive:clipname"/>
  <property name="kdenlive:duration">00:00:05.000</property>
  <property name="kdenlive:id">24</property>
  <property name="kdenlive:file_size">44922</property>
  <property name="kdenlive:file_hash">6ee2d61d3f1b64406a315029f73bda6a</property>
  <property name="kdenlive:folderid">-1</property>
 </producer>
 <producer id="producer23" in="00:00:00.000" out="00:00:21.840">
  <property name="length">547</property>
  <property name="eof">pause</property>
  <property name="resource">C:/Users/SERGEI/Pictures/Photo/2019/Ostin/Pistol_2/IMG-20191003-WA0009.jpg</property>
  <property name="ttl">25</property>
  <property name="aspect_ratio">1</property>
  <property name="progressive">1</property>
  <property name="seekable">1</property>
  <property name="meta.media.width">359</property>
  <property name="meta.media.height">740</property>
  <property name="mlt_service">qimage</property>
  <property name="kdenlive:clipname"/>
  <property name="kdenlive:duration">00:00:05.000</property>
  <property name="kdenlive:id">25</property>
  <property name="kdenlive:file_size">40258</property>
  <property name="kdenlive:file_hash">c294f6eecf8d77a306e48020e949dead</property>
  <property name="kdenlive:folderid">-1</property>
 </producer>
 <producer id="producer24" in="00:00:00.000" out="00:00:04.960">
  <property name="length">00:00:05.000</property>
  <property name="eof">pause</property>
  <property name="resource">C:/Users/SERGEI/Pictures/Photo/2019/Ostin/Pistol_2/IMG-20191003-WA0018.jpg</property>
  <property name="ttl">25</property>
  <property name="aspect_ratio">1</property>
  <property name="progressive">1</property>
  <property name="seekable">1</property>
  <property name="meta.media.width">555</property>
  <property name="meta.media.height">740</property>
  <property name="mlt_service">qimage</property>
  <property name="kdenlive:clipname"/>
  <property name="kdenlive:duration">00:00:05.000</property>
  <property name="kdenlive:id">26</property>
  <property name="kdenlive:file_size">57631</property>
  <property name="kdenlive:file_hash">49e426ae66bba69bca6fb38090290f65</property>
  <property name="kdenlive:folderid">-1</property>
 </producer>
 <producer id="producer25" in="00:00:00.000" out="00:00:04.960">
  <property name="length">00:00:05.000</property>
  <property name="eof">pause</property>
  <property name="resource">C:/Users/SERGEI/Pictures/Photo/2019/Ostin/Pistol_2/IMG-20191003-WA0019.jpg</property>
  <property name="ttl">25</property>
  <property name="aspect_ratio">1</property>
  <property name="progressive">1</property>
  <property name="seekable">1</property>
  <property name="meta.media.width">555</property>
  <property name="meta.media.height">740</property>
  <property name="mlt_service">qimage</property>
  <property name="kdenlive:clipname"/>
  <property name="kdenlive:duration">00:00:05.000</property>
  <property name="kdenlive:id">27</property>
  <property name="kdenlive:file_size">73663</property>
  <property name="kdenlive:file_hash">d4f4f0cb07ff17aab0265a9127e21afe</property>
  <property name="kdenlive:folderid">-1</property>
 </producer>
 <producer id="producer26" in="00:00:00.000" out="00:00:04.960">
  <property name="length">00:00:05.000</property>
  <property name="eof">pause</property>
  <property name="resource">C:/Users/SERGEI/Pictures/Photo/2019/Ostin/Pistol_2/IMG-20191003-WA0041.jpg</property>
  <property name="ttl">25</property>
  <property name="aspect_ratio">1</property>
  <property name="progressive">1</property>
  <property name="seekable">1</property>
  <property name="meta.media.width">555</property>
  <property name="meta.media.height">740</property>
  <property name="mlt_service">qimage</property>
  <property name="kdenlive:clipname"/>
  <property name="kdenlive:duration">00:00:05.000</property>
  <property name="kdenlive:id">28</property>
  <property name="kdenlive:file_size">44859</property>
  <property name="kdenlive:file_hash">a6afd225d1479f653f234659a78439c8</property>
  <property name="kdenlive:folderid">-1</property>
 </producer>
 <producer id="producer27" in="00:00:00.000" out="00:00:04.960">
  <property name="length">00:00:05.000</property>
  <property name="eof">pause</property>
  <property name="resource">C:/Users/SERGEI/Pictures/Photo/2019/Ostin/Pistol_2/IMG-20191003-WA0052.jpg</property>
  <property name="ttl">25</property>
  <property name="aspect_ratio">1</property>
  <property name="progressive">1</property>
  <property name="seekable">1</property>
  <property name="meta.media.width">555</property>
  <property name="meta.media.height">740</property>
  <property name="mlt_service">qimage</property>
  <property name="kdenlive:clipname"/>
  <property name="kdenlive:duration">00:00:05.000</property>
  <property name="kdenlive:id">29</property>
  <property name="kdenlive:file_size">119765</property>
  <property name="kdenlive:file_hash">e38238540f66868a5b7aed8136a00cf4</property>
  <property name="kdenlive:folderid">-1</property>
 </producer>
 <producer id="producer28" in="00:00:00.000" out="00:00:04.960">
  <property name="length">00:00:05.000</property>
  <property name="eof">pause</property>
  <property name="resource">C:/Users/SERGEI/Pictures/Photo/2019/Ostin/Pistol_2/IMG-20191003-WA0053.jpg</property>
  <property name="ttl">25</property>
  <property name="aspect_ratio">1</property>
  <property name="progressive">1</property>
  <property name="seekable">1</property>
  <property name="meta.media.width">987</property>
  <property name="meta.media.height">740</property>
  <property name="mlt_service">qimage</property>
  <property name="kdenlive:clipname"/>
  <property name="kdenlive:duration">00:00:05.000</property>
  <property name="kdenlive:id">30</property>
  <property name="kdenlive:file_size">110210</property>
  <property name="kdenlive:file_hash">029b09ac1fbf11768e77546cb4549b71</property>
  <property name="kdenlive:folderid">-1</property>
 </producer>
 <producer id="producer29" in="00:00:00.000" out="00:00:05.760">
  <property name="length">145</property>
  <property name="eof">pause</property>
  <property name="resource">C:/Users/SERGEI/Pictures/Photo/2019/Ostin/War_1/chudovishe-2.jpg</property>
  <property name="ttl">25</property>
  <property name="aspect_ratio">1</property>
  <property name="progressive">1</property>
  <property name="seekable">1</property>
  <property name="meta.media.width">500</property>
  <property name="meta.media.height">250</property>
  <property name="mlt_service">qimage</property>
  <property name="kdenlive:clipname"/>
  <property name="kdenlive:duration">00:00:05.000</property>
  <property name="kdenlive:id">32</property>
  <property name="kdenlive:file_size">14835</property>
  <property name="kdenlive:file_hash">af6965cf5376a75c6170c199e96eb63c</property>
  <property name="kdenlive:folderid">-1</property>
 </producer>
 <producer id="producer30" in="00:00:00.000" out="00:00:04.960">
  <property name="length">00:00:05.000</property>
  <property name="eof">pause</property>
  <property name="resource">C:/Users/SERGEI/Pictures/Photo/2019/Ostin/War_1/67e39f13798f13f28565160229a35277.jpg</property>
  <property name="ttl">25</property>
  <property name="aspect_ratio">1</property>
  <property name="progressive">1</property>
  <property name="seekable">1</property>
  <property name="meta.media.width">700</property>
  <property name="meta.media.height">970</property>
  <property name="mlt_service">qimage</property>
  <property name="kdenlive:clipname"/>
  <property name="kdenlive:duration">00:00:05.000</property>
  <property name="kdenlive:id">33</property>
  <property name="kdenlive:file_size">122375</property>
  <property name="kdenlive:file_hash">1defb7ea3b41cbbc3813739b28184bf4</property>
  <property name="kdenlive:folderid">-1</property>
 </producer>
 <producer id="producer31" in="00:00:00.000" out="00:00:04.960">
  <property name="length">00:00:05.000</property>
  <property name="eof">pause</property>
  <property name="resource">C:/Users/SERGEI/Pictures/Photo/2019/Ostin/War_1/4681127.jpg</property>
  <property name="ttl">25</property>
  <property name="aspect_ratio">1</property>
  <property name="progressive">1</property>
  <property name="seekable">1</property>
  <property name="meta.media.width">736</property>
  <property name="meta.media.height">1001</property>
  <property name="mlt_service">qimage</property>
  <property name="kdenlive:clipname"/>
  <property name="kdenlive:duration">00:00:05.000</property>
  <property name="kdenlive:id">35</property>
  <property name="kdenlive:file_size">82269</property>
  <property name="kdenlive:file_hash">82b53efabbebf8c4b74df0f877d9e7c2</property>
  <property name="kdenlive:folderid">-1</property>
 </producer>
 <producer id="producer32" in="00:00:00.000" out="00:00:04.960">
  <property name="length">00:00:05.000</property>
  <property name="eof">pause</property>
  <property name="resource">C:/Users/SERGEI/Pictures/Photo/2019/Ostin/War_1/images (1).jpg</property>
  <property name="ttl">25</property>
  <property name="aspect_ratio">1</property>
  <property name="progressive">1</property>
  <property name="seekable">1</property>
  <property name="meta.media.width">284</property>
  <property name="meta.media.height">177</property>
  <property name="mlt_service">qimage</property>
  <property name="kdenlive:clipname"/>
  <property name="kdenlive:duration">00:00:05.000</property>
  <property name="kdenlive:id">37</property>
  <property name="kdenlive:file_size">7140</property>
  <property name="kdenlive:file_hash">bcc26a8a33e4e0e5b0e9c7781775fccd</property>
  <property name="kdenlive:folderid">-1</property>
 </producer>
 <producer id="producer33" in="00:00:00.000" out="00:00:25.760">
  <property name="length">645</property>
  <property name="eof">pause</property>
  <property name="resource">C:/Users/SERGEI/Pictures/Photo/2019/Ostin/War_1/1483783899170293299.png</property>
  <property name="ttl">25</property>
  <property name="aspect_ratio">1</property>
  <property name="progressive">1</property>
  <property name="seekable">1</property>
  <property name="meta.media.width">1600</property>
  <property name="meta.media.height">770</property>
  <property name="mlt_service">qimage</property>
  <property name="kdenlive:clipname"/>
  <property name="kdenlive:duration">00:00:05.000</property>
  <property name="kdenlive:id">34</property>
  <property name="kdenlive:file_size">2128154</property>
  <property name="kdenlive:file_hash">062852562cc658b7d69b5b185e420e10</property>
  <property name="kdenlive:folderid">-1</property>
 </producer>
 <producer id="producer34" in="00:00:00.000" out="00:00:14.320">
  <property name="length">359</property>
  <property name="eof">pause</property>
  <property name="resource">C:/Users/SERGEI/Pictures/Photo/2019/Ostin/War_1/u3013_3076_88308-1280x1024.jpg</property>
  <property name="ttl">25</property>
  <property name="aspect_ratio">1</property>
  <property name="progressive">1</property>
  <property name="seekable">1</property>
  <property name="meta.media.width">1280</property>
  <property name="meta.media.height">1024</property>
  <property name="mlt_service">qimage</property>
  <property name="kdenlive:clipname"/>
  <property name="kdenlive:duration">00:00:05.000</property>
  <property name="kdenlive:id">36</property>
  <property name="kdenlive:file_size">287000</property>
  <property name="kdenlive:file_hash">4953255c3eebe3a0f4332d98c7cc6f73</property>
  <property name="kdenlive:folderid">-1</property>
 </producer>
 <producer id="producer35" in="00:00:00.000" out="00:00:12.120">
  <property name="length">304</property>
  <property name="eof">pause</property>
  <property name="resource">C:/Users/SERGEI/Pictures/Photo/2019/Ostin/War_1/1487621725_chupa.jpg</property>
  <property name="ttl">25</property>
  <property name="aspect_ratio">1</property>
  <property name="progressive">1</property>
  <property name="seekable">1</property>
  <property name="meta.media.width">1024</property>
  <property name="meta.media.height">575</property>
  <property name="mlt_service">qimage</property>
  <property name="kdenlive:clipname"/>
  <property name="kdenlive:duration">00:00:05.000</property>
  <property name="kdenlive:id">38</property>
  <property name="kdenlive:file_size">69340</property>
  <property name="kdenlive:file_hash">8de21cd33763ff9f8a5d17c2c60fc38f</property>
  <property name="kdenlive:folderid">-1</property>
 </producer>
 <producer id="producer36" in="00:00:00.000" out="00:00:04.960">
  <property name="length">00:00:05.000</property>
  <property name="eof">pause</property>
  <property name="resource">C:/Users/SERGEI/Pictures/Photo/2019/Ostin/War_1/996175.jpg</property>
  <property name="ttl">25</property>
  <property name="aspect_ratio">1</property>
  <property name="progressive">1</property>
  <property name="seekable">1</property>
  <property name="meta.media.width">630</property>
  <property name="meta.media.height">457</property>
  <property name="mlt_service">qimage</property>
  <property name="kdenlive:clipname"/>
  <property name="kdenlive:duration">00:00:05.000</property>
  <property name="kdenlive:id">39</property>
  <property name="kdenlive:file_size">50985</property>
  <property name="kdenlive:file_hash">351b898db3c4b8850a647014a7bb0128</property>
  <property name="kdenlive:folderid">-1</property>
 </producer>
 <producer id="producer37" in="00:00:00.000" out="00:00:04.960">
  <property name="length">00:00:05.000</property>
  <property name="eof">pause</property>
  <property name="resource">C:/Users/SERGEI/Pictures/Photo/2019/Ostin/War_1/images.jpg</property>
  <property name="ttl">25</property>
  <property name="aspect_ratio">1</property>
  <property name="progressive">1</property>
  <property name="seekable">1</property>
  <property name="meta.media.width">280</property>
  <property name="meta.media.height">180</property>
  <property name="mlt_service">qimage</property>
  <property name="kdenlive:clipname"/>
  <property name="kdenlive:duration">00:00:05.000</property>
  <property name="kdenlive:id">40</property>
  <property name="kdenlive:file_size">6332</property>
  <property name="kdenlive:file_hash">96fe4900340577301a7df80fcb670b11</property>
  <property name="kdenlive:folderid">-1</property>
 </producer>
 <producer id="producer38" in="00:00:00.000" out="00:00:04.960">
  <property name="length">00:00:05.000</property>
  <property name="eof">pause</property>
  <property name="resource">C:/Users/SERGEI/Pictures/Photo/2019/Ostin/War_1/54e1aa1f8c1c73b9ed2b76388d094f53.jpg</property>
  <property name="ttl">25</property>
  <property name="aspect_ratio">1</property>
  <property name="progressive">1</property>
  <property name="seekable">1</property>
  <property name="meta.media.width">564</property>
  <property name="meta.media.height">797</property>
  <property name="mlt_service">qimage</property>
  <property name="kdenlive:clipname"/>
  <property name="kdenlive:duration">00:00:05.000</property>
  <property name="kdenlive:id">41</property>
  <property name="kdenlive:file_size">65891</property>
  <property name="kdenlive:file_hash">1bc766ebc96bf36cab204b2c78dba147</property>
  <property name="kdenlive:folderid">-1</property>
 </producer>
 <producer id="producer39" in="00:00:00.000" out="00:00:04.960">
  <property name="length">00:00:05.000</property>
  <property name="eof">pause</property>
  <property name="resource">C:/Users/SERGEI/Pictures/Photo/2019/Ostin/War_1/1510384437185339793.jpg</property>
  <property name="ttl">25</property>
  <property name="aspect_ratio">1</property>
  <property name="progressive">1</property>
  <property name="seekable">1</property>
  <property name="meta.media.width">700</property>
  <property name="meta.media.height">875</property>
  <property name="mlt_service">qimage</property>
  <property name="kdenlive:clipname"/>
  <property name="kdenlive:duration">00:00:05.000</property>
  <property name="kdenlive:id">42</property>
  <property name="kdenlive:file_size">96171</property>
  <property name="kdenlive:file_hash">71f74f74b302db9c46f5a0473d240eb9</property>
  <property name="kdenlive:folderid">-1</property>
 </producer>
 <producer title="Anonymous Submission" id="producer40" in="00:00:00.000" out="00:04:32.640">
  <property name="length">6817</property>
  <property name="eof">pause</property>
  <property name="resource">C:/Users/SERGEI/Pictures/Photo/2019/Ostin/War_1/maxresdefault.jpg</property>
  <property name="ttl">25</property>
  <property name="aspect_ratio">1</property>
  <property name="progressive">1</property>
  <property name="seekable">1</property>
  <property name="meta.media.width">1280</property>
  <property name="meta.media.height">720</property>
  <property name="mlt_service">qimage</property>
  <property name="kdenlive:clipname"/>
  <property name="kdenlive:duration">00:00:05.000</property>
  <property name="kdenlive:id">43</property>
  <property name="kdenlive:file_size">82589</property>
  <property name="kdenlive:file_hash">6378c2548c32baa85807f4a926e9b535</property>
  <property name="kdenlive:folderid">-1</property>
  <property name="global_feed">1</property>
 </producer>
 <producer id="producer41" in="00:00:00.000" out="00:00:04.960">
  <property name="length">00:00:05.000</property>
  <property name="eof">pause</property>
  <property name="resource">C:/Users/SERGEI/Pictures/Photo/2019/Ostin/War_1/Креоны-чудовища-Антарктиды.jpeg</property>
  <property name="ttl">25</property>
  <property name="aspect_ratio">1</property>
  <property name="progressive">1</property>
  <property name="seekable">1</property>
  <property name="meta.media.width">613</property>
  <property name="meta.media.height">613</property>
  <property name="mlt_service">qimage</property>
  <property name="kdenlive:clipname"/>
  <property name="kdenlive:duration">00:00:05.000</property>
  <property name="kdenlive:id">45</property>
  <property name="kdenlive:file_size">55390</property>
  <property name="kdenlive:file_hash">1266d45c913720cedbf82b67f7ab1f28</property>
  <property name="kdenlive:folderid">-1</property>
 </producer>
 <producer id="producer42" in="00:00:00.000" out="00:00:13.960">
  <property name="length">350</property>
  <property name="eof">pause</property>
  <property name="resource">C:/Users/SERGEI/Pictures/Photo/2019/Ostin/War_1/morskie-chudovishha-3511o313dor937cpi9dv62.jpg</property>
  <property name="ttl">25</property>
  <property name="aspect_ratio">1</property>
  <property name="progressive">1</property>
  <property name="seekable">1</property>
  <property name="meta.media.width">790</property>
  <property name="meta.media.height">400</property>
  <property name="mlt_service">qimage</property>
  <property name="kdenlive:clipname"/>
  <property name="kdenlive:duration">00:00:05.000</property>
  <property name="kdenlive:id">46</property>
  <property name="kdenlive:file_size">42112</property>
  <property name="kdenlive:file_hash">297758edfbc9be0141eea70471ff49de</property>
  <property name="kdenlive:folderid">-1</property>
 </producer>
 <producer id="producer43" in="00:00:00.000" out="00:00:21.280">
  <property name="length">533</property>
  <property name="eof">pause</property>
  <property name="resource">C:/Users/SERGEI/Pictures/Photo/2019/Ostin/War_1/maxresdefault (1).jpg</property>
  <property name="ttl">25</property>
  <property name="aspect_ratio">1</property>
  <property name="progressive">1</property>
  <property name="seekable">1</property>
  <property name="meta.media.width">1280</property>
  <property name="meta.media.height">720</property>
  <property name="mlt_service">qimage</property>
  <property name="kdenlive:clipname"/>
  <property name="kdenlive:duration">00:00:05.000</property>
  <property name="kdenlive:id">47</property>
  <property name="kdenlive:file_size">78828</property>
  <property name="kdenlive:file_hash">5f68cb342da32dc5bb70e194e552ee2a</property>
  <property name="kdenlive:folderid">-1</property>
 </producer>
 <producer id="producer44" in="00:00:00.000" out="00:00:04.960">
  <property name="length">00:00:05.000</property>
  <property name="eof">pause</property>
  <property name="resource">C:/Users/SERGEI/Pictures/Photo/2019/Ostin/War_1/images.jpg</property>
  <property name="ttl">25</property>
  <property name="aspect_ratio">1</property>
  <property name="progressive">1</property>
  <property name="seekable">1</property>
  <property name="meta.media.width">280</property>
  <property name="meta.media.height">180</property>
  <property name="mlt_service">qimage</property>
  <property name="kdenlive:clipname"/>
  <property name="kdenlive:duration">00:00:05.000</property>
  <property name="kdenlive:id">48</property>
  <property name="kdenlive:file_size">6332</property>
  <property name="kdenlive:file_hash">96fe4900340577301a7df80fcb670b11</property>
  <property name="kdenlive:folderid">-1</property>
 </producer>
 <producer id="producer45" in="00:00:00.000" out="00:00:04.960">
  <property name="length">00:00:05.000</property>
  <property name="eof">pause</property>
  <property name="resource">C:/Users/SERGEI/Pictures/Photo/2019/Ostin/War_1/Bloodborne™_20150511201130_—_копия_(2).png</property>
  <property name="ttl">25</property>
  <property name="aspect_ratio">1</property>
  <property name="progressive">1</property>
  <property name="seekable">1</property>
  <property name="meta.media.width">933</property>
  <property name="meta.media.height">1080</property>
  <property name="mlt_service">qimage</property>
  <property name="kdenlive:clipname"/>
  <property name="kdenlive:duration">00:00:05.000</property>
  <property name="kdenlive:id">49</property>
  <property name="kdenlive:file_size">1129079</property>
  <property name="kdenlive:file_hash">3b3581e2c42f21d1213e9758cdd6c485</property>
  <property name="kdenlive:folderid">-1</property>
 </producer>
 <producer id="producer46" in="00:00:00.000" out="00:00:04.960">
  <property name="length">00:00:05.000</property>
  <property name="eof">pause</property>
  <property name="resource">C:/Users/SERGEI/Pictures/Photo/2019/Ostin/War_1/IMG-20190106-WA0009.jpg</property>
  <property name="ttl">25</property>
  <property name="aspect_ratio">1</property>
  <property name="progressive">1</property>
  <property name="seekable">1</property>
  <property name="meta.media.width">415</property>
  <property name="meta.media.height">740</property>
  <property name="mlt_service">qimage</property>
  <property name="kdenlive:clipname"/>
  <property name="kdenlive:duration">00:00:05.000</property>
  <property name="kdenlive:id">50</property>
  <property name="kdenlive:file_size">65604</property>
  <property name="kdenlive:file_hash">6beb1d2c02f996b7f17512a43eafe836</property>
  <property name="kdenlive:folderid">-1</property>
 </producer>
 <producer id="producer47" in="00:00:00.000" out="00:00:04.960">
  <property name="length">00:00:05.000</property>
  <property name="eof">pause</property>
  <property name="resource">C:/Users/SERGEI/Pictures/Photo/2019/Ostin/War_1/Rita russia 2007 079.jpg</property>
  <property name="ttl">25</property>
  <property name="aspect_ratio">1</property>
  <property name="progressive">1</property>
  <property name="seekable">1</property>
  <property name="meta.media.width">987</property>
  <property name="meta.media.height">740</property>
  <property name="mlt_service">qimage</property>
  <property name="kdenlive:clipname"/>
  <property name="kdenlive:duration">00:00:05.000</property>
  <property name="kdenlive:id">51</property>
  <property name="kdenlive:file_size">297433</property>
  <property name="kdenlive:file_hash">678731064f3e08c016f2fa43aac1d36a</property>
  <property name="kdenlive:folderid">-1</property>
 </producer>
 <producer title="Anonymous Submission" id="producer48" in="00:00:00.000" out="00:00:01.680">
  <property name="length">43</property>
  <property name="eof">pause</property>
  <property name="resource">C:/Users/SERGEI/Pictures/Photo/2019/Ostin/VID-20190731-WA0008.mp4</property>
  <property name="audio_index">1</property>
  <property name="video_index">0</property>
  <property name="mute_on_pause">1</property>
  <property name="mlt_service">avformat-novalidate</property>
  <property name="meta.media.nb_streams">2</property>
  <property name="meta.media.0.stream.type">video</property>
  <property name="meta.media.0.stream.frame_rate">6</property>
  <property name="meta.media.0.stream.sample_aspect_ratio">0</property>
  <property name="meta.media.0.codec.width">480</property>
  <property name="meta.media.0.codec.height">640</property>
  <property name="meta.media.0.codec.rotate">0</property>
  <property name="meta.media.0.codec.frame_rate">6</property>
  <property name="meta.media.0.codec.pix_fmt">yuv420p</property>
  <property name="meta.media.0.codec.sample_aspect_ratio">1</property>
  <property name="meta.media.0.codec.colorspace">601</property>
  <property name="meta.media.0.codec.name">h264</property>
  <property name="meta.media.0.codec.long_name">H.264 / AVC / MPEG-4 AVC / MPEG-4 part 10</property>
  <property name="meta.media.0.codec.bit_rate">317596</property>
  <property name="meta.attr.0.stream.creation_time.markup">2019-07-31T09:42:01.000000Z</property>
  <property name="meta.attr.0.stream.handler_name.markup">ISO Media file produced by Google Inc. Created on: 07/31/2019.</property>
  <property name="meta.media.1.stream.type">audio</property>
  <property name="meta.media.1.codec.sample_fmt">fltp</property>
  <property name="meta.media.1.codec.sample_rate">44100</property>
  <property name="meta.media.1.codec.channels">2</property>
  <property name="meta.media.1.codec.name">aac</property>
  <property name="meta.media.1.codec.long_name">AAC (Advanced Audio Coding)</property>
  <property name="meta.media.1.codec.bit_rate">127998</property>
  <property name="meta.attr.1.stream.creation_time.markup">2019-07-31T09:42:01.000000Z</property>
  <property name="meta.attr.1.stream.handler_name.markup">ISO Media file produced by Google Inc. Created on: 07/31/2019.</property>
  <property name="meta.attr.major_brand.markup">mp42</property>
  <property name="meta.attr.minor_version.markup">0</property>
  <property name="meta.attr.compatible_brands.markup">isommp42</property>
  <property name="meta.attr.creation_time.markup">2019-07-31T09:42:01.000000Z</property>
  <property name="meta.attr.encoder.markup">Google</property>
  <property name="seekable">1</property>
  <property name="meta.media.sample_aspect_num">1</property>
  <property name="meta.media.sample_aspect_den">1</property>
  <property name="aspect_ratio">1</property>
  <property name="kdenlive:clipname"/>
  <property name="meta.media.frame_rate_num">6</property>
  <property name="meta.media.frame_rate_den">1</property>
  <property name="meta.media.colorspace">601</property>
  <property name="meta.media.color_trc">2</property>
  <property name="meta.media.width">480</property>
  <property name="meta.media.height">640</property>
  <property name="kdenlive:id">52</property>
  <property name="kdenlive:file_size">95349</property>
  <property name="kdenlive:file_hash">632989f29e2e8900088c62cb961a557e</property>
  <property name="kdenlive:folderid">-1</property>
  <property name="meta.media.top_field_first">0</property>
  <property name="meta.media.progressive">1</property>
  <property name="global_feed">1</property>
 </producer>
 <producer id="producer49" in="00:00:00.000" out="00:00:04.960">
  <property name="length">00:00:05.000</property>
  <property name="eof">pause</property>
  <property name="resource">C:/Users/SERGEI/Pictures/Photo/2019/Ostin/IMG-20190807-WA0000.jpg</property>
  <property name="ttl">25</property>
  <property name="aspect_ratio">1</property>
  <property name="progressive">1</property>
  <property name="seekable">1</property>
  <property name="meta.media.width">416</property>
  <property name="meta.media.height">740</property>
  <property name="mlt_service">qimage</property>
  <property name="kdenlive:clipname"/>
  <property name="kdenlive:duration">00:00:05.000</property>
  <property name="kdenlive:id">53</property>
  <property name="kdenlive:file_size">71549</property>
  <property name="kdenlive:file_hash">7bf23788f226f65d45d3e693594d616d</property>
  <property name="kdenlive:folderid">-1</property>
 </producer>
 <producer id="producer50" in="00:00:00.000" out="00:00:04.960">
  <property name="length">00:00:05.000</property>
  <property name="eof">pause</property>
  <property name="resource">C:/Users/SERGEI/Pictures/Photo/2019/Ostin/IMG-20190812-WA0027.jpg</property>
  <property name="ttl">25</property>
  <property name="aspect_ratio">1</property>
  <property name="progressive">1</property>
  <property name="seekable">1</property>
  <property name="meta.media.width">987</property>
  <property name="meta.media.height">740</property>
  <property name="mlt_service">qimage</property>
  <property name="kdenlive:clipname"/>
  <property name="kdenlive:duration">00:00:05.000</property>
  <property name="kdenlive:id">54</property>
  <property name="kdenlive:file_size">136099</property>
  <property name="kdenlive:file_hash">0b0fbaaa3143fa9a551e7499bd091bd4</property>
  <property name="kdenlive:folderid">-1</property>
 </producer>
 <producer id="producer51" in="00:00:00.000" out="00:00:04.960">
  <property name="length">00:00:05.000</property>
  <property name="eof">pause</property>
  <property name="resource">C:/Users/SERGEI/Pictures/Photo/2019/Ostin/IMG-20190812-WA0035.jpg</property>
  <property name="ttl">25</property>
  <property name="aspect_ratio">1</property>
  <property name="progressive">1</property>
  <property name="seekable">1</property>
  <property name="meta.media.width">740</property>
  <property name="meta.media.height">740</property>
  <property name="mlt_service">qimage</property>
  <property name="kdenlive:clipname"/>
  <property name="kdenlive:duration">00:00:05.000</property>
  <property name="kdenlive:id">55</property>
  <property name="kdenlive:file_size">221781</property>
  <property name="kdenlive:file_hash">6dc319c2f8a8d1e73ebae530a9ebcfe6</property>
  <property name="kdenlive:folderid">-1</property>
 </producer>
 <producer id="producer52" in="00:00:00.000" out="00:00:04.960">
  <property name="length">00:00:05.000</property>
  <property name="eof">pause</property>
  <property name="resource">C:/Users/SERGEI/Pictures/Photo/2019/Ostin/IMG-20191003-WA0035.jpg</property>
  <property name="ttl">25</property>
  <property name="aspect_ratio">1</property>
  <property name="progressive">1</property>
  <property name="seekable">1</property>
  <property name="meta.media.width">555</property>
  <property name="meta.media.height">740</property>
  <property name="mlt_service">qimage</property>
  <property name="kdenlive:clipname"/>
  <property name="kdenlive:duration">00:00:05.000</property>
  <property name="kdenlive:id">56</property>
  <property name="kdenlive:file_size">101241</property>
  <property name="kdenlive:file_hash">67362506da5d3b531bcf445369ae9871</property>
  <property name="kdenlive:folderid">-1</property>
 </producer>
 <producer id="producer53" in="00:00:00.000" out="00:00:04.960">
  <property name="length">00:00:05.000</property>
  <property name="eof">pause</property>
  <property name="resource">C:/Users/SERGEI/Pictures/Photo/2019/Ostin/War_1/7wntqkgkfQo.jpg</property>
  <property name="ttl">25</property>
  <property name="aspect_ratio">1</property>
  <property name="progressive">1</property>
  <property name="seekable">1</property>
  <property name="meta.media.width">510</property>
  <property name="meta.media.height">485</property>
  <property name="mlt_service">qimage</property>
  <property name="kdenlive:clipname"/>
  <property name="kdenlive:duration">00:00:05.000</property>
  <property name="kdenlive:id">57</property>
  <property name="kdenlive:file_size">81814</property>
  <property name="kdenlive:file_hash">fb5a4487386374ba60f6fe992d129d32</property>
  <property name="kdenlive:folderid">-1</property>
 </producer>
 <producer id="producer54" in="00:00:00.000" out="00:00:04.960">
  <property name="length">00:00:05.000</property>
  <property name="eof">pause</property>
  <property name="resource">C:/Users/SERGEI/Pictures/Photo/2019/Ostin/War_1/kto-takoj-leviafan.jpg</property>
  <property name="ttl">25</property>
  <property name="aspect_ratio">1</property>
  <property name="progressive">1</property>
  <property name="seekable">1</property>
  <property name="meta.media.width">658</property>
  <property name="meta.media.height">250</property>
  <property name="mlt_service">qimage</property>
  <property name="kdenlive:clipname"/>
  <property name="kdenlive:duration">00:00:05.000</property>
  <property name="kdenlive:id">58</property>
  <property name="kdenlive:file_size">46389</property>
  <property name="kdenlive:file_hash">8692cfeeb77b5b481c6fcb750b603b91</property>
  <property name="kdenlive:folderid">-1</property>
 </producer>
 <producer id="producer55" in="00:00:00.000" out="00:00:04.960">
  <property name="length">00:00:05.000</property>
  <property name="eof">pause</property>
  <property name="resource">C:/Users/SERGEI/Pictures/Photo/2019/Ostin/War_1/Левіафан.jpg</property>
  <property name="ttl">25</property>
  <property name="aspect_ratio">1</property>
  <property name="progressive">1</property>
  <property name="seekable">1</property>
  <property name="meta.media.width">640</property>
  <property name="meta.media.height">660</property>
  <property name="mlt_service">qimage</property>
  <property name="kdenlive:clipname"/>
  <property name="kdenlive:duration">00:00:05.000</property>
  <property name="kdenlive:id">31</property>
  <property name="kdenlive:file_size">61058</property>
  <property name="kdenlive:file_hash">5e1f27f50e6eca19956462ff4cff9d8b</property>
  <property name="kdenlive:folderid">-1</property>
 </producer>
 <producer id="producer56" in="00:00:00.000" out="00:00:04.960">
  <property name="length">00:00:05.000</property>
  <property name="eof">pause</property>
  <property name="resource">C:/Users/SERGEI/Pictures/Photo/2019/Ostin/War_1/лефиафан1.jpg</property>
  <property name="ttl">25</property>
  <property name="aspect_ratio">1</property>
  <property name="progressive">1</property>
  <property name="seekable">1</property>
  <property name="meta.media.width">600</property>
  <property name="meta.media.height">400</property>
  <property name="mlt_service">qimage</property>
  <property name="kdenlive:clipname"/>
  <property name="kdenlive:duration">00:00:05.000</property>
  <property name="kdenlive:id">59</property>
  <property name="kdenlive:file_size">52446</property>
  <property name="kdenlive:file_hash">df04ce524d6734a2cdbee47c5ac3fadc</property>
  <property name="kdenlive:folderid">-1</property>
 </producer>
 <producer id="producer57" in="00:00:00.000" out="00:00:04.960">
  <property name="length">00:00:05.000</property>
  <property name="eof">pause</property>
  <property name="resource">C:/Users/SERGEI/Pictures/Photo/2019/Ostin/War_1/c60516f716f45bfaab1d4e2320256cc0.png</property>
  <property name="ttl">25</property>
  <property name="aspect_ratio">1</property>
  <property name="progressive">1</property>
  <property name="seekable">1</property>
  <property name="meta.media.width">619</property>
  <property name="meta.media.height">800</property>
  <property name="mlt_service">qimage</property>
  <property name="kdenlive:clipname"/>
  <property name="kdenlive:duration">00:00:05.000</property>
  <property name="kdenlive:id">44</property>
  <property name="kdenlive:file_size">728132</property>
  <property name="kdenlive:file_hash">2e2e9d47b28116e750465600e2e728b2</property>
  <property name="kdenlive:folderid">-1</property>
 </producer>
 <producer id="producer58" in="00:00:00.000" out="00:00:04.960">
  <property name="length">00:00:05.000</property>
  <property name="eof">pause</property>
  <property name="resource">C:/Users/SERGEI/Pictures/Photo/2019/Ostin/IMG-20190513-WA0051 (2).jpg</property>
  <property name="ttl">25</property>
  <property name="aspect_ratio">1</property>
  <property name="progressive">1</property>
  <property name="seekable">1</property>
  <property name="meta.media.width">432</property>
  <property name="meta.media.height">456</property>
  <property name="mlt_service">qimage</property>
  <property name="kdenlive:clipname"/>
  <property name="kdenlive:duration">00:00:05.000</property>
  <property name="kdenlive:id">60</property>
  <property name="kdenlive:file_size">57649</property>
  <property name="kdenlive:file_hash">4e7d9fc4d3078289ab63ad13caa4a109</property>
  <property name="kdenlive:folderid">-1</property>
 </producer>
 <producer id="producer59" in="00:00:00.000" out="00:00:04.960">
  <property name="length">00:00:05.000</property>
  <property name="eof">pause</property>
  <property name="resource">C:/Users/SERGEI/Pictures/Photo/2019/Ostin/IMG-20190804-WA0002 (2).jpg</property>
  <property name="ttl">25</property>
  <property name="aspect_ratio">1</property>
  <property name="progressive">1</property>
  <property name="seekable">1</property>
  <property name="meta.media.width">176</property>
  <property name="meta.media.height">483</property>
  <property name="mlt_service">qimage</property>
  <property name="kdenlive:clipname"/>
  <property name="kdenlive:duration">00:00:05.000</property>
  <property name="kdenlive:id">61</property>
  <property name="kdenlive:file_size">46619</property>
  <property name="kdenlive:file_hash">68efa84d15d1f907f9e261509fec8cf2</property>
  <property name="kdenlive:folderid">-1</property>
 </producer>
 <playlist id="main_bin">
  <property name="kdenlive:docproperties.activeTrack">3</property>
  <property name="kdenlive:docproperties.audioTarget">1</property>
  <property name="kdenlive:docproperties.decimalPoint">.</property>
  <property name="kdenlive:docproperties.dirtypreviewchunks">0,25,50,75</property>
  <property name="kdenlive:docproperties.disablepreview">0</property>
  <property name="kdenlive:docproperties.documentid">1572346125696</property>
  <property name="kdenlive:docproperties.enableTimelineZone">1</property>
  <property name="kdenlive:docproperties.enableexternalproxy">0</property>
  <property name="kdenlive:docproperties.enableproxy">0</property>
  <property name="kdenlive:docproperties.externalproxyparams"/>
  <property name="kdenlive:docproperties.generateimageproxy">0</property>
  <property name="kdenlive:docproperties.generateproxy">0</property>
  <property name="kdenlive:docproperties.groups">[
]
</property>
  <property name="kdenlive:docproperties.kdenliveversion">19.04.2</property>
  <property name="kdenlive:docproperties.position">2271</property>
  <property name="kdenlive:docproperties.previewchunks"/>
  <property name="kdenlive:docproperties.previewextension">mov</property>
  <property name="kdenlive:docproperties.previewparameters">r=25 s=1920x1080 vb=36M threads=0 vcodec=dnxhd progressive=1</property>
  <property name="kdenlive:docproperties.profile">C:/Users/SERGEI/AppData/Roaming/kdenlive/profiles/customprofile10</property>
  <property name="kdenlive:docproperties.proxyextension">mkv</property>
  <property name="kdenlive:docproperties.proxyimageminsize">2000</property>
  <property name="kdenlive:docproperties.proxyimagesize">800</property>
  <property name="kdenlive:docproperties.proxyminsize">1000</property>
  <property name="kdenlive:docproperties.proxyparams">-vf yadif,scale=960:-2 -qscale 3 -vcodec mjpeg -acodec pcm_s16le</property>
  <property name="kdenlive:docproperties.scrollPos">824</property>
  <property name="kdenlive:docproperties.seekOffset">30000</property>
  <property name="kdenlive:docproperties.version">0.98</property>
  <property name="kdenlive:docproperties.verticalzoom">1</property>
  <property name="kdenlive:docproperties.videoTarget">2</property>
  <property name="kdenlive:docproperties.zonein">0</property>
  <property name="kdenlive:docproperties.zoneout">75</property>
  <property name="kdenlive:docproperties.zoom">7</property>
  <property name="kdenlive:documentnotes"/>
  <property name="xml_retain">1</property>
  <entry producer="producer0" in="00:00:00.000" out="00:05:16.760"/>
  <entry producer="producer1" in="00:00:00.000" out="00:00:04.960"/>
  <entry producer="producer2" in="00:00:00.000" out="00:04:20.280"/>
  <entry producer="producer3" in="00:00:00.000" out="00:00:34.040"/>
  <entry producer="producer4" in="00:00:00.000" out="00:00:04.960"/>
  <entry producer="producer5" in="00:00:00.000" out="00:00:04.960"/>
  <entry producer="producer6" in="00:00:00.000" out="00:00:04.960"/>
  <entry producer="producer7" in="00:00:00.000" out="00:00:04.960"/>
  <entry producer="producer8" in="00:00:00.000" out="00:00:04.960"/>
  <entry producer="producer9" in="00:00:00.000" out="00:00:04.960"/>
  <entry producer="producer10" in="00:00:00.000" out="00:00:08.720"/>
  <entry producer="producer11" in="00:00:00.000" out="00:00:22.960"/>
  <entry producer="producer12" in="00:00:00.000" out="00:00:10.160"/>
  <entry producer="producer13" in="00:00:00.000" out="00:00:04.960"/>
  <entry producer="producer14" in="00:00:00.000" out="00:00:04.960"/>
  <entry producer="producer15" in="00:00:00.000" out="00:00:04.960"/>
  <entry producer="producer16" in="00:00:00.000" out="00:00:14.160"/>
  <entry producer="producer17" in="00:00:00.000" out="00:00:04.960"/>
  <entry producer="producer18" in="00:00:00.000" out="00:00:01.680"/>
  <entry producer="producer19" in="00:00:00.000" out="00:00:27.840"/>
  <entry producer="producer20" in="00:00:00.000" out="00:00:09.960"/>
  <entry producer="producer21" in="00:00:00.000" out="00:00:46.120"/>
  <entry producer="producer22" in="00:00:00.000" out="00:00:04.960"/>
  <entry producer="producer23" in="00:00:00.000" out="00:00:21.840"/>
  <entry producer="producer24" in="00:00:00.000" out="00:00:04.960"/>
  <entry producer="producer25" in="00:00:00.000" out="00:00:04.960"/>
  <entry producer="producer26" in="00:00:00.000" out="00:00:04.960"/>
  <entry producer="producer27" in="00:00:00.000" out="00:00:04.960"/>
  <entry producer="producer28" in="00:00:00.000" out="00:00:04.960"/>
  <entry producer="producer29" in="00:00:00.000" out="00:00:04.960"/>
  <entry producer="producer30" in="00:00:00.000" out="00:00:04.960"/>
  <entry producer="producer31" in="00:00:00.000" out="00:00:04.960"/>
  <entry producer="producer32" in="00:00:00.000" out="00:00:04.960"/>
  <entry producer="producer33" in="00:00:00.000" out="00:00:25.760"/>
  <entry producer="producer34" in="00:00:00.000" out="00:00:14.320"/>
  <entry producer="producer35" in="00:00:00.000" out="00:00:12.120"/>
  <entry producer="producer36" in="00:00:00.000" out="00:00:04.960"/>
  <entry producer="producer37" in="00:00:00.000" out="00:00:04.960"/>
  <entry producer="producer38" in="00:00:00.000" out="00:00:04.960"/>
  <entry producer="producer39" in="00:00:00.000" out="00:00:04.960"/>
  <entry producer="producer40" in="00:00:00.000" out="00:04:32.640"/>
  <entry producer="producer41" in="00:00:00.000" out="00:00:04.960"/>
  <entry producer="producer42" in="00:00:00.000" out="00:00:13.960"/>
  <entry producer="producer43" in="00:00:00.000" out="00:00:21.280"/>
  <entry producer="producer44" in="00:00:00.000" out="00:00:04.960"/>
  <entry producer="producer45" in="00:00:00.000" out="00:00:04.960"/>
  <entry producer="producer46" in="00:00:00.000" out="00:00:04.960"/>
  <entry producer="producer47" in="00:00:00.000" out="00:00:04.960"/>
  <entry producer="producer48" in="00:00:00.000" out="00:00:01.680"/>
  <entry producer="producer49" in="00:00:00.000" out="00:00:04.960"/>
  <entry producer="producer50" in="00:00:00.000" out="00:00:04.960"/>
  <entry producer="producer51" in="00:00:00.000" out="00:00:04.960"/>
  <entry producer="producer52" in="00:00:00.000" out="00:00:04.960"/>
  <entry producer="producer53" in="00:00:00.000" out="00:00:04.960"/>
  <entry producer="producer54" in="00:00:00.000" out="00:00:04.960"/>
  <entry producer="producer55" in="00:00:00.000" out="00:00:04.960"/>
  <entry producer="producer56" in="00:00:00.000" out="00:00:04.960"/>
  <entry producer="producer57" in="00:00:00.000" out="00:00:04.960"/>
  <entry producer="producer58" in="00:00:00.000" out="00:00:04.960"/>
  <entry producer="producer59" in="00:00:00.000" out="00:00:04.960"/>
 </playlist>
 <producer id="black_track" in="00:00:00.000" out="00:21:24.520">
  <property name="length">2147483647</property>
  <property name="eof">continue</property>
  <property name="resource">black</property>
  <property name="aspect_ratio">1</property>
  <property name="mlt_service">color</property>
  <property name="set.test_audio">0</property>
 </producer>
 <playlist id="playlist0"/>
 <playlist id="playlist1"/>
 <tractor id="tractor0" in="00:00:00.000">
  <property name="kdenlive:trackheight">56</property>
  <property name="kdenlive:collapsed">0</property>
  <property name="kdenlive:thumbs_format"/>
  <property name="kdenlive:audio_rec"/>
  <track hide="both" producer="playlist0"/>
  <track hide="both" producer="playlist1"/>
 </tractor>
 <producer title="Anonymous Submission" id="producer60" in="00:00:00.000" out="00:05:16.760">
  <property name="length">7920</property>
  <property name="eof">pause</property>
  <property name="resource">C:/Users/SERGEI/Music/Victory.mp3</property>
  <property name="meta.media.nb_streams">1</property>
  <property name="meta.media.0.stream.type">audio</property>
  <property name="meta.media.0.codec.sample_fmt">fltp</property>
  <property name="meta.media.0.codec.sample_rate">44100</property>
  <property name="meta.media.0.codec.channels">2</property>
  <property name="meta.media.0.codec.name">mp3float</property>
  <property name="meta.media.0.codec.long_name">MP3 (MPEG audio layer 3)</property>
  <property name="meta.media.0.codec.bit_rate">187638</property>
  <property name="meta.attr.0.stream.encoder.markup">LAME3.99r</property>
  <property name="seekable">1</property>
  <property name="audio_index">0</property>
  <property name="video_index">-1</property>
  <property name="mute_on_pause">1</property>
  <property name="mlt_service">avformat-novalidate</property>
  <property name="kdenlive:clipname"/>
  <property name="kdenlive:id">2</property>
  <property name="kdenlive:file_size">7430755</property>
  <property name="kdenlive:file_hash">29891eb95957c1cf1f121724d358d192</property>
  <property name="kdenlive:folderid">-1</property>
  <property name="global_feed">1</property>
  <property name="xml">was here</property>
  <property name="set.test_audio">0</property>
  <property name="set.test_image">1</property>
 </producer>
 <playlist id="playlist2">
  <property name="kdenlive:audio_track">1</property>
  <entry producer="producer60" in="00:00:31.880" out="00:01:09.000">
   <property name="kdenlive:id">2</property>
   <filter id="filter5">
    <property name="window">75</property>
    <property name="max_gain">20dB</property>
    <property name="level">00:00:31.880=-8</property>
    <property name="mlt_service">volume</property>
    <property name="kdenlive_id">volume</property>
    <property name="kdenlive:collapsed">0</property>
   </filter>
  </entry>
  <entry producer="producer60" in="00:01:09.040" out="00:01:44.920">
   <property name="kdenlive:id">2</property>
   <filter id="filter6">
    <property name="window">75</property>
    <property name="max_gain">20dB</property>
    <property name="level">00:01:09.040=-8</property>
    <property name="mlt_service">volume</property>
    <property name="kdenlive_id">volume</property>
    <property name="kdenlive:collapsed">0</property>
   </filter>
  </entry>
  <entry producer="producer60" in="00:04:43.120" out="00:04:54.520">
   <property name="kdenlive:id">2</property>
   <filter id="filter7">
    <property name="window">75</property>
    <property name="max_gain">20dB</property>
    <property name="level">00:04:43.120=-8</property>
    <property name="mlt_service">volume</property>
    <property name="kdenlive_id">volume</property>
    <property name="kdenlive:collapsed">0</property>
   </filter>
  </entry>
 </playlist>
 <playlist id="playlist3">
  <property name="kdenlive:audio_track">1</property>
 </playlist>
 <tractor id="tractor1" in="00:00:00.000" out="00:01:24.480">
  <property name="kdenlive:audio_track">1</property>
  <property name="kdenlive:trackheight">56</property>
  <property name="kdenlive:collapsed">0</property>
  <property name="kdenlive:thumbs_format"/>
  <property name="kdenlive:audio_rec"/>
  <track hide="video" producer="playlist2"/>
  <track hide="video" producer="playlist3"/>
 </tractor>
 <playlist id="playlist4">
  <entry producer="producer20" in="00:00:00.000" out="00:00:06.960">
   <property name="kdenlive:id">22</property>
   <filter id="filter8">
    <property name="rotate_center">1</property>
    <property name="mlt_service">qtblend</property>
    <property name="kdenlive_id">qtblend</property>
    <property name="rect">00:00:00.000=-948 -114 2797 1573 1;00:00:06.960|=-1757 -357 4800 2700 1</property>
    <property name="rotation">00:00:00.000=-4.61446;00:00:06.960|=-13</property>
    <property name="compositing">0</property>
    <property name="distort">0</property>
    <property name="kdenlive:collapsed">0</property>
   </filter>
   <filter id="filter9">
    <property name="version">0.2</property>
    <property name="mlt_service">frei0r.contrast0r</property>
    <property name="kdenlive_id">frei0r.contrast0r</property>
    <property name="Contrast">00:00:00.000=0.5;00:00:06.960|=0.5</property>
    <property name="kdenlive:collapsed">0</property>
   </filter>
   <filter id="filter10">
    <property name="gamma">00:00:00.000=1;00:00:06.960|=1</property>
    <property name="mlt_service">gamma</property>
    <property name="kdenlive_id">gamma</property>
    <property name="kdenlive:collapsed">0</property>
   </filter>
  </entry>
  <entry producer="producer2" in="00:00:00.000" out="00:00:05.080">
   <property name="kdenlive:id">4</property>
   <filter id="filter11">
    <property name="rotate_center">1</property>
    <property name="mlt_service">qtblend</property>
    <property name="kdenlive_id">qtblend</property>
    <property name="rect">00:00:00.000=0 0 867 488 1;00:00:05.080|=-1120 -310 3360 1890 1</property>
    <property name="rotation">00:00:00.000=0;00:00:05.080|=15</property>
    <property name="compositing">0</property>
    <property name="distort">0</property>
    <property name="kdenlive:collapsed">0</property>
   </filter>
  </entry>
  <entry producer="producer10" in="00:00:00.000" out="00:00:05.000">
   <property name="kdenlive:id">12</property>
   <property name="kdenlive:activeeffect">0</property>
   <filter id="filter1">
    <property name="rotate_center">1</property>
    <property name="mlt_service">qtblend</property>
    <property name="kdenlive_id">qtblend</property>
    <property name="rect">00:00:00.000=288 162 1344 756 1;00:00:05.000|=-780 -220 4800 2700 1</property>
    <property name="rotation">00:00:00.000=15;00:00:05.000|=-19</property>
    <property name="compositing">0</property>
    <property name="distort">0</property>
    <property name="kdenlive:collapsed">0</property>
   </filter>
  </entry>
  <entry producer="producer21" in="00:00:00.000" out="00:00:05.800">
   <property name="kdenlive:id">23</property>
   <property name="kdenlive:activeeffect">0</property>
   <filter id="filter2">
    <property name="rotate_center">1</property>
    <property name="mlt_service">qtblend</property>
    <property name="kdenlive_id">qtblend</property>
    <property name="rect">00:00:00.000=-180 40 960 540 1;00:00:05.800|=-2828 -742 8256 4644 1</property>
    <property name="rotation">00:00:00.000=1;00:00:05.800|=-16</property>
    <property name="compositing">0</property>
    <property name="distort">0</property>
    <property name="kdenlive:collapsed">0</property>
   </filter>
   <filter id="filter3">
    <property name="version">0.2</property>
    <property name="mlt_service">frei0r.contrast0r</property>
    <property name="kdenlive_id">frei0r.contrast0r</property>
    <property name="Contrast">00:00:00.000=0.834</property>
    <property name="kdenlive:collapsed">1</property>
   </filter>
   <filter id="filter4">
    <property name="gamma">00:00:00.000=1</property>
    <property name="mlt_service">gamma</property>
    <property name="kdenlive_id">gamma</property>
    <property name="kdenlive:collapsed">1</property>
   </filter>
  </entry>
  <entry producer="producer12" in="00:00:00.000" out="00:00:05.480">
   <property name="kdenlive:id">15</property>
   <property name="kdenlive:activeeffect">0</property>
   <filter id="filter0">
    <property name="rotate_center">1</property>
    <property name="mlt_service">qtblend</property>
    <property name="kdenlive_id">qtblend</property>
    <property name="rect">00:00:00.000=-220 -30 979 550 1;00:00:05.480|=-1487 -284 3848 2164 1</property>
    <property name="rotation">00:00:00.000=-26;00:00:05.480|=14</property>
    <property name="compositing">0</property>
    <property name="distort">0</property>
    <property name="kdenlive:collapsed">0</property>
   </filter>
  </entry>
  <entry producer="producer16" in="00:00:00.000" out="00:00:05.960">
   <property name="kdenlive:id">19</property>
   <property name="kdenlive:activeeffect">0</property>
   <filter id="filter12">
    <property name="rotate_center">1</property>
    <property name="mlt_service">qtblend</property>
    <property name="kdenlive_id">qtblend</property>
    <property name="rect">00:00:00.000=1150 490 1056 594 1;00:00:05.960|=222 -162 2405 1353 1</property>
    <property name="rotation">00:00:00.000=0;00:00:05.960|=20</property>
    <property name="compositing">0</property>
    <property name="distort">0</property>
    <property name="kdenlive:collapsed">0</property>
   </filter>
  </entry>
  <entry producer="producer52" in="00:00:00.000" out="00:00:04.960">
   <property name="kdenlive:id">56</property>
  </entry>
  <entry producer="producer51" in="00:00:00.000" out="00:00:04.960">
   <property name="kdenlive:id">55</property>
  </entry>
  <entry producer="producer50" in="00:00:00.000" out="00:00:04.960">
   <property name="kdenlive:id">54</property>
  </entry>
  <entry producer="producer23" in="00:00:00.000" out="00:00:05.760">
   <property name="kdenlive:id">25</property>
  </entry>
  <entry producer="producer28" in="00:00:00.000" out="00:00:04.960">
   <property name="kdenlive:id">30</property>
  </entry>
  <entry producer="producer27" in="00:00:00.000" out="00:00:04.960">
   <property name="kdenlive:id">29</property>
  </entry>
  <entry producer="producer58" in="00:00:00.000" out="00:00:04.960">
   <property name="kdenlive:id">60</property>
  </entry>
  <entry producer="producer59" in="00:00:00.000" out="00:00:04.960">
   <property name="kdenlive:id">61</property>
  </entry>
  <entry producer="producer13" in="00:00:00.000" out="00:00:05.200">
   <property name="kdenlive:id">16</property>
  </entry>
  <entry producer="producer3" in="00:00:00.000" out="00:00:03.920">
   <property name="kdenlive:id">5</property>
  </entry>
 </playlist>
 <playlist id="playlist5"/>
 <tractor id="tractor2" in="00:00:00.000" out="00:01:24.480">
  <property name="kdenlive:trackheight">56</property>
  <property name="kdenlive:collapsed">0</property>
  <property name="kdenlive:thumbs_format"/>
  <property name="kdenlive:audio_rec"/>
  <track hide="audio" producer="playlist4"/>
  <track hide="audio" producer="playlist5"/>
 </tractor>
 <playlist id="playlist6">
  <blank length="00:00:01.640"/>
  <entry producer="producer40" in="00:00:00.000" out="00:00:05.320">
   <property name="kdenlive:id">43</property>
   <filter id="filter13">
    <property name="rotate_center">1</property>
    <property name="mlt_service">qtblend</property>
    <property name="kdenlive_id">qtblend</property>
    <property name="rect">00:00:00.000=1536 150 196 110 1;00:00:05.320|=756 150 1536 864 1</property>
    <property name="rotation">00:00:00.000=40;00:00:05.320|=63</property>
    <property name="compositing">0</property>
    <property name="distort">0</property>
    <property name="kdenlive:collapsed">0</property>
   </filter>
  </entry>
  <entry producer="producer40" in="00:00:00.000" out="00:00:05.080">
   <property name="kdenlive:id">43</property>
   <filter id="filter14">
    <property name="rotate_center">1</property>
    <property name="mlt_service">qtblend</property>
    <property name="kdenlive_id">qtblend</property>
    <property name="rect">00:00:00.000=332 -40 1636 920 1;00:00:05.080=1406 844 393 221 1</property>
    <property name="rotation">00:00:00.000=-46;00:00:05.080=-37</property>
    <property name="compositing">0</property>
    <property name="distort">0</property>
    <property name="kdenlive:collapsed">0</property>
   </filter>
   <filter id="filter15">
    <property name="version">0.2</property>
    <property name="mlt_service">frei0r.contrast0r</property>
    <property name="kdenlive_id">frei0r.contrast0r</property>
    <property name="Contrast">00:00:00.000=0.5</property>
    <property name="kdenlive:collapsed">0</property>
   </filter>
   <filter id="filter16">
    <property name="gamma">00:00:00.000=1</property>
    <property name="mlt_service">gamma</property>
    <property name="kdenlive_id">gamma</property>
    <property name="kdenlive:collapsed">0</property>
   </filter>
  </entry>
  <entry producer="producer40" in="00:00:00.000" out="00:00:05.000">
   <property name="kdenlive:id">43</property>
   <property name="kdenlive:activeeffect">0</property>
   <filter id="filter17">
    <property name="rotate_center">1</property>
    <property name="mlt_service">qtblend</property>
    <property name="kdenlive_id">qtblend</property>
    <property name="rect">00:00:00.000=210 770 1920 1080 1;00:00:05.000|=1530 840 576 324 1</property>
    <property name="rotation">00:00:00.000=3;00:00:05.000|=-35</property>
    <property name="compositing">0</property>
    <property name="distort">0</property>
    <property name="kdenlive:collapsed">0</property>
   </filter>
  </entry>
  <entry producer="producer33" in="00:00:00.000" out="00:00:05.800">
   <property name="kdenlive:id">34</property>
   <filter id="filter18">
    <property name="rotate_center">1</property>
    <property name="mlt_service">qtblend</property>
    <property name="kdenlive_id">qtblend</property>
    <property name="rect">00:00:00.000=514 -109 2691 1514 1;00:00:05.800|=914 611 1248 702 1</property>
    <property name="rotation">00:00:00.000=0;00:00:05.800|=-35</property>
    <property name="compositing">0</property>
    <property name="distort">0</property>
    <property name="kdenlive:collapsed">0</property>
   </filter>
  </entry>
  <entry producer="producer43" in="00:00:00.000" out="00:00:05.480">
   <property name="kdenlive:id">47</property>
   <filter id="filter19">
    <property name="rotate_center">1</property>
    <property name="mlt_service">qtblend</property>
    <property name="kdenlive_id">qtblend</property>
    <property name="rect">00:00:00.000=770 200 1728 972 1;00:00:05.480|=990 240 1263 710 1</property>
    <property name="rotation">00:00:00.000=41;00:00:05.480|=104</property>
    <property name="compositing">12</property>
    <property name="distort">0</property>
    <property name="kdenlive:collapsed">0</property>
   </filter>
  </entry>
  <entry producer="producer42" in="00:00:00.000" out="00:00:05.960">
   <property name="kdenlive:id">46</property>
   <property name="kdenlive:activeeffect">0</property>
   <filter id="filter20">
    <property name="rotate_center">1</property>
    <property name="mlt_service">qtblend</property>
    <property name="kdenlive_id">qtblend</property>
    <property name="rect">00:00:00.000=-782 68 2017 1134 1;00:00:05.960|=-202 158 1344 756 1</property>
    <property name="rotation">00:00:00.000=-31;00:00:05.960|=-70</property>
    <property name="compositing">17</property>
    <property name="distort">0</property>
    <property name="kdenlive:collapsed">0</property>
   </filter>
  </entry>
  <entry producer="producer34" in="00:00:00.000" out="00:00:04.960">
   <property name="kdenlive:id">36</property>
  </entry>
  <entry producer="producer45" in="00:00:00.000" out="00:00:04.960">
   <property name="kdenlive:id">49</property>
  </entry>
  <entry producer="producer41" in="00:00:00.000" out="00:00:04.960">
   <property name="kdenlive:id">45</property>
  </entry>
  <entry producer="producer29" in="00:00:00.000" out="00:00:05.760">
   <property name="kdenlive:id">32</property>
  </entry>
  <entry producer="producer30" in="00:00:00.000" out="00:00:04.960">
   <property name="kdenlive:id">33</property>
  </entry>
  <entry producer="producer56" in="00:00:00.000" out="00:00:04.960">
   <property name="kdenlive:id">59</property>
  </entry>
  <entry producer="producer54" in="00:00:00.000" out="00:00:04.960">
   <property name="kdenlive:id">58</property>
  </entry>
  <entry producer="producer55" in="00:00:00.000" out="00:00:04.960">
   <property name="kdenlive:id">31</property>
  </entry>
 </playlist>
 <playlist id="playlist7"/>
 <tractor id="tractor3" in="00:00:00.000" out="00:01:15.280">
  <property name="kdenlive:trackheight">56</property>
  <property name="kdenlive:collapsed">0</property>
  <property name="kdenlive:thumbs_format"/>
  <property name="kdenlive:audio_rec"/>
  <track hide="audio" producer="playlist6"/>
  <track hide="audio" producer="playlist7"/>
 </tractor>
 <tractor title="Anonymous Submission" id="tractor4" global_feed="1" in="00:00:00.000" out="00:21:24.520">
  <track producer="black_track"/>
  <track producer="tractor0"/>
  <track producer="tractor1"/>
  <track producer="tractor2"/>
  <track producer="tractor3"/>
  <transition id="transition0">
   <property name="a_track">0</property>
   <property name="b_track">1</property>
   <property name="compositing">0</property>
   <property name="distort">0</property>
   <property name="rotate_center">0</property>
   <property name="mlt_service">qtblend</property>
   <property name="kdenlive_id">qtblend</property>
   <property name="internal_added">237</property>
   <property name="always_active">1</property>
  </transition>
  <transition id="transition1">
   <property name="a_track">0</property>
   <property name="b_track">2</property>
   <property name="mlt_service">mix</property>
   <property name="kdenlive_id">mix</property>
   <property name="internal_added">237</property>
   <property name="always_active">1</property>
   <property name="sum">1</property>
  </transition>
  <transition id="transition2">
   <property name="a_track">0</property>
   <property name="b_track">3</property>
   <property name="compositing">0</property>
   <property name="distort">0</property>
   <property name="rotate_center">0</property>
   <property name="mlt_service">qtblend</property>
   <property name="kdenlive_id">qtblend</property>
   <property name="internal_added">237</property>
   <property name="always_active">1</property>
  </transition>
  <transition id="transition3">
   <property name="a_track">0</property>
   <property name="b_track">4</property>
   <property name="compositing">0</property>
   <property name="distort">0</property>
   <property name="rotate_center">0</property>
   <property name="mlt_service">qtblend</property>
   <property name="kdenlive_id">qtblend</property>
   <property name="internal_added">237</property>
   <property name="always_active">1</property>
  </transition>
 </tractor>
</mlt>
