<?xml version='1.0' encoding='utf-8'?>
<mlt title="Anonymous Submission" LC_NUMERIC="en_US" producer="main_bin" version="6.17.0" root="C:/Users/SERGEI/Pictures/Photo/2019/Elika_Mia/proj">
 <profile frame_rate_num="25" sample_aspect_num="1" display_aspect_den="9" colorspace="709" progressive="1" description="HD 1080p 25 fps" display_aspect_num="16" frame_rate_den="1" width="1920" height="1080" sample_aspect_den="1"/>
 <producer title="Anonymous Submission" id="producer0" in="00:00:00.000" out="00:03:29.480">
  <property name="length">5238</property>
  <property name="eof">pause</property>
  <property name="resource">C:/Users/SERGEI/Music/Fredi_Mercury/freddi_merkjuri_-_dont_stop_me_now_(zf.fm).mp3</property>
  <property name="meta.media.nb_streams">1</property>
  <property name="meta.media.0.stream.type">audio</property>
  <property name="meta.media.0.codec.sample_fmt">fltp</property>
  <property name="meta.media.0.codec.sample_rate">44100</property>
  <property name="meta.media.0.codec.channels">2</property>
  <property name="meta.media.0.codec.name">mp3float</property>
  <property name="meta.media.0.codec.long_name">MP3 (MPEG audio layer 3)</property>
  <property name="meta.media.0.codec.bit_rate">239513</property>
  <property name="meta.attr.0.stream.encoder.markup">LAME3.92 </property>
  <property name="meta.attr.title.markup">Don't stop me now</property>
  <property name="meta.attr.artist.markup">Фредди Меркьюри</property>
  <property name="seekable">1</property>
  <property name="audio_index">0</property>
  <property name="video_index">-1</property>
  <property name="mute_on_pause">1</property>
  <property name="mlt_service">avformat</property>
  <property name="kdenlive:clipname"/>
  <property name="kdenlive:id">2</property>
  <property name="kdenlive:file_size">6273024</property>
  <property name="kdenlive:file_hash">038ef90b483ad2f8a87616ae0616f37e</property>
  <property name="kdenlive:folderid">-1</property>
  <property name="global_feed">1</property>
 </producer>
 <producer id="producer1" in="00:00:00.000" out="00:00:25.160">
  <property name="length">630</property>
  <property name="eof">pause</property>
  <property name="resource">C:/Users/SERGEI/Pictures/Photo/2019/Elika_Mia/1607_ZK_04000.JPG</property>
  <property name="ttl">25</property>
  <property name="aspect_ratio">1</property>
  <property name="progressive">1</property>
  <property name="seekable">1</property>
  <property name="meta.media.width">491</property>
  <property name="meta.media.height">737</property>
  <property name="mlt_service">qimage</property>
  <property name="kdenlive:clipname"/>
  <property name="kdenlive:duration">00:00:05.000</property>
  <property name="kdenlive:id">3</property>
  <property name="kdenlive:file_size">93413</property>
  <property name="kdenlive:file_hash">9dc3249594aa00080475c6d7db604d13</property>
  <property name="kdenlive:folderid">-1</property>
 </producer>
 <producer id="producer2" in="00:00:00.000" out="00:00:19.960">
  <property name="length">00:00:25.240</property>
  <property name="eof">pause</property>
  <property name="resource"/>
  <property name="progressive">1</property>
  <property name="aspect_ratio">1</property>
  <property name="seekable">1</property>
  <property name="mlt_service">kdenlivetitle</property>
  <property name="kdenlive:clipname">מזל טוב, אלי...</property>
  <property name="xmldata">&lt;kdenlivetitle duration="500" LC_NUMERIC="English_United States.1252" width="1920" height="1080" out="499">&#xd;
 &lt;item type="QGraphicsTextItem" z-index="0">&#xd;
  &lt;position x="84" y="919">&#xd;
   &lt;transform>1,0,0,0,1,0,0,0,1&lt;/transform>&#xd;
  &lt;/position>&#xd;
  &lt;content line-spacing="0" shadow="0;#64000000;3;3;3" font-underline="0" box-height="302" font-outline-color="0,0,0,255" font="Arial Black" letter-spacing="0" font-pixel-size="214" font-italic="0" alignment="4" font-weight="75" font-outline="2.7" box-width="1751" font-color="255,0,127,255">מזל טוב, אליקה!&lt;/content>&#xd;
 &lt;/item>&#xd;
 &lt;startviewport rect="-2.17381,-124.526,1906,1072.13"/>&#xd;
 &lt;endviewport rect="2.38146,985.358,1920,1080"/>&#xd;
 &lt;background color="0,170,255,133"/>&#xd;
&lt;/kdenlivetitle>&#xd;
</property>
  <property name="kdenlive:duration">00:00:20.000</property>
  <property name="kdenlive:id">9</property>
  <property name="kdenlive:file_hash">fed899e0c121d3ffd125ae7478bd31e9</property>
  <property name="kdenlive:folderid">-1</property>
  <property name="force_reload">0</property>
  <property name="global_feed">1</property>
  <property name="meta.media.width">1920</property>
  <property name="meta.media.height">1080</property>
 </producer>
 <producer id="producer3" in="00:00:00.000" out="00:00:13.280">
  <property name="length">333</property>
  <property name="eof">pause</property>
  <property name="resource">C:/Users/SERGEI/Pictures/Photo/2019/Elika_Mia/IMG-20190629-WA0015.jpg</property>
  <property name="ttl">25</property>
  <property name="aspect_ratio">1</property>
  <property name="progressive">1</property>
  <property name="seekable">1</property>
  <property name="meta.media.width">923</property>
  <property name="meta.media.height">692</property>
  <property name="mlt_service">qimage</property>
  <property name="kdenlive:clipname"/>
  <property name="kdenlive:duration">00:00:05.000</property>
  <property name="kdenlive:id">11</property>
  <property name="kdenlive:file_size">112999</property>
  <property name="kdenlive:file_hash">58a095c1dbd7660efe087b896b284ab5</property>
  <property name="kdenlive:folderid">-1</property>
 </producer>
 <producer id="producer4" in="00:00:00.000" out="00:03:36.640">
  <property name="length">5417</property>
  <property name="eof">pause</property>
  <property name="resource">C:/Users/SERGEI/Pictures/Photo/2019/SF_1/img/Alfred_Sisley_220.jpg</property>
  <property name="ttl">25</property>
  <property name="aspect_ratio">1</property>
  <property name="progressive">1</property>
  <property name="seekable">1</property>
  <property name="meta.media.width">2536</property>
  <property name="meta.media.height">1904</property>
  <property name="mlt_service">qimage</property>
  <property name="kdenlive:clipname"/>
  <property name="kdenlive:duration">00:00:05.000</property>
  <property name="kdenlive:id">12</property>
  <property name="kdenlive:file_size">729648</property>
  <property name="kdenlive:file_hash">f8643ee79df33171e9bdb2d9a743442b</property>
  <property name="kdenlive:folderid">-1</property>
 </producer>
 <producer id="producer5" in="00:00:00.000" out="00:00:15.000">
  <property name="length">376</property>
  <property name="eof">pause</property>
  <property name="resource">C:/Users/SERGEI/Pictures/Photo/2019/Elika_Mia/IMG-20190629-WA0008.jpg</property>
  <property name="ttl">25</property>
  <property name="aspect_ratio">1</property>
  <property name="progressive">1</property>
  <property name="seekable">1</property>
  <property name="meta.media.width">519</property>
  <property name="meta.media.height">692</property>
  <property name="mlt_service">qimage</property>
  <property name="kdenlive:clipname"/>
  <property name="kdenlive:duration">00:00:05.000</property>
  <property name="kdenlive:id">13</property>
  <property name="kdenlive:file_size">85780</property>
  <property name="kdenlive:file_hash">5d2f6cea618ae0b0c97c7fe8006b1139</property>
  <property name="kdenlive:folderid">-1</property>
 </producer>
 <producer id="producer6" in="00:00:00.000" out="00:00:08.960">
  <property name="length">225</property>
  <property name="eof">pause</property>
  <property name="resource">C:/Users/SERGEI/Pictures/Photo/2019/Elika_Mia/IMG-20190627-WA0003.jpg</property>
  <property name="ttl">25</property>
  <property name="aspect_ratio">1</property>
  <property name="progressive">1</property>
  <property name="seekable">1</property>
  <property name="meta.media.width">519</property>
  <property name="meta.media.height">692</property>
  <property name="mlt_service">qimage</property>
  <property name="kdenlive:clipname"/>
  <property name="kdenlive:duration">00:00:05.000</property>
  <property name="kdenlive:id">14</property>
  <property name="kdenlive:file_size">66426</property>
  <property name="kdenlive:file_hash">6127a0e9036c109b4d37719c74b268f5</property>
  <property name="kdenlive:folderid">-1</property>
 </producer>
 <producer id="producer7" in="00:00:00.000" out="00:00:08.960">
  <property name="length">225</property>
  <property name="eof">pause</property>
  <property name="resource">C:/Users/SERGEI/Pictures/Photo/2019/Elika_Mia/IMG-20181219-WA0000.jpg</property>
  <property name="ttl">25</property>
  <property name="aspect_ratio">1</property>
  <property name="progressive">1</property>
  <property name="seekable">1</property>
  <property name="meta.media.width">519</property>
  <property name="meta.media.height">692</property>
  <property name="mlt_service">qimage</property>
  <property name="kdenlive:clipname"/>
  <property name="kdenlive:duration">00:00:05.000</property>
  <property name="kdenlive:id">15</property>
  <property name="kdenlive:file_size">108998</property>
  <property name="kdenlive:file_hash">4dbd33f4f562a76389a9f1b13e0e56ea</property>
  <property name="kdenlive:folderid">-1</property>
 </producer>
 <producer id="producer8" in="00:00:00.000" out="00:00:11.960">
  <property name="length">300</property>
  <property name="eof">pause</property>
  <property name="resource">C:/Users/SERGEI/Pictures/Photo/2019/Elika_Mia/IMG-20190322-WA0002.jpg</property>
  <property name="ttl">25</property>
  <property name="aspect_ratio">1</property>
  <property name="progressive">1</property>
  <property name="seekable">1</property>
  <property name="meta.media.width">932</property>
  <property name="meta.media.height">700</property>
  <property name="mlt_service">qimage</property>
  <property name="kdenlive:clipname"/>
  <property name="kdenlive:duration">00:00:05.000</property>
  <property name="kdenlive:id">16</property>
  <property name="kdenlive:file_size">120426</property>
  <property name="kdenlive:file_hash">34ed3448c72927fa853e37d1995135f9</property>
  <property name="kdenlive:folderid">-1</property>
 </producer>
 <producer id="producer9" in="00:00:00.000" out="00:00:18.600">
  <property name="length">466</property>
  <property name="eof">pause</property>
  <property name="resource">C:/Users/SERGEI/Pictures/Photo/2019/Elika_Mia/IMG-20190322-WA0003.jpg</property>
  <property name="ttl">25</property>
  <property name="aspect_ratio">1</property>
  <property name="progressive">1</property>
  <property name="seekable">1</property>
  <property name="meta.media.width">922</property>
  <property name="meta.media.height">692</property>
  <property name="mlt_service">qimage</property>
  <property name="kdenlive:clipname"/>
  <property name="kdenlive:duration">00:00:05.000</property>
  <property name="kdenlive:id">17</property>
  <property name="kdenlive:file_size">113879</property>
  <property name="kdenlive:file_hash">5e1d960e6aa4c0247f07dfe8bba2dc23</property>
  <property name="kdenlive:folderid">-1</property>
 </producer>
 <producer id="producer10" in="00:00:00.000" out="00:00:10.480">
  <property name="length">263</property>
  <property name="eof">pause</property>
  <property name="resource">C:/Users/SERGEI/Pictures/Photo/2019/Elika_Mia/20190810_120300.jpg</property>
  <property name="ttl">25</property>
  <property name="aspect_ratio">1</property>
  <property name="progressive">1</property>
  <property name="seekable">1</property>
  <property name="meta.media.width">923</property>
  <property name="meta.media.height">692</property>
  <property name="mlt_service">qimage</property>
  <property name="kdenlive:clipname"/>
  <property name="kdenlive:duration">00:00:05.000</property>
  <property name="kdenlive:id">18</property>
  <property name="kdenlive:file_size">138311</property>
  <property name="kdenlive:file_hash">1363c915266f8a3598fac191a3ef46eb</property>
  <property name="kdenlive:folderid">-1</property>
 </producer>
 <producer id="producer11" in="00:00:00.000" out="00:00:11.720">
  <property name="length">294</property>
  <property name="eof">pause</property>
  <property name="resource">C:/Users/SERGEI/Pictures/Photo/2019/Elika_Mia/IMG-20170410-WA0000.jpg</property>
  <property name="ttl">25</property>
  <property name="aspect_ratio">1</property>
  <property name="progressive">1</property>
  <property name="seekable">1</property>
  <property name="meta.media.width">934</property>
  <property name="meta.media.height">700</property>
  <property name="mlt_service">qimage</property>
  <property name="kdenlive:clipname"/>
  <property name="kdenlive:duration">00:00:05.000</property>
  <property name="kdenlive:id">19</property>
  <property name="kdenlive:file_size">93419</property>
  <property name="kdenlive:file_hash">f22c033ff38d576b1900dab0c1cddc00</property>
  <property name="kdenlive:folderid">-1</property>
 </producer>
 <producer id="producer12" in="00:00:00.000" out="00:00:12.320">
  <property name="length">309</property>
  <property name="eof">pause</property>
  <property name="resource">C:/Users/SERGEI/Pictures/Photo/2019/Elika_Mia/IMG-20171113-WA0003.jpg</property>
  <property name="ttl">25</property>
  <property name="aspect_ratio">1</property>
  <property name="progressive">1</property>
  <property name="seekable">1</property>
  <property name="meta.media.width">934</property>
  <property name="meta.media.height">700</property>
  <property name="mlt_service">qimage</property>
  <property name="kdenlive:clipname"/>
  <property name="kdenlive:duration">00:00:05.000</property>
  <property name="kdenlive:id">20</property>
  <property name="kdenlive:file_size">127741</property>
  <property name="kdenlive:file_hash">2481ac2e1a4d1da21fa53759b1566653</property>
  <property name="kdenlive:folderid">-1</property>
 </producer>
 <producer id="producer13" in="00:00:00.000" out="00:00:11.320">
  <property name="length">284</property>
  <property name="eof">pause</property>
  <property name="resource">C:/Users/SERGEI/Pictures/Photo/2019/Elika_Mia/IMG-20180428-WA0070.jpg</property>
  <property name="ttl">25</property>
  <property name="aspect_ratio">1</property>
  <property name="progressive">1</property>
  <property name="seekable">1</property>
  <property name="meta.media.width">580</property>
  <property name="meta.media.height">700</property>
  <property name="mlt_service">qimage</property>
  <property name="kdenlive:clipname"/>
  <property name="kdenlive:duration">00:00:05.000</property>
  <property name="kdenlive:id">21</property>
  <property name="kdenlive:file_size">89219</property>
  <property name="kdenlive:file_hash">d6482b1fb860e7e6e89832b432e489a4</property>
  <property name="kdenlive:folderid">-1</property>
 </producer>
 <producer id="producer14" in="00:00:00.000" out="00:00:04.960">
  <property name="length">00:00:05.000</property>
  <property name="eof">pause</property>
  <property name="resource">C:/Users/SERGEI/Pictures/Photo/2019/Elika_Mia/IMG-20180617-WA0010.jpg</property>
  <property name="ttl">25</property>
  <property name="aspect_ratio">1</property>
  <property name="progressive">1</property>
  <property name="seekable">1</property>
  <property name="meta.media.width">389</property>
  <property name="meta.media.height">692</property>
  <property name="mlt_service">qimage</property>
  <property name="kdenlive:clipname"/>
  <property name="kdenlive:duration">00:00:05.000</property>
  <property name="kdenlive:id">22</property>
  <property name="kdenlive:file_size">52412</property>
  <property name="kdenlive:file_hash">10b5fc170f1278ed44461f2830128f0e</property>
  <property name="kdenlive:folderid">-1</property>
 </producer>
 <producer id="producer15" in="00:00:00.000" out="00:00:04.960">
  <property name="length">00:00:05.000</property>
  <property name="eof">pause</property>
  <property name="resource">C:/Users/SERGEI/Pictures/Photo/2019/Elika_Mia/IMG-20180617-WA0008.jpg</property>
  <property name="ttl">25</property>
  <property name="aspect_ratio">1</property>
  <property name="progressive">1</property>
  <property name="seekable">1</property>
  <property name="meta.media.width">389</property>
  <property name="meta.media.height">692</property>
  <property name="mlt_service">qimage</property>
  <property name="kdenlive:clipname"/>
  <property name="kdenlive:duration">00:00:05.000</property>
  <property name="kdenlive:id">23</property>
  <property name="kdenlive:file_size">60055</property>
  <property name="kdenlive:file_hash">64caaa7eca926bb89c2ad03e8c419e51</property>
  <property name="kdenlive:folderid">-1</property>
 </producer>
 <producer id="producer16" in="00:00:00.000" out="00:00:04.960">
  <property name="length">00:00:05.000</property>
  <property name="eof">pause</property>
  <property name="resource">C:/Users/SERGEI/Pictures/Photo/2019/Elika_Mia/IMG-20180617-WA0013.jpg</property>
  <property name="ttl">25</property>
  <property name="aspect_ratio">1</property>
  <property name="progressive">1</property>
  <property name="seekable">1</property>
  <property name="meta.media.width">389</property>
  <property name="meta.media.height">692</property>
  <property name="mlt_service">qimage</property>
  <property name="kdenlive:clipname"/>
  <property name="kdenlive:duration">00:00:05.000</property>
  <property name="kdenlive:id">24</property>
  <property name="kdenlive:file_size">52519</property>
  <property name="kdenlive:file_hash">9f3cf951c14df732cc027a358a3294fb</property>
  <property name="kdenlive:folderid">-1</property>
 </producer>
 <producer id="producer17" in="00:00:00.000" out="00:00:06.920">
  <property name="length">174</property>
  <property name="eof">pause</property>
  <property name="resource">C:/Users/SERGEI/Pictures/Photo/2019/Elika_Mia/IMG-20181219-WA0002.jpg</property>
  <property name="ttl">25</property>
  <property name="aspect_ratio">1</property>
  <property name="progressive">1</property>
  <property name="seekable">1</property>
  <property name="meta.media.width">389</property>
  <property name="meta.media.height">692</property>
  <property name="mlt_service">qimage</property>
  <property name="kdenlive:clipname"/>
  <property name="kdenlive:duration">00:00:05.000</property>
  <property name="kdenlive:id">25</property>
  <property name="kdenlive:file_size">72363</property>
  <property name="kdenlive:file_hash">7e7394d3f05a4736871ab89f87ca24f7</property>
  <property name="kdenlive:folderid">-1</property>
 </producer>
 <producer id="producer18" in="00:00:00.000" out="00:00:06.520">
  <property name="length">164</property>
  <property name="eof">pause</property>
  <property name="resource">C:/Users/SERGEI/Pictures/Photo/2019/Elika_Mia/IMG-20180224-WA0002.jpg</property>
  <property name="ttl">25</property>
  <property name="aspect_ratio">1</property>
  <property name="progressive">1</property>
  <property name="seekable">1</property>
  <property name="meta.media.width">923</property>
  <property name="meta.media.height">692</property>
  <property name="mlt_service">qimage</property>
  <property name="kdenlive:clipname"/>
  <property name="kdenlive:duration">00:00:05.000</property>
  <property name="kdenlive:id">26</property>
  <property name="kdenlive:file_size">113910</property>
  <property name="kdenlive:file_hash">6c90f31065bb7207415f587d99eb3136</property>
  <property name="kdenlive:folderid">-1</property>
 </producer>
 <producer id="producer19" in="00:00:00.000" out="00:00:04.960">
  <property name="length">00:00:05.000</property>
  <property name="eof">pause</property>
  <property name="resource">C:/Users/SERGEI/Pictures/Photo/2019/Elika_Mia/IMG-20190827-WA0000.jpg</property>
  <property name="ttl">25</property>
  <property name="aspect_ratio">1</property>
  <property name="progressive">1</property>
  <property name="seekable">1</property>
  <property name="meta.media.width">987</property>
  <property name="meta.media.height">740</property>
  <property name="mlt_service">qimage</property>
  <property name="kdenlive:clipname"/>
  <property name="kdenlive:duration">00:00:05.000</property>
  <property name="kdenlive:id">27</property>
  <property name="kdenlive:file_size">165211</property>
  <property name="kdenlive:file_hash">1183eb50461bd207ad20da6b69664695</property>
  <property name="kdenlive:folderid">-1</property>
 </producer>
 <producer id="producer20" in="00:00:00.000" out="00:00:04.960">
  <property name="length">00:00:05.000</property>
  <property name="eof">pause</property>
  <property name="resource">C:/Users/SERGEI/Pictures/Photo/2019/Elika_Mia/IMG-20190504-WA0000.jpg</property>
  <property name="ttl">25</property>
  <property name="aspect_ratio">1</property>
  <property name="progressive">1</property>
  <property name="seekable">1</property>
  <property name="meta.media.width">555</property>
  <property name="meta.media.height">692</property>
  <property name="mlt_service">qimage</property>
  <property name="kdenlive:clipname"/>
  <property name="kdenlive:duration">00:00:05.000</property>
  <property name="kdenlive:id">28</property>
  <property name="kdenlive:file_size">187733</property>
  <property name="kdenlive:file_hash">004c0e306d35651c7bd510a15bd2b974</property>
  <property name="kdenlive:folderid">-1</property>
 </producer>
 <producer id="producer21" in="00:00:00.000" out="00:00:04.960">
  <property name="length">00:00:05.000</property>
  <property name="eof">pause</property>
  <property name="resource">C:/Users/SERGEI/Pictures/Photo/2019/Elika_Mia/20171229_173019.jpg</property>
  <property name="ttl">25</property>
  <property name="aspect_ratio">1</property>
  <property name="progressive">1</property>
  <property name="seekable">1</property>
  <property name="meta.media.width">1231</property>
  <property name="meta.media.height">692</property>
  <property name="mlt_service">qimage</property>
  <property name="kdenlive:clipname"/>
  <property name="kdenlive:duration">00:00:05.000</property>
  <property name="kdenlive:id">29</property>
  <property name="kdenlive:file_size">248846</property>
  <property name="kdenlive:file_hash">a518718385313e9e01d2405cf96c636d</property>
  <property name="kdenlive:folderid">-1</property>
 </producer>
 <producer id="producer22" in="00:00:00.000" out="00:00:04.960">
  <property name="length">00:00:05.000</property>
  <property name="eof">pause</property>
  <property name="resource">C:/Users/SERGEI/Pictures/Photo/2019/Elika_Mia/20171229_173052.jpg</property>
  <property name="ttl">25</property>
  <property name="aspect_ratio">1</property>
  <property name="progressive">1</property>
  <property name="seekable">1</property>
  <property name="meta.media.width">1231</property>
  <property name="meta.media.height">692</property>
  <property name="mlt_service">qimage</property>
  <property name="kdenlive:clipname"/>
  <property name="kdenlive:duration">00:00:05.000</property>
  <property name="kdenlive:id">30</property>
  <property name="kdenlive:file_size">205396</property>
  <property name="kdenlive:file_hash">f6ac8090b0ac53df167a8ccca2620622</property>
  <property name="kdenlive:folderid">-1</property>
 </producer>
 <producer id="producer23" in="00:00:00.000" out="00:00:04.960">
  <property name="length">00:00:05.000</property>
  <property name="eof">pause</property>
  <property name="resource">C:/Users/SERGEI/Pictures/Photo/2019/Elika_Mia/20171231_132606.jpg</property>
  <property name="ttl">25</property>
  <property name="aspect_ratio">1</property>
  <property name="progressive">1</property>
  <property name="seekable">1</property>
  <property name="meta.media.width">1215</property>
  <property name="meta.media.height">692</property>
  <property name="mlt_service">qimage</property>
  <property name="kdenlive:clipname"/>
  <property name="kdenlive:duration">00:00:05.000</property>
  <property name="kdenlive:id">31</property>
  <property name="kdenlive:file_size">174735</property>
  <property name="kdenlive:file_hash">aca518f2d7f876c80ff15a1f9cd41d30</property>
  <property name="kdenlive:folderid">-1</property>
 </producer>
 <producer id="producer24" in="00:00:00.000" out="00:00:04.960">
  <property name="length">00:00:05.000</property>
  <property name="eof">pause</property>
  <property name="resource">C:/Users/SERGEI/Pictures/Photo/2019/Elika_Mia/20171231_132510.jpg</property>
  <property name="ttl">25</property>
  <property name="aspect_ratio">1</property>
  <property name="progressive">1</property>
  <property name="seekable">1</property>
  <property name="meta.media.width">805</property>
  <property name="meta.media.height">692</property>
  <property name="mlt_service">qimage</property>
  <property name="kdenlive:clipname"/>
  <property name="kdenlive:duration">00:00:05.000</property>
  <property name="kdenlive:id">32</property>
  <property name="kdenlive:file_size">94588</property>
  <property name="kdenlive:file_hash">450366cfa5b4d13c3cb6d484284256fd</property>
  <property name="kdenlive:folderid">-1</property>
 </producer>
 <producer id="producer25" in="00:00:00.000" out="00:00:04.960">
  <property name="length">00:00:05.000</property>
  <property name="eof">pause</property>
  <property name="resource">C:/Users/SERGEI/Pictures/Photo/2019/Elika_Mia/20180326_172333.jpg</property>
  <property name="ttl">25</property>
  <property name="aspect_ratio">1</property>
  <property name="progressive">1</property>
  <property name="seekable">1</property>
  <property name="meta.media.width">1143</property>
  <property name="meta.media.height">643</property>
  <property name="mlt_service">qimage</property>
  <property name="kdenlive:clipname"/>
  <property name="kdenlive:duration">00:00:05.000</property>
  <property name="kdenlive:id">33</property>
  <property name="kdenlive:file_size">250743</property>
  <property name="kdenlive:file_hash">7f84816c6ba7349a67a59464eae751df</property>
  <property name="kdenlive:folderid">-1</property>
 </producer>
 <producer id="producer26" in="00:00:00.000" out="00:00:04.960">
  <property name="length">00:00:05.000</property>
  <property name="eof">pause</property>
  <property name="resource">C:/Users/SERGEI/Pictures/Photo/2019/Elika_Mia/20190320_133242.jpg</property>
  <property name="ttl">25</property>
  <property name="aspect_ratio">1</property>
  <property name="progressive">1</property>
  <property name="seekable">1</property>
  <property name="meta.media.width">1231</property>
  <property name="meta.media.height">692</property>
  <property name="mlt_service">qimage</property>
  <property name="kdenlive:clipname"/>
  <property name="kdenlive:duration">00:00:05.000</property>
  <property name="kdenlive:id">34</property>
  <property name="kdenlive:file_size">125349</property>
  <property name="kdenlive:file_hash">11adef9a79805d3a4762e0bbf7b16e2e</property>
  <property name="kdenlive:folderid">-1</property>
 </producer>
 <producer id="producer27" in="00:00:00.000" out="00:00:04.960">
  <property name="length">00:00:05.000</property>
  <property name="eof">pause</property>
  <property name="resource">C:/Users/SERGEI/Pictures/Photo/2019/Elika_Mia/20190320_133252.jpg</property>
  <property name="ttl">25</property>
  <property name="aspect_ratio">1</property>
  <property name="progressive">1</property>
  <property name="seekable">1</property>
  <property name="meta.media.width">1231</property>
  <property name="meta.media.height">692</property>
  <property name="mlt_service">qimage</property>
  <property name="kdenlive:clipname"/>
  <property name="kdenlive:duration">00:00:05.000</property>
  <property name="kdenlive:id">35</property>
  <property name="kdenlive:file_size">113433</property>
  <property name="kdenlive:file_hash">d0a38239e4ae4b27d1ffccb4b9435395</property>
  <property name="kdenlive:folderid">-1</property>
 </producer>
 <producer id="producer28" in="00:00:00.000" out="00:00:06.720">
  <property name="length">169</property>
  <property name="eof">pause</property>
  <property name="resource">C:/Users/SERGEI/Pictures/Photo/2019/Elika_Mia/20171230_115150.jpg</property>
  <property name="ttl">25</property>
  <property name="aspect_ratio">1</property>
  <property name="progressive">1</property>
  <property name="seekable">1</property>
  <property name="meta.media.width">1231</property>
  <property name="meta.media.height">692</property>
  <property name="mlt_service">qimage</property>
  <property name="kdenlive:clipname"/>
  <property name="kdenlive:duration">00:00:05.000</property>
  <property name="kdenlive:id">36</property>
  <property name="kdenlive:file_size">301367</property>
  <property name="kdenlive:file_hash">dafe132ae64d5f87f027726f9b91d044</property>
  <property name="kdenlive:folderid">-1</property>
 </producer>
 <producer id="producer29" in="00:00:00.000" out="00:00:04.960">
  <property name="length">00:00:05.000</property>
  <property name="eof">pause</property>
  <property name="resource">C:/Users/SERGEI/Pictures/Photo/2019/Elika_Mia/20170429_172309.jpg</property>
  <property name="ttl">25</property>
  <property name="aspect_ratio">1</property>
  <property name="progressive">1</property>
  <property name="seekable">1</property>
  <property name="meta.media.width">705</property>
  <property name="meta.media.height">669</property>
  <property name="mlt_service">qimage</property>
  <property name="kdenlive:clipname"/>
  <property name="kdenlive:duration">00:00:05.000</property>
  <property name="kdenlive:id">37</property>
  <property name="kdenlive:file_size">88517</property>
  <property name="kdenlive:file_hash">9a8787d5c90c0d31ff1f481cc4f194f8</property>
  <property name="kdenlive:folderid">-1</property>
 </producer>
 <producer id="producer30" in="00:00:00.000" out="00:00:04.960">
  <property name="length">00:00:05.000</property>
  <property name="eof">pause</property>
  <property name="resource">C:/Users/SERGEI/Pictures/Photo/2019/Elika_Mia/20170821_120901.jpg</property>
  <property name="ttl">25</property>
  <property name="aspect_ratio">1</property>
  <property name="progressive">1</property>
  <property name="seekable">1</property>
  <property name="meta.media.width">923</property>
  <property name="meta.media.height">692</property>
  <property name="mlt_service">qimage</property>
  <property name="kdenlive:clipname"/>
  <property name="kdenlive:duration">00:00:05.000</property>
  <property name="kdenlive:id">38</property>
  <property name="kdenlive:file_size">247587</property>
  <property name="kdenlive:file_hash">1a7b7dd78774883d46031c83abb9d26f</property>
  <property name="kdenlive:folderid">-1</property>
 </producer>
 <producer id="producer31" in="00:00:00.000" out="00:00:04.960">
  <property name="length">00:00:05.000</property>
  <property name="eof">pause</property>
  <property name="resource">C:/Users/SERGEI/Pictures/Photo/2019/Elika_Mia/20170821_120907.jpg</property>
  <property name="ttl">25</property>
  <property name="aspect_ratio">1</property>
  <property name="progressive">1</property>
  <property name="seekable">1</property>
  <property name="meta.media.width">923</property>
  <property name="meta.media.height">692</property>
  <property name="mlt_service">qimage</property>
  <property name="kdenlive:clipname"/>
  <property name="kdenlive:duration">00:00:05.000</property>
  <property name="kdenlive:id">39</property>
  <property name="kdenlive:file_size">255754</property>
  <property name="kdenlive:file_hash">820f669c46e06ed02b6e9711c07fd8a5</property>
  <property name="kdenlive:folderid">-1</property>
 </producer>
 <producer id="producer32" in="00:00:00.000" out="00:00:13.000">
  <property name="length">326</property>
  <property name="eof">pause</property>
  <property name="resource">C:/Users/SERGEI/Pictures/Photo/2019/Elika_Mia/20170322_195336.jpg</property>
  <property name="ttl">25</property>
  <property name="aspect_ratio">1</property>
  <property name="progressive">1</property>
  <property name="seekable">1</property>
  <property name="meta.media.width">1190</property>
  <property name="meta.media.height">669</property>
  <property name="mlt_service">qimage</property>
  <property name="kdenlive:clipname"/>
  <property name="kdenlive:duration">00:00:05.000</property>
  <property name="kdenlive:id">40</property>
  <property name="kdenlive:file_size">156591</property>
  <property name="kdenlive:file_hash">e1b030bf40dd77cf9dcaaa5756e03e8d</property>
  <property name="kdenlive:folderid">-1</property>
 </producer>
 <producer id="producer33" in="00:00:00.000" out="00:00:04.960">
  <property name="length">00:00:05.000</property>
  <property name="eof">pause</property>
  <property name="resource">C:/Users/SERGEI/Pictures/Photo/2019/Elika_Mia/20161004_121444.jpg</property>
  <property name="ttl">25</property>
  <property name="aspect_ratio">1</property>
  <property name="progressive">1</property>
  <property name="seekable">1</property>
  <property name="meta.media.width">1231</property>
  <property name="meta.media.height">692</property>
  <property name="mlt_service">qimage</property>
  <property name="kdenlive:clipname"/>
  <property name="kdenlive:duration">00:00:05.000</property>
  <property name="kdenlive:id">41</property>
  <property name="kdenlive:file_size">170346</property>
  <property name="kdenlive:file_hash">6588e7eead8f9ebf778004160a452d7f</property>
  <property name="kdenlive:folderid">-1</property>
 </producer>
 <producer id="producer34" in="00:00:00.000" out="00:00:04.960">
  <property name="length">00:00:05.000</property>
  <property name="eof">pause</property>
  <property name="resource">C:/Users/SERGEI/Pictures/Photo/2019/Elika_Mia/20160813_051442.jpg</property>
  <property name="ttl">25</property>
  <property name="aspect_ratio">1</property>
  <property name="progressive">1</property>
  <property name="seekable">1</property>
  <property name="meta.media.width">1190</property>
  <property name="meta.media.height">669</property>
  <property name="mlt_service">qimage</property>
  <property name="kdenlive:clipname"/>
  <property name="kdenlive:duration">00:00:05.000</property>
  <property name="kdenlive:id">42</property>
  <property name="kdenlive:file_size">171285</property>
  <property name="kdenlive:file_hash">2aa5d442c8fce1d0149f2b6627985707</property>
  <property name="kdenlive:folderid">-1</property>
 </producer>
 <producer id="producer35" in="00:00:00.000" out="00:00:05.800">
  <property name="length">146</property>
  <property name="eof">pause</property>
  <property name="resource">C:/Users/SERGEI/Pictures/Photo/2019/Elika_Mia/20160322_164846.jpg</property>
  <property name="ttl">25</property>
  <property name="aspect_ratio">1</property>
  <property name="progressive">1</property>
  <property name="seekable">1</property>
  <property name="meta.media.width">1311</property>
  <property name="meta.media.height">737</property>
  <property name="mlt_service">qimage</property>
  <property name="kdenlive:clipname"/>
  <property name="kdenlive:duration">00:00:05.000</property>
  <property name="kdenlive:id">43</property>
  <property name="kdenlive:file_size">315488</property>
  <property name="kdenlive:file_hash">f8b76faa4412c2f35ca0f506714f8e1f</property>
  <property name="kdenlive:folderid">-1</property>
 </producer>
 <producer id="producer36" in="00:00:00.000" out="00:00:04.960">
  <property name="length">00:00:05.000</property>
  <property name="eof">pause</property>
  <property name="resource">C:/Users/SERGEI/Pictures/Photo/2019/Elika_Mia/20160518_175007.jpg</property>
  <property name="ttl">25</property>
  <property name="aspect_ratio">1</property>
  <property name="progressive">1</property>
  <property name="seekable">1</property>
  <property name="meta.media.width">1311</property>
  <property name="meta.media.height">737</property>
  <property name="mlt_service">qimage</property>
  <property name="kdenlive:clipname"/>
  <property name="kdenlive:duration">00:00:05.000</property>
  <property name="kdenlive:id">44</property>
  <property name="kdenlive:file_size">230290</property>
  <property name="kdenlive:file_hash">9969b439200607cdecb5f6fef06f69eb</property>
  <property name="kdenlive:folderid">-1</property>
 </producer>
 <producer title="Anonymous Submission" id="producer37" in="00:00:00.000" out="00:00:38.800">
  <property name="length">971</property>
  <property name="eof">pause</property>
  <property name="resource">C:/Users/SERGEI/Pictures/Photo/2019/Phone/WhatsApp_Video/VID-20190627-WA0002.mp4</property>
  <property name="audio_index">1</property>
  <property name="video_index">0</property>
  <property name="mute_on_pause">1</property>
  <property name="mlt_service">avformat-novalidate</property>
  <property name="meta.media.nb_streams">2</property>
  <property name="meta.media.0.stream.type">video</property>
  <property name="meta.media.0.stream.frame_rate">30.024</property>
  <property name="meta.media.0.stream.sample_aspect_ratio">0</property>
  <property name="meta.media.0.codec.width">640</property>
  <property name="meta.media.0.codec.height">352</property>
  <property name="meta.media.0.codec.rotate">90</property>
  <property name="meta.media.0.codec.frame_rate">30024</property>
  <property name="meta.media.0.codec.pix_fmt">yuv420p</property>
  <property name="meta.media.0.codec.sample_aspect_ratio">0</property>
  <property name="meta.media.0.codec.colorspace">601</property>
  <property name="meta.media.0.codec.name">h264</property>
  <property name="meta.media.0.codec.long_name">H.264 / AVC / MPEG-4 AVC / MPEG-4 part 10</property>
  <property name="meta.media.0.codec.bit_rate">1525201</property>
  <property name="meta.attr.0.stream.rotate.markup">90</property>
  <property name="meta.media.1.stream.type">audio</property>
  <property name="meta.media.1.codec.sample_fmt">fltp</property>
  <property name="meta.media.1.codec.sample_rate">48000</property>
  <property name="meta.media.1.codec.channels">2</property>
  <property name="meta.media.1.codec.name">aac</property>
  <property name="meta.media.1.codec.long_name">AAC (Advanced Audio Coding)</property>
  <property name="meta.media.1.codec.bit_rate">286968</property>
  <property name="meta.attr.major_brand.markup">mp42</property>
  <property name="meta.attr.minor_version.markup">0</property>
  <property name="meta.attr.compatible_brands.markup">mp42isom</property>
  <property name="seekable">1</property>
  <property name="meta.media.sample_aspect_num">1</property>
  <property name="meta.media.sample_aspect_den">1</property>
  <property name="aspect_ratio">1</property>
  <property name="kdenlive:clipname"/>
  <property name="meta.media.frame_rate_num">3753</property>
  <property name="meta.media.frame_rate_den">125</property>
  <property name="meta.media.colorspace">601</property>
  <property name="meta.media.color_trc">2</property>
  <property name="meta.media.width">352</property>
  <property name="meta.media.height">640</property>
  <property name="kdenlive:id">45</property>
  <property name="kdenlive:file_size">8808136</property>
  <property name="kdenlive:file_hash">88a8b22cdc3a1687bfbe147309b57ade</property>
  <property name="kdenlive:folderid">-1</property>
  <property name="meta.media.top_field_first">0</property>
  <property name="meta.media.progressive">1</property>
  <property name="global_feed">1</property>
 </producer>
 <producer title="Anonymous Submission" id="producer38" in="00:00:00.000" out="00:00:34.040">
  <property name="length">852</property>
  <property name="eof">pause</property>
  <property name="resource">C:/Users/SERGEI/Pictures/Photo/2019/Phone/WhatsApp_Video/VID-20190627-WA0001.mp4</property>
  <property name="audio_index">1</property>
  <property name="video_index">0</property>
  <property name="mute_on_pause">1</property>
  <property name="mlt_service">avformat-novalidate</property>
  <property name="meta.media.nb_streams">2</property>
  <property name="meta.media.0.stream.type">video</property>
  <property name="meta.media.0.stream.frame_rate">30.069</property>
  <property name="meta.media.0.stream.sample_aspect_ratio">0</property>
  <property name="meta.media.0.codec.width">640</property>
  <property name="meta.media.0.codec.height">352</property>
  <property name="meta.media.0.codec.rotate">90</property>
  <property name="meta.media.0.codec.frame_rate">30069</property>
  <property name="meta.media.0.codec.pix_fmt">yuv420p</property>
  <property name="meta.media.0.codec.sample_aspect_ratio">0</property>
  <property name="meta.media.0.codec.colorspace">601</property>
  <property name="meta.media.0.codec.name">h264</property>
  <property name="meta.media.0.codec.long_name">H.264 / AVC / MPEG-4 AVC / MPEG-4 part 10</property>
  <property name="meta.media.0.codec.bit_rate">1579971</property>
  <property name="meta.attr.0.stream.rotate.markup">90</property>
  <property name="meta.media.1.stream.type">audio</property>
  <property name="meta.media.1.codec.sample_fmt">fltp</property>
  <property name="meta.media.1.codec.sample_rate">48000</property>
  <property name="meta.media.1.codec.channels">2</property>
  <property name="meta.media.1.codec.name">aac</property>
  <property name="meta.media.1.codec.long_name">AAC (Advanced Audio Coding)</property>
  <property name="meta.media.1.codec.bit_rate">256015</property>
  <property name="meta.attr.major_brand.markup">mp42</property>
  <property name="meta.attr.minor_version.markup">0</property>
  <property name="meta.attr.compatible_brands.markup">mp42isom</property>
  <property name="seekable">1</property>
  <property name="meta.media.sample_aspect_num">1</property>
  <property name="meta.media.sample_aspect_den">1</property>
  <property name="aspect_ratio">1</property>
  <property name="kdenlive:clipname"/>
  <property name="meta.media.frame_rate_num">30069</property>
  <property name="meta.media.frame_rate_den">1000</property>
  <property name="meta.media.colorspace">601</property>
  <property name="meta.media.color_trc">2</property>
  <property name="meta.media.width">352</property>
  <property name="meta.media.height">640</property>
  <property name="kdenlive:id">46</property>
  <property name="kdenlive:file_size">7831522</property>
  <property name="kdenlive:file_hash">695af7383276ffa886ad488856689cb0</property>
  <property name="kdenlive:folderid">-1</property>
  <property name="meta.media.top_field_first">0</property>
  <property name="meta.media.progressive">1</property>
  <property name="global_feed">1</property>
 </producer>
 <producer title="Anonymous Submission" id="producer39" in="00:00:00.000" out="00:00:10.800">
  <property name="length">271</property>
  <property name="eof">pause</property>
  <property name="resource">C:/Users/SERGEI/Pictures/Photo/2019/Phone/WhatsApp_Video/VID-20190309-WA0014.mp4</property>
  <property name="audio_index">1</property>
  <property name="video_index">0</property>
  <property name="mute_on_pause">1</property>
  <property name="mlt_service">avformat-novalidate</property>
  <property name="meta.media.nb_streams">2</property>
  <property name="meta.media.0.stream.type">video</property>
  <property name="meta.media.0.stream.frame_rate">30.0046</property>
  <property name="meta.media.0.stream.sample_aspect_ratio">0</property>
  <property name="meta.media.0.codec.width">848</property>
  <property name="meta.media.0.codec.height">480</property>
  <property name="meta.media.0.codec.rotate">0</property>
  <property name="meta.media.0.codec.frame_rate">600</property>
  <property name="meta.media.0.codec.pix_fmt">yuv420p</property>
  <property name="meta.media.0.codec.sample_aspect_ratio">0</property>
  <property name="meta.media.0.codec.colorspace">709</property>
  <property name="meta.media.0.codec.color_trc">1</property>
  <property name="meta.media.0.codec.name">h264</property>
  <property name="meta.media.0.codec.long_name">H.264 / AVC / MPEG-4 AVC / MPEG-4 part 10</property>
  <property name="meta.media.0.codec.bit_rate">1677430</property>
  <property name="meta.attr.0.stream.creation_time.markup">2019-03-09T16:18:52.000000Z</property>
  <property name="meta.attr.0.stream.handler_name.markup">Core Media Video</property>
  <property name="meta.media.1.stream.type">audio</property>
  <property name="meta.media.1.codec.sample_fmt">fltp</property>
  <property name="meta.media.1.codec.sample_rate">44100</property>
  <property name="meta.media.1.codec.channels">2</property>
  <property name="meta.media.1.codec.name">aac</property>
  <property name="meta.media.1.codec.long_name">AAC (Advanced Audio Coding)</property>
  <property name="meta.media.1.codec.bit_rate">62651</property>
  <property name="meta.attr.1.stream.creation_time.markup">2019-03-09T16:18:52.000000Z</property>
  <property name="meta.attr.1.stream.handler_name.markup">Core Media Audio</property>
  <property name="meta.attr.major_brand.markup">mp42</property>
  <property name="meta.attr.minor_version.markup">1</property>
  <property name="meta.attr.compatible_brands.markup">mp41mp42isom</property>
  <property name="meta.attr.creation_time.markup">2019-03-09T16:18:52.000000Z</property>
  <property name="seekable">1</property>
  <property name="meta.media.sample_aspect_num">1</property>
  <property name="meta.media.sample_aspect_den">1</property>
  <property name="aspect_ratio">1</property>
  <property name="kdenlive:clipname"/>
  <property name="meta.media.frame_rate_num">195000</property>
  <property name="meta.media.frame_rate_den">6499</property>
  <property name="meta.media.colorspace">709</property>
  <property name="meta.media.color_trc">1</property>
  <property name="meta.media.width">848</property>
  <property name="meta.media.height">480</property>
  <property name="kdenlive:id">48</property>
  <property name="kdenlive:file_size">2361624</property>
  <property name="kdenlive:file_hash">bafa602de69f4576d60c3d617cc38993</property>
  <property name="kdenlive:folderid">-1</property>
  <property name="meta.media.top_field_first">0</property>
  <property name="meta.media.progressive">1</property>
  <property name="global_feed">1</property>
 </producer>
 <producer title="Anonymous Submission" id="producer40" in="00:00:00.000" out="00:00:08.320">
  <property name="length">209</property>
  <property name="eof">pause</property>
  <property name="resource">C:/Users/SERGEI/Pictures/Photo/2019/Phone/WhatsApp_Video/VID-20190106-WA0008.mp4</property>
  <property name="audio_index">1</property>
  <property name="video_index">0</property>
  <property name="mute_on_pause">1</property>
  <property name="mlt_service">avformat-novalidate</property>
  <property name="meta.media.nb_streams">2</property>
  <property name="meta.media.0.stream.type">video</property>
  <property name="meta.media.0.stream.frame_rate">30.006</property>
  <property name="meta.media.0.stream.sample_aspect_ratio">0</property>
  <property name="meta.media.0.codec.width">848</property>
  <property name="meta.media.0.codec.height">480</property>
  <property name="meta.media.0.codec.rotate">90</property>
  <property name="meta.media.0.codec.frame_rate">600</property>
  <property name="meta.media.0.codec.pix_fmt">yuv420p</property>
  <property name="meta.media.0.codec.sample_aspect_ratio">0</property>
  <property name="meta.media.0.codec.colorspace">709</property>
  <property name="meta.media.0.codec.color_trc">1</property>
  <property name="meta.media.0.codec.name">h264</property>
  <property name="meta.media.0.codec.long_name">H.264 / AVC / MPEG-4 AVC / MPEG-4 part 10</property>
  <property name="meta.media.0.codec.bit_rate">1664636</property>
  <property name="meta.attr.0.stream.rotate.markup">90</property>
  <property name="meta.attr.0.stream.creation_time.markup">2019-01-06T10:56:28.000000Z</property>
  <property name="meta.attr.0.stream.handler_name.markup">Core Media Video</property>
  <property name="meta.media.1.stream.type">audio</property>
  <property name="meta.media.1.codec.sample_fmt">fltp</property>
  <property name="meta.media.1.codec.sample_rate">44100</property>
  <property name="meta.media.1.codec.channels">2</property>
  <property name="meta.media.1.codec.name">aac</property>
  <property name="meta.media.1.codec.long_name">AAC (Advanced Audio Coding)</property>
  <property name="meta.media.1.codec.bit_rate">61578</property>
  <property name="meta.attr.1.stream.creation_time.markup">2019-01-06T10:56:28.000000Z</property>
  <property name="meta.attr.1.stream.handler_name.markup">Core Media Audio</property>
  <property name="meta.attr.major_brand.markup">mp42</property>
  <property name="meta.attr.minor_version.markup">1</property>
  <property name="meta.attr.compatible_brands.markup">mp41mp42isom</property>
  <property name="meta.attr.creation_time.markup">2019-01-06T10:56:28.000000Z</property>
  <property name="seekable">1</property>
  <property name="meta.media.sample_aspect_num">1</property>
  <property name="meta.media.sample_aspect_den">1</property>
  <property name="aspect_ratio">1</property>
  <property name="kdenlive:clipname"/>
  <property name="meta.media.frame_rate_num">50200</property>
  <property name="meta.media.frame_rate_den">1673</property>
  <property name="meta.media.colorspace">709</property>
  <property name="meta.media.color_trc">1</property>
  <property name="meta.media.width">480</property>
  <property name="meta.media.height">848</property>
  <property name="kdenlive:id">49</property>
  <property name="kdenlive:file_size">1809743</property>
  <property name="kdenlive:file_hash">822f3e7bdd4329ddf729f5d05b27dd60</property>
  <property name="kdenlive:folderid">-1</property>
  <property name="meta.media.top_field_first">0</property>
  <property name="meta.media.progressive">1</property>
  <property name="global_feed">1</property>
 </producer>
 <producer title="Anonymous Submission" id="producer41" in="00:00:00.000" out="00:01:03.520">
  <property name="length">1589</property>
  <property name="eof">pause</property>
  <property name="resource">C:/Users/SERGEI/Pictures/Photo/2019/Phone/WhatsApp_Video/VID-20181110-WA0000.mp4</property>
  <property name="audio_index">1</property>
  <property name="video_index">0</property>
  <property name="mute_on_pause">1</property>
  <property name="mlt_service">avformat-novalidate</property>
  <property name="meta.media.nb_streams">2</property>
  <property name="meta.media.0.stream.type">video</property>
  <property name="meta.media.0.stream.frame_rate">29.9961</property>
  <property name="meta.media.0.stream.sample_aspect_ratio">0</property>
  <property name="meta.media.0.codec.width">848</property>
  <property name="meta.media.0.codec.height">480</property>
  <property name="meta.media.0.codec.rotate">0</property>
  <property name="meta.media.0.codec.frame_rate">600</property>
  <property name="meta.media.0.codec.pix_fmt">yuv420p</property>
  <property name="meta.media.0.codec.sample_aspect_ratio">0</property>
  <property name="meta.media.0.codec.colorspace">709</property>
  <property name="meta.media.0.codec.color_trc">1</property>
  <property name="meta.media.0.codec.name">h264</property>
  <property name="meta.media.0.codec.long_name">H.264 / AVC / MPEG-4 AVC / MPEG-4 part 10</property>
  <property name="meta.media.0.codec.bit_rate">1328886</property>
  <property name="meta.attr.0.stream.creation_time.markup">2018-11-10T11:16:47.000000Z</property>
  <property name="meta.attr.0.stream.handler_name.markup">Core Media Video</property>
  <property name="meta.media.1.stream.type">audio</property>
  <property name="meta.media.1.codec.sample_fmt">fltp</property>
  <property name="meta.media.1.codec.sample_rate">44100</property>
  <property name="meta.media.1.codec.channels">2</property>
  <property name="meta.media.1.codec.name">aac</property>
  <property name="meta.media.1.codec.long_name">AAC (Advanced Audio Coding)</property>
  <property name="meta.media.1.codec.bit_rate">61688</property>
  <property name="meta.attr.1.stream.creation_time.markup">2018-11-10T11:16:47.000000Z</property>
  <property name="meta.attr.1.stream.handler_name.markup">Core Media Audio</property>
  <property name="meta.attr.major_brand.markup">mp42</property>
  <property name="meta.attr.minor_version.markup">1</property>
  <property name="meta.attr.compatible_brands.markup">mp41mp42isom</property>
  <property name="meta.attr.creation_time.markup">2018-11-10T11:16:47.000000Z</property>
  <property name="seekable">1</property>
  <property name="meta.media.sample_aspect_num">1</property>
  <property name="meta.media.sample_aspect_den">1</property>
  <property name="aspect_ratio">1</property>
  <property name="kdenlive:clipname"/>
  <property name="meta.media.frame_rate_num">76280</property>
  <property name="meta.media.frame_rate_den">2543</property>
  <property name="meta.media.colorspace">709</property>
  <property name="meta.media.color_trc">1</property>
  <property name="meta.media.width">848</property>
  <property name="meta.media.height">480</property>
  <property name="kdenlive:id">50</property>
  <property name="kdenlive:file_size">11075231</property>
  <property name="kdenlive:file_hash">c4f2ec73db844ae7bd9a21658a89830d</property>
  <property name="kdenlive:folderid">-1</property>
  <property name="meta.media.top_field_first">0</property>
  <property name="meta.media.progressive">1</property>
  <property name="global_feed">1</property>
 </producer>
 <producer id="producer42" in="00:00:00.000" out="00:00:04.960">
  <property name="length">00:00:05.000</property>
  <property name="eof">pause</property>
  <property name="resource">C:/Users/SERGEI/Pictures/Photo/2019/Phone/WhatsApp_Images/IMG-20190413-WA0004.jpg</property>
  <property name="ttl">25</property>
  <property name="aspect_ratio">1</property>
  <property name="progressive">1</property>
  <property name="seekable">1</property>
  <property name="meta.media.width">1200</property>
  <property name="meta.media.height">1600</property>
  <property name="mlt_service">qimage</property>
  <property name="kdenlive:clipname"/>
  <property name="kdenlive:duration">00:00:05.000</property>
  <property name="kdenlive:id">51</property>
  <property name="kdenlive:file_size">226051</property>
  <property name="kdenlive:file_hash">366f06ae1d17743edc983a54d386c2a8</property>
  <property name="kdenlive:folderid">-1</property>
 </producer>
 <producer id="producer43" in="00:00:00.000" out="00:00:04.960">
  <property name="length">00:00:05.000</property>
  <property name="eof">pause</property>
  <property name="resource">C:/Users/SERGEI/Pictures/Photo/2019/Phone/WhatsApp_Images/IMG-20190413-WA0002.jpg</property>
  <property name="ttl">25</property>
  <property name="aspect_ratio">1</property>
  <property name="progressive">1</property>
  <property name="seekable">1</property>
  <property name="meta.media.width">1200</property>
  <property name="meta.media.height">1600</property>
  <property name="mlt_service">qimage</property>
  <property name="kdenlive:clipname"/>
  <property name="kdenlive:duration">00:00:05.000</property>
  <property name="kdenlive:id">52</property>
  <property name="kdenlive:file_size">158742</property>
  <property name="kdenlive:file_hash">c2df18fe3622b197ffc8f8602916115d</property>
  <property name="kdenlive:folderid">-1</property>
 </producer>
 <producer id="producer44" in="00:00:00.000" out="00:00:05.360">
  <property name="length">135</property>
  <property name="eof">pause</property>
  <property name="resource">C:/Users/SERGEI/Pictures/Photo/2019/Phone/WhatsApp_Images/IMG-20190413-WA0010.jpg</property>
  <property name="ttl">25</property>
  <property name="aspect_ratio">1</property>
  <property name="progressive">1</property>
  <property name="seekable">1</property>
  <property name="meta.media.width">1600</property>
  <property name="meta.media.height">1200</property>
  <property name="mlt_service">qimage</property>
  <property name="kdenlive:clipname"/>
  <property name="kdenlive:duration">00:00:05.000</property>
  <property name="kdenlive:id">53</property>
  <property name="kdenlive:file_size">137749</property>
  <property name="kdenlive:file_hash">d31997373fcc98a59591fa843fbc5abb</property>
  <property name="kdenlive:folderid">-1</property>
 </producer>
 <producer id="producer45" in="00:00:00.000" out="00:00:04.960">
  <property name="length">00:00:05.000</property>
  <property name="eof">pause</property>
  <property name="resource">C:/Users/SERGEI/Pictures/Photo/2019/Phone/WhatsApp_Images/IMG-20190316-WA0012.jpg</property>
  <property name="ttl">25</property>
  <property name="aspect_ratio">1</property>
  <property name="progressive">1</property>
  <property name="seekable">1</property>
  <property name="meta.media.width">1200</property>
  <property name="meta.media.height">1600</property>
  <property name="mlt_service">qimage</property>
  <property name="kdenlive:clipname"/>
  <property name="kdenlive:duration">00:00:05.000</property>
  <property name="kdenlive:id">54</property>
  <property name="kdenlive:file_size">121311</property>
  <property name="kdenlive:file_hash">70bd8d7f5dd3cb9ca59631ba891cf921</property>
  <property name="kdenlive:folderid">-1</property>
 </producer>
 <producer id="producer46" in="00:00:00.000" out="00:00:04.960">
  <property name="length">00:00:05.000</property>
  <property name="eof">pause</property>
  <property name="resource">C:/Users/SERGEI/Pictures/Photo/2019/Phone/WhatsApp_Images/IMG-20190316-WA0010.jpg</property>
  <property name="ttl">25</property>
  <property name="aspect_ratio">1</property>
  <property name="progressive">1</property>
  <property name="seekable">1</property>
  <property name="meta.media.width">1200</property>
  <property name="meta.media.height">1600</property>
  <property name="mlt_service">qimage</property>
  <property name="kdenlive:clipname"/>
  <property name="kdenlive:duration">00:00:05.000</property>
  <property name="kdenlive:id">55</property>
  <property name="kdenlive:file_size">153256</property>
  <property name="kdenlive:file_hash">a2a4588d0a5c3b5179382b6a0d6141dc</property>
  <property name="kdenlive:folderid">-1</property>
 </producer>
 <producer title="Anonymous Submission" id="producer47" in="00:00:00.000" out="00:00:29.960">
  <property name="length">750</property>
  <property name="eof">pause</property>
  <property name="resource">C:/Users/SERGEI/Pictures/Photo/2019/Phone/WhatsApp_Video/VID-20170408-WA0000.mp4</property>
  <property name="audio_index">1</property>
  <property name="video_index">0</property>
  <property name="mute_on_pause">1</property>
  <property name="mlt_service">avformat-novalidate</property>
  <property name="meta.media.nb_streams">2</property>
  <property name="meta.media.0.stream.type">video</property>
  <property name="meta.media.0.stream.frame_rate">29.9833</property>
  <property name="meta.media.0.stream.sample_aspect_ratio">0</property>
  <property name="meta.media.0.codec.width">848</property>
  <property name="meta.media.0.codec.height">480</property>
  <property name="meta.media.0.codec.rotate">0</property>
  <property name="meta.media.0.codec.frame_rate">600</property>
  <property name="meta.media.0.codec.pix_fmt">yuv420p</property>
  <property name="meta.media.0.codec.sample_aspect_ratio">0</property>
  <property name="meta.media.0.codec.colorspace">709</property>
  <property name="meta.media.0.codec.color_trc">1</property>
  <property name="meta.media.0.codec.name">h264</property>
  <property name="meta.media.0.codec.long_name">H.264 / AVC / MPEG-4 AVC / MPEG-4 part 10</property>
  <property name="meta.media.0.codec.bit_rate">1427854</property>
  <property name="meta.attr.0.stream.creation_time.markup">2017-04-07T17:20:53.000000Z</property>
  <property name="meta.attr.0.stream.handler_name.markup">Core Media Video</property>
  <property name="meta.media.1.stream.type">audio</property>
  <property name="meta.media.1.codec.sample_fmt">fltp</property>
  <property name="meta.media.1.codec.sample_rate">44100</property>
  <property name="meta.media.1.codec.channels">2</property>
  <property name="meta.media.1.codec.name">aac</property>
  <property name="meta.media.1.codec.long_name">AAC (Advanced Audio Coding)</property>
  <property name="meta.media.1.codec.bit_rate">63399</property>
  <property name="meta.attr.1.stream.creation_time.markup">2017-04-07T17:20:53.000000Z</property>
  <property name="meta.attr.1.stream.handler_name.markup">Core Media Audio</property>
  <property name="meta.attr.major_brand.markup">mp42</property>
  <property name="meta.attr.minor_version.markup">1</property>
  <property name="meta.attr.compatible_brands.markup">mp41mp42isom</property>
  <property name="meta.attr.creation_time.markup">2017-04-07T17:20:53.000000Z</property>
  <property name="seekable">1</property>
  <property name="meta.media.sample_aspect_num">1</property>
  <property name="meta.media.sample_aspect_den">1</property>
  <property name="aspect_ratio">1</property>
  <property name="kdenlive:clipname"/>
  <property name="meta.media.frame_rate_num">54000</property>
  <property name="meta.media.frame_rate_den">1801</property>
  <property name="meta.media.colorspace">709</property>
  <property name="meta.media.color_trc">1</property>
  <property name="meta.media.width">848</property>
  <property name="meta.media.height">480</property>
  <property name="kdenlive:id">57</property>
  <property name="kdenlive:file_size">5614372</property>
  <property name="kdenlive:file_hash">6f45d9428d5d2892a7da8ed6d93de755</property>
  <property name="kdenlive:folderid">-1</property>
  <property name="meta.media.top_field_first">0</property>
  <property name="meta.media.progressive">1</property>
  <property name="global_feed">1</property>
 </producer>
 <producer title="Anonymous Submission" id="producer48" in="00:00:00.000" out="00:00:10.760">
  <property name="length">270</property>
  <property name="eof">pause</property>
  <property name="resource">C:/Users/SERGEI/Pictures/Photo/2019/Phone/WhatsApp_Video/VID-20170909-WA0001.mp4</property>
  <property name="audio_index">-1</property>
  <property name="video_index">0</property>
  <property name="mute_on_pause">1</property>
  <property name="mlt_service">avformat-novalidate</property>
  <property name="meta.media.nb_streams">1</property>
  <property name="meta.media.0.stream.type">video</property>
  <property name="meta.media.0.stream.frame_rate">2.86772</property>
  <property name="meta.media.0.stream.sample_aspect_ratio">0</property>
  <property name="meta.media.0.codec.width">680</property>
  <property name="meta.media.0.codec.height">906</property>
  <property name="meta.media.0.codec.rotate">0</property>
  <property name="meta.media.0.codec.frame_rate">100</property>
  <property name="meta.media.0.codec.pix_fmt">yuv420p</property>
  <property name="meta.media.0.codec.sample_aspect_ratio">0</property>
  <property name="meta.media.0.codec.colorspace">601</property>
  <property name="meta.media.0.codec.name">h264</property>
  <property name="meta.media.0.codec.long_name">H.264 / AVC / MPEG-4 AVC / MPEG-4 part 10</property>
  <property name="meta.media.0.codec.bit_rate">3043453</property>
  <property name="meta.attr.0.stream.handler_name.markup">VideoHandler</property>
  <property name="meta.attr.major_brand.markup">isom</property>
  <property name="meta.attr.minor_version.markup">512</property>
  <property name="meta.attr.compatible_brands.markup">isomiso2avc1mp41</property>
  <property name="meta.attr.encoder.markup">Google</property>
  <property name="seekable">1</property>
  <property name="meta.media.sample_aspect_num">1</property>
  <property name="meta.media.sample_aspect_den">1</property>
  <property name="aspect_ratio">1</property>
  <property name="kdenlive:clipname"/>
  <property name="meta.media.frame_rate_num">3100</property>
  <property name="meta.media.frame_rate_den">1081</property>
  <property name="meta.media.colorspace">601</property>
  <property name="meta.media.color_trc">2</property>
  <property name="meta.media.width">680</property>
  <property name="meta.media.height">906</property>
  <property name="kdenlive:id">58</property>
  <property name="kdenlive:file_size">4113530</property>
  <property name="kdenlive:file_hash">fd6b28435ce44a372db3c476c8e1dae7</property>
  <property name="kdenlive:folderid">-1</property>
  <property name="meta.media.variable_frame_rate">1</property>
  <property name="meta.media.top_field_first">0</property>
  <property name="meta.media.progressive">1</property>
  <property name="global_feed">1</property>
 </producer>
 <producer title="Anonymous Submission" id="producer49" in="00:00:00.000" out="00:00:23.520">
  <property name="length">589</property>
  <property name="eof">pause</property>
  <property name="resource">C:/Users/SERGEI/Pictures/Photo/2019/Phone/WhatsApp_Video/VID-20181112-WA0022.mp4</property>
  <property name="audio_index">1</property>
  <property name="video_index">0</property>
  <property name="mute_on_pause">1</property>
  <property name="mlt_service">avformat-novalidate</property>
  <property name="meta.media.nb_streams">2</property>
  <property name="meta.media.0.stream.type">video</property>
  <property name="meta.media.0.stream.frame_rate">29.766</property>
  <property name="meta.media.0.stream.sample_aspect_ratio">0</property>
  <property name="meta.media.0.codec.width">720</property>
  <property name="meta.media.0.codec.height">1280</property>
  <property name="meta.media.0.codec.rotate">0</property>
  <property name="meta.media.0.codec.frame_rate">29.766</property>
  <property name="meta.media.0.codec.pix_fmt">yuv420p</property>
  <property name="meta.media.0.codec.sample_aspect_ratio">1</property>
  <property name="meta.media.0.codec.colorspace">709</property>
  <property name="meta.media.0.codec.color_trc">1</property>
  <property name="meta.media.0.codec.name">h264</property>
  <property name="meta.media.0.codec.long_name">H.264 / AVC / MPEG-4 AVC / MPEG-4 part 10</property>
  <property name="meta.media.0.codec.bit_rate">3604535</property>
  <property name="meta.attr.0.stream.handler_name.markup">VideoHandler</property>
  <property name="meta.media.1.stream.type">audio</property>
  <property name="meta.media.1.codec.sample_fmt">fltp</property>
  <property name="meta.media.1.codec.sample_rate">44100</property>
  <property name="meta.media.1.codec.channels">2</property>
  <property name="meta.media.1.codec.name">aac</property>
  <property name="meta.media.1.codec.long_name">AAC (Advanced Audio Coding)</property>
  <property name="meta.media.1.codec.bit_rate">128100</property>
  <property name="meta.attr.1.stream.creation_time.markup">2018-10-20T15:42:07.000000Z</property>
  <property name="meta.attr.1.stream.language.markup">eng</property>
  <property name="meta.attr.1.stream.handler_name.markup">IsoMedia File Produced by Google, 5-11-2011</property>
  <property name="meta.attr.major_brand.markup">mp42</property>
  <property name="meta.attr.minor_version.markup">0</property>
  <property name="meta.attr.compatible_brands.markup">isommp42</property>
  <property name="meta.attr.creation_time.markup">2018-10-20T11:50:08.000000Z</property>
  <property name="seekable">1</property>
  <property name="meta.media.sample_aspect_num">1</property>
  <property name="meta.media.sample_aspect_den">1</property>
  <property name="aspect_ratio">1</property>
  <property name="kdenlive:clipname"/>
  <property name="meta.media.frame_rate_num">14883</property>
  <property name="meta.media.frame_rate_den">500</property>
  <property name="meta.media.colorspace">709</property>
  <property name="meta.media.color_trc">1</property>
  <property name="meta.media.width">720</property>
  <property name="meta.media.height">1280</property>
  <property name="kdenlive:id">59</property>
  <property name="kdenlive:file_size">10981973</property>
  <property name="kdenlive:file_hash">58192a1545cd4d1b8fd045ded7913ed6</property>
  <property name="kdenlive:folderid">-1</property>
  <property name="meta.media.top_field_first">0</property>
  <property name="meta.media.progressive">1</property>
  <property name="global_feed">1</property>
 </producer>
 <producer title="Anonymous Submission" id="producer50" in="00:00:00.000" out="00:00:10.080">
  <property name="length">253</property>
  <property name="eof">pause</property>
  <property name="resource">C:/Users/SERGEI/Pictures/Photo/2019/Phone/WhatsApp_Video/VID-20181112-WA0031.mp4</property>
  <property name="audio_index">1</property>
  <property name="video_index">0</property>
  <property name="mute_on_pause">1</property>
  <property name="mlt_service">avformat-novalidate</property>
  <property name="meta.media.nb_streams">2</property>
  <property name="meta.media.0.stream.type">video</property>
  <property name="meta.media.0.stream.frame_rate">29.959</property>
  <property name="meta.media.0.stream.sample_aspect_ratio">0</property>
  <property name="meta.media.0.codec.width">352</property>
  <property name="meta.media.0.codec.height">640</property>
  <property name="meta.media.0.codec.rotate">0</property>
  <property name="meta.media.0.codec.frame_rate">29959</property>
  <property name="meta.media.0.codec.pix_fmt">yuv420p</property>
  <property name="meta.media.0.codec.sample_aspect_ratio">0</property>
  <property name="meta.media.0.codec.colorspace">601</property>
  <property name="meta.media.0.codec.name">h264</property>
  <property name="meta.media.0.codec.long_name">H.264 / AVC / MPEG-4 AVC / MPEG-4 part 10</property>
  <property name="meta.media.0.codec.bit_rate">1903624</property>
  <property name="meta.media.1.stream.type">audio</property>
  <property name="meta.media.1.codec.sample_fmt">fltp</property>
  <property name="meta.media.1.codec.sample_rate">44100</property>
  <property name="meta.media.1.codec.channels">2</property>
  <property name="meta.media.1.codec.name">aac</property>
  <property name="meta.media.1.codec.long_name">AAC (Advanced Audio Coding)</property>
  <property name="meta.media.1.codec.bit_rate">192333</property>
  <property name="meta.attr.major_brand.markup">mp42</property>
  <property name="meta.attr.minor_version.markup">0</property>
  <property name="meta.attr.compatible_brands.markup">mp42isom</property>
  <property name="seekable">1</property>
  <property name="meta.media.sample_aspect_num">1</property>
  <property name="meta.media.sample_aspect_den">1</property>
  <property name="aspect_ratio">1</property>
  <property name="kdenlive:clipname"/>
  <property name="meta.media.frame_rate_num">29959</property>
  <property name="meta.media.frame_rate_den">1000</property>
  <property name="meta.media.colorspace">601</property>
  <property name="meta.media.color_trc">2</property>
  <property name="meta.media.width">352</property>
  <property name="meta.media.height">640</property>
  <property name="kdenlive:id">60</property>
  <property name="kdenlive:file_size">2637935</property>
  <property name="kdenlive:file_hash">c11b51452e4e0afa1edcd2753ee809b9</property>
  <property name="kdenlive:folderid">-1</property>
  <property name="meta.media.top_field_first">0</property>
  <property name="meta.media.progressive">1</property>
  <property name="global_feed">1</property>
 </producer>
 <producer title="Anonymous Submission" id="producer51" in="00:00:00.000" out="00:00:20.640">
  <property name="length">517</property>
  <property name="eof">pause</property>
  <property name="resource">C:/Users/SERGEI/Pictures/Photo/2019/Phone/WhatsApp_Video/VID-20190309-WA0015.mp4</property>
  <property name="audio_index">1</property>
  <property name="video_index">0</property>
  <property name="mute_on_pause">1</property>
  <property name="mlt_service">avformat-novalidate</property>
  <property name="meta.media.nb_streams">2</property>
  <property name="meta.media.0.stream.type">video</property>
  <property name="meta.media.0.stream.frame_rate">30.0072</property>
  <property name="meta.media.0.stream.sample_aspect_ratio">0</property>
  <property name="meta.media.0.codec.width">480</property>
  <property name="meta.media.0.codec.height">848</property>
  <property name="meta.media.0.codec.rotate">0</property>
  <property name="meta.media.0.codec.frame_rate">600</property>
  <property name="meta.media.0.codec.pix_fmt">yuv420p</property>
  <property name="meta.media.0.codec.sample_aspect_ratio">0</property>
  <property name="meta.media.0.codec.colorspace">709</property>
  <property name="meta.media.0.codec.color_trc">1</property>
  <property name="meta.media.0.codec.name">h264</property>
  <property name="meta.media.0.codec.long_name">H.264 / AVC / MPEG-4 AVC / MPEG-4 part 10</property>
  <property name="meta.media.0.codec.bit_rate">1511920</property>
  <property name="meta.attr.0.stream.creation_time.markup">2019-03-09T16:18:50.000000Z</property>
  <property name="meta.attr.0.stream.handler_name.markup">Core Media Video</property>
  <property name="meta.media.1.stream.type">audio</property>
  <property name="meta.media.1.codec.sample_fmt">fltp</property>
  <property name="meta.media.1.codec.sample_rate">44100</property>
  <property name="meta.media.1.codec.channels">2</property>
  <property name="meta.media.1.codec.name">aac</property>
  <property name="meta.media.1.codec.long_name">AAC (Advanced Audio Coding)</property>
  <property name="meta.media.1.codec.bit_rate">62841</property>
  <property name="meta.attr.1.stream.creation_time.markup">2019-03-09T16:18:50.000000Z</property>
  <property name="meta.attr.1.stream.handler_name.markup">Core Media Audio</property>
  <property name="meta.attr.major_brand.markup">mp42</property>
  <property name="meta.attr.minor_version.markup">1</property>
  <property name="meta.attr.compatible_brands.markup">mp41mp42isom</property>
  <property name="meta.attr.creation_time.markup">2019-03-09T16:18:50.000000Z</property>
  <property name="seekable">1</property>
  <property name="meta.media.sample_aspect_num">1</property>
  <property name="meta.media.sample_aspect_den">1</property>
  <property name="aspect_ratio">1</property>
  <property name="kdenlive:clipname"/>
  <property name="meta.media.frame_rate_num">124200</property>
  <property name="meta.media.frame_rate_den">4139</property>
  <property name="meta.media.colorspace">709</property>
  <property name="meta.media.color_trc">1</property>
  <property name="meta.media.width">480</property>
  <property name="meta.media.height">848</property>
  <property name="kdenlive:id">61</property>
  <property name="kdenlive:file_size">4082937</property>
  <property name="kdenlive:file_hash">a18acf318848865960f4b9a066cbaf52</property>
  <property name="kdenlive:folderid">-1</property>
  <property name="meta.media.top_field_first">0</property>
  <property name="meta.media.progressive">1</property>
  <property name="global_feed">1</property>
 </producer>
 <producer title="Anonymous Submission" id="producer52" in="00:00:00.000" out="00:00:24.360">
  <property name="length">610</property>
  <property name="eof">pause</property>
  <property name="resource">C:/Users/SERGEI/Pictures/Photo/2019/Phone/WhatsApp_Video/VID-20190629-WA0017.mp4</property>
  <property name="audio_index">1</property>
  <property name="video_index">0</property>
  <property name="mute_on_pause">1</property>
  <property name="mlt_service">avformat-novalidate</property>
  <property name="meta.media.nb_streams">2</property>
  <property name="meta.media.0.stream.type">video</property>
  <property name="meta.media.0.stream.frame_rate">30.0061</property>
  <property name="meta.media.0.stream.sample_aspect_ratio">0</property>
  <property name="meta.media.0.codec.width">848</property>
  <property name="meta.media.0.codec.height">480</property>
  <property name="meta.media.0.codec.rotate">90</property>
  <property name="meta.media.0.codec.frame_rate">600</property>
  <property name="meta.media.0.codec.pix_fmt">yuv420p</property>
  <property name="meta.media.0.codec.sample_aspect_ratio">0</property>
  <property name="meta.media.0.codec.colorspace">709</property>
  <property name="meta.media.0.codec.color_trc">1</property>
  <property name="meta.media.0.codec.name">h264</property>
  <property name="meta.media.0.codec.long_name">H.264 / AVC / MPEG-4 AVC / MPEG-4 part 10</property>
  <property name="meta.media.0.codec.bit_rate">1485515</property>
  <property name="meta.attr.0.stream.rotate.markup">90</property>
  <property name="meta.attr.0.stream.creation_time.markup">2019-06-29T19:16:02.000000Z</property>
  <property name="meta.attr.0.stream.handler_name.markup">Core Media Video</property>
  <property name="meta.media.1.stream.type">audio</property>
  <property name="meta.media.1.codec.sample_fmt">fltp</property>
  <property name="meta.media.1.codec.sample_rate">44100</property>
  <property name="meta.media.1.codec.channels">2</property>
  <property name="meta.media.1.codec.name">aac</property>
  <property name="meta.media.1.codec.long_name">AAC (Advanced Audio Coding)</property>
  <property name="meta.media.1.codec.bit_rate">62859</property>
  <property name="meta.attr.1.stream.creation_time.markup">2019-06-29T19:16:02.000000Z</property>
  <property name="meta.attr.1.stream.handler_name.markup">Core Media Audio</property>
  <property name="meta.attr.major_brand.markup">mp42</property>
  <property name="meta.attr.minor_version.markup">1</property>
  <property name="meta.attr.compatible_brands.markup">mp41mp42isom</property>
  <property name="meta.attr.creation_time.markup">2019-06-29T19:16:02.000000Z</property>
  <property name="seekable">1</property>
  <property name="meta.media.sample_aspect_num">1</property>
  <property name="meta.media.sample_aspect_den">1</property>
  <property name="aspect_ratio">1</property>
  <property name="kdenlive:clipname"/>
  <property name="meta.media.frame_rate_num">146400</property>
  <property name="meta.media.frame_rate_den">4879</property>
  <property name="meta.media.colorspace">709</property>
  <property name="meta.media.color_trc">1</property>
  <property name="meta.media.width">480</property>
  <property name="meta.media.height">848</property>
  <property name="kdenlive:id">62</property>
  <property name="kdenlive:file_size">4732061</property>
  <property name="kdenlive:file_hash">b17f144b3d547eec9f060f994ecdafba</property>
  <property name="kdenlive:folderid">-1</property>
  <property name="meta.media.top_field_first">0</property>
  <property name="meta.media.progressive">1</property>
  <property name="global_feed">1</property>
 </producer>
 <producer id="producer53" in="00:00:00.000" out="00:00:04.960">
  <property name="length">00:00:05.000</property>
  <property name="eof">pause</property>
  <property name="resource">C:/Users/SERGEI/Pictures/Photo/2019/Elika_Mia/20170928_203348.jpg</property>
  <property name="ttl">25</property>
  <property name="aspect_ratio">1</property>
  <property name="progressive">1</property>
  <property name="seekable">1</property>
  <property name="meta.media.width">1231</property>
  <property name="meta.media.height">692</property>
  <property name="mlt_service">qimage</property>
  <property name="kdenlive:clipname"/>
  <property name="kdenlive:duration">00:00:05.000</property>
  <property name="kdenlive:id">63</property>
  <property name="kdenlive:file_size">136364</property>
  <property name="kdenlive:file_hash">ec70d0316a5c952ca21a5d350ef5cc8e</property>
  <property name="kdenlive:folderid">-1</property>
 </producer>
 <producer id="producer54" in="00:00:00.000" out="00:00:20.000">
  <property name="length">501</property>
  <property name="eof">pause</property>
  <property name="resource">C:/Users/SERGEI/Pictures/Photo/2019/Elika_Mia/1607_ZK_04000-removebg-preview.png</property>
  <property name="ttl">25</property>
  <property name="aspect_ratio">1</property>
  <property name="progressive">1</property>
  <property name="seekable">1</property>
  <property name="meta.media.width">408</property>
  <property name="meta.media.height">613</property>
  <property name="mlt_service">qimage</property>
  <property name="kdenlive:clipname"/>
  <property name="kdenlive:duration">00:00:05.000</property>
  <property name="kdenlive:id">4</property>
  <property name="kdenlive:file_size">171405</property>
  <property name="kdenlive:file_hash">7ecb784018676851bf03b90b56f259e0</property>
  <property name="kdenlive:folderid">-1</property>
 </producer>
 <producer id="producer55" in="00:00:00.000" out="00:00:20.000">
  <property name="length">501</property>
  <property name="eof">pause</property>
  <property name="resource">C:/Users/SERGEI/Pictures/Photo/2019/Elika_Mia/IMG-20180617-WA0013 (2).jpg</property>
  <property name="ttl">25</property>
  <property name="aspect_ratio">1</property>
  <property name="progressive">1</property>
  <property name="seekable">1</property>
  <property name="meta.media.width">385</property>
  <property name="meta.media.height">537</property>
  <property name="mlt_service">qimage</property>
  <property name="kdenlive:clipname"/>
  <property name="kdenlive:duration">00:00:05.000</property>
  <property name="kdenlive:id">5</property>
  <property name="kdenlive:file_size">71502</property>
  <property name="kdenlive:file_hash">80ce1921edcc6db6f79b0c17023619d8</property>
  <property name="kdenlive:folderid">-1</property>
 </producer>
 <producer id="producer56" in="00:00:00.000" out="00:00:20.000">
  <property name="length">501</property>
  <property name="eof">pause</property>
  <property name="resource">C:/Users/SERGEI/Pictures/Photo/2019/Elika_Mia/IMG-20180617-WA0013__2_-removebg-preview.png</property>
  <property name="ttl">25</property>
  <property name="aspect_ratio">1</property>
  <property name="progressive">1</property>
  <property name="seekable">1</property>
  <property name="meta.media.width">385</property>
  <property name="meta.media.height">537</property>
  <property name="mlt_service">qimage</property>
  <property name="kdenlive:clipname"/>
  <property name="kdenlive:duration">00:00:05.000</property>
  <property name="kdenlive:id">6</property>
  <property name="kdenlive:file_size">179918</property>
  <property name="kdenlive:file_hash">60d440f55fcacf41b7217d9491ce2ce2</property>
  <property name="kdenlive:folderid">-1</property>
 </producer>
 <producer id="producer57" in="00:00:00.000" out="00:00:20.000">
  <property name="length">501</property>
  <property name="eof">pause</property>
  <property name="resource">C:/Users/SERGEI/Pictures/Photo/2019/Elika_Mia/IMG-20180617-WA0013__2_-removebg-p.png</property>
  <property name="ttl">25</property>
  <property name="aspect_ratio">1</property>
  <property name="progressive">1</property>
  <property name="seekable">1</property>
  <property name="meta.media.width">385</property>
  <property name="meta.media.height">537</property>
  <property name="mlt_service">qimage</property>
  <property name="kdenlive:clipname"/>
  <property name="kdenlive:duration">00:00:05.000</property>
  <property name="kdenlive:id">7</property>
  <property name="kdenlive:file_size">184419</property>
  <property name="kdenlive:file_hash">062ceaa482e9a263f5e205f47d8a8701</property>
  <property name="kdenlive:folderid">-1</property>
 </producer>
 <producer id="producer58" in="00:00:00.000" out="00:00:20.480">
  <property name="length">513</property>
  <property name="eof">pause</property>
  <property name="resource">C:/Users/SERGEI/Pictures/Photo/2019/Elika_Mia/gaugan_output_1.jpg</property>
  <property name="ttl">25</property>
  <property name="aspect_ratio">1</property>
  <property name="progressive">1</property>
  <property name="seekable">1</property>
  <property name="meta.media.width">512</property>
  <property name="meta.media.height">512</property>
  <property name="mlt_service">qimage</property>
  <property name="kdenlive:clipname"/>
  <property name="kdenlive:duration">00:00:05.000</property>
  <property name="kdenlive:id">8</property>
  <property name="kdenlive:file_size">40635</property>
  <property name="kdenlive:file_hash">6e858f2ff3e563398dd92e732631bf7b</property>
  <property name="kdenlive:folderid">-1</property>
 </producer>
 <producer title="Anonymous Submission" id="producer59" in="00:00:00.000" out="00:01:16.600">
  <property name="length">1916</property>
  <property name="eof">pause</property>
  <property name="resource">C:/Users/SERGEI/Pictures/Photo/2019/Elika_Mia/gaugan_output_2.jpg</property>
  <property name="ttl">25</property>
  <property name="aspect_ratio">1</property>
  <property name="progressive">1</property>
  <property name="seekable">1</property>
  <property name="meta.media.width">512</property>
  <property name="meta.media.height">512</property>
  <property name="mlt_service">qimage</property>
  <property name="kdenlive:clipname"/>
  <property name="kdenlive:duration">00:00:05.000</property>
  <property name="kdenlive:id">10</property>
  <property name="kdenlive:file_size">126963</property>
  <property name="kdenlive:file_hash">33115e0fc9bf41d8f11a90a39f287e73</property>
  <property name="kdenlive:folderid">-1</property>
  <property name="kdenlive:zone_in">0</property>
  <property name="kdenlive:zone_out">305</property>
  <property name="global_feed">1</property>
 </producer>
 <producer id="producer60" in="00:00:00.000" out="00:00:28.560">
  <property name="length">715</property>
  <property name="eof">pause</property>
  <property name="resource">C:/Users/SERGEI/Pictures/Photo/2019/Elika_Mia/gaugan_output_3.jpg</property>
  <property name="ttl">25</property>
  <property name="aspect_ratio">1</property>
  <property name="progressive">1</property>
  <property name="seekable">1</property>
  <property name="meta.media.width">512</property>
  <property name="meta.media.height">512</property>
  <property name="mlt_service">qimage</property>
  <property name="kdenlive:clipname"/>
  <property name="kdenlive:duration">00:00:05.000</property>
  <property name="kdenlive:id">47</property>
  <property name="kdenlive:file_size">140402</property>
  <property name="kdenlive:file_hash">1455febdcb1f961bb16bdc0599492283</property>
  <property name="kdenlive:folderid">-1</property>
 </producer>
 <producer id="producer61" in="00:00:00.000" out="00:00:10.880">
  <property name="length">273</property>
  <property name="eof">pause</property>
  <property name="resource">C:/Users/SERGEI/Pictures/Photo/2019/Elika_Mia/gaugan_output_4.jpg</property>
  <property name="ttl">25</property>
  <property name="aspect_ratio">1</property>
  <property name="progressive">1</property>
  <property name="seekable">1</property>
  <property name="meta.media.width">512</property>
  <property name="meta.media.height">512</property>
  <property name="mlt_service">qimage</property>
  <property name="kdenlive:clipname"/>
  <property name="kdenlive:duration">00:00:05.000</property>
  <property name="kdenlive:id">56</property>
  <property name="kdenlive:file_size">80551</property>
  <property name="kdenlive:file_hash">587bcd7beb49002fd92011076766a76a</property>
  <property name="kdenlive:folderid">-1</property>
 </producer>
 <producer id="producer62" in="00:00:00.000" out="00:00:04.960">
  <property name="length">00:00:05.000</property>
  <property name="eof">pause</property>
  <property name="resource">C:/Users/SERGEI/Pictures/Photo/2019/Elika_Mia/gaugan_output_5.jpg</property>
  <property name="ttl">25</property>
  <property name="aspect_ratio">1</property>
  <property name="progressive">1</property>
  <property name="seekable">1</property>
  <property name="meta.media.width">512</property>
  <property name="meta.media.height">512</property>
  <property name="mlt_service">qimage</property>
  <property name="kdenlive:clipname"/>
  <property name="kdenlive:duration">00:00:05.000</property>
  <property name="kdenlive:id">64</property>
  <property name="kdenlive:file_size">124929</property>
  <property name="kdenlive:file_hash">2acd357d471a470e5205495e9e011b7a</property>
  <property name="kdenlive:folderid">-1</property>
 </producer>
 <producer id="producer63" in="00:00:00.000" out="00:00:20.000">
  <property name="length">501</property>
  <property name="eof">pause</property>
  <property name="resource">C:/Users/SERGEI/Pictures/Photo/2019/Elika_Mia/gaugan_output_6.jpg</property>
  <property name="ttl">25</property>
  <property name="aspect_ratio">1</property>
  <property name="progressive">1</property>
  <property name="seekable">1</property>
  <property name="meta.media.width">512</property>
  <property name="meta.media.height">512</property>
  <property name="mlt_service">qimage</property>
  <property name="kdenlive:clipname"/>
  <property name="kdenlive:duration">00:00:05.000</property>
  <property name="kdenlive:id">65</property>
  <property name="kdenlive:file_size">51840</property>
  <property name="kdenlive:file_hash">a8864881635c321a016c26b735cd03ff</property>
  <property name="kdenlive:folderid">-1</property>
 </producer>
 <playlist id="main_bin">
  <property name="kdenlive:docproperties.activeTrack">3</property>
  <property name="kdenlive:docproperties.audioTarget">4</property>
  <property name="kdenlive:docproperties.decimalPoint">.</property>
  <property name="kdenlive:docproperties.disablepreview">0</property>
  <property name="kdenlive:docproperties.documentid">1570275597082</property>
  <property name="kdenlive:docproperties.enableTimelineZone">0</property>
  <property name="kdenlive:docproperties.enableexternalproxy">0</property>
  <property name="kdenlive:docproperties.enableproxy">0</property>
  <property name="kdenlive:docproperties.externalproxyparams"/>
  <property name="kdenlive:docproperties.generateimageproxy">0</property>
  <property name="kdenlive:docproperties.generateproxy">0</property>
  <property name="kdenlive:docproperties.groups">[
]
</property>
  <property name="kdenlive:docproperties.kdenliveversion">19.04.2</property>
  <property name="kdenlive:docproperties.position">1276</property>
  <property name="kdenlive:docproperties.previewextension"/>
  <property name="kdenlive:docproperties.previewparameters"/>
  <property name="kdenlive:docproperties.profile">atsc_1080p_25</property>
  <property name="kdenlive:docproperties.proxyextension">mkv</property>
  <property name="kdenlive:docproperties.proxyimageminsize">2000</property>
  <property name="kdenlive:docproperties.proxyimagesize">800</property>
  <property name="kdenlive:docproperties.proxyminsize">1000</property>
  <property name="kdenlive:docproperties.proxyparams">-vf yadif,scale=960:-2 -qscale 3 -vcodec mjpeg -acodec pcm_s16le</property>
  <property name="kdenlive:docproperties.scrollPos">0</property>
  <property name="kdenlive:docproperties.seekOffset">30000</property>
  <property name="kdenlive:docproperties.version">0.98</property>
  <property name="kdenlive:docproperties.verticalzoom">1</property>
  <property name="kdenlive:docproperties.videoTarget">-1</property>
  <property name="kdenlive:docproperties.zonein">0</property>
  <property name="kdenlive:docproperties.zoneout">75</property>
  <property name="kdenlive:docproperties.zoom">11</property>
  <property name="kdenlive:documentnotes"/>
  <property name="xml_retain">1</property>
  <entry producer="producer0" in="00:00:00.000" out="00:03:29.480"/>
  <entry producer="producer1" in="00:00:00.000" out="00:00:25.160"/>
  <entry producer="producer2" in="00:00:00.000" out="00:00:19.960"/>
  <entry producer="producer3" in="00:00:00.000" out="00:00:13.280"/>
  <entry producer="producer4" in="00:00:00.000" out="00:03:36.640"/>
  <entry producer="producer5" in="00:00:00.000" out="00:00:15.000"/>
  <entry producer="producer6" in="00:00:00.000" out="00:00:08.960"/>
  <entry producer="producer7" in="00:00:00.000" out="00:00:08.960"/>
  <entry producer="producer8" in="00:00:00.000" out="00:00:11.960"/>
  <entry producer="producer9" in="00:00:00.000" out="00:00:18.600"/>
  <entry producer="producer10" in="00:00:00.000" out="00:00:10.480"/>
  <entry producer="producer11" in="00:00:00.000" out="00:00:11.720"/>
  <entry producer="producer12" in="00:00:00.000" out="00:00:12.320"/>
  <entry producer="producer13" in="00:00:00.000" out="00:00:11.320"/>
  <entry producer="producer14" in="00:00:00.000" out="00:00:04.960"/>
  <entry producer="producer15" in="00:00:00.000" out="00:00:04.960"/>
  <entry producer="producer16" in="00:00:00.000" out="00:00:04.960"/>
  <entry producer="producer17" in="00:00:00.000" out="00:00:06.920"/>
  <entry producer="producer18" in="00:00:00.000" out="00:00:06.520"/>
  <entry producer="producer19" in="00:00:00.000" out="00:00:04.960"/>
  <entry producer="producer20" in="00:00:00.000" out="00:00:04.960"/>
  <entry producer="producer21" in="00:00:00.000" out="00:00:04.960"/>
  <entry producer="producer22" in="00:00:00.000" out="00:00:04.960"/>
  <entry producer="producer23" in="00:00:00.000" out="00:00:04.960"/>
  <entry producer="producer24" in="00:00:00.000" out="00:00:04.960"/>
  <entry producer="producer25" in="00:00:00.000" out="00:00:04.960"/>
  <entry producer="producer26" in="00:00:00.000" out="00:00:04.960"/>
  <entry producer="producer27" in="00:00:00.000" out="00:00:04.960"/>
  <entry producer="producer28" in="00:00:00.000" out="00:00:06.720"/>
  <entry producer="producer29" in="00:00:00.000" out="00:00:04.960"/>
  <entry producer="producer30" in="00:00:00.000" out="00:00:04.960"/>
  <entry producer="producer31" in="00:00:00.000" out="00:00:04.960"/>
  <entry producer="producer32" in="00:00:00.000" out="00:00:13.000"/>
  <entry producer="producer33" in="00:00:00.000" out="00:00:04.960"/>
  <entry producer="producer34" in="00:00:00.000" out="00:00:04.960"/>
  <entry producer="producer35" in="00:00:00.000" out="00:00:05.800"/>
  <entry producer="producer36" in="00:00:00.000" out="00:00:04.960"/>
  <entry producer="producer37" in="00:00:00.000" out="00:00:38.800"/>
  <entry producer="producer38" in="00:00:00.000" out="00:00:34.040"/>
  <entry producer="producer39" in="00:00:00.000" out="00:00:10.800"/>
  <entry producer="producer40" in="00:00:00.000" out="00:00:08.320"/>
  <entry producer="producer41" in="00:00:00.000" out="00:01:03.520"/>
  <entry producer="producer42" in="00:00:00.000" out="00:00:04.960"/>
  <entry producer="producer43" in="00:00:00.000" out="00:00:04.960"/>
  <entry producer="producer44" in="00:00:00.000" out="00:00:05.360"/>
  <entry producer="producer45" in="00:00:00.000" out="00:00:04.960"/>
  <entry producer="producer46" in="00:00:00.000" out="00:00:04.960"/>
  <entry producer="producer47" in="00:00:00.000" out="00:00:29.960"/>
  <entry producer="producer48" in="00:00:00.000" out="00:00:10.760"/>
  <entry producer="producer49" in="00:00:00.000" out="00:00:23.520"/>
  <entry producer="producer50" in="00:00:00.000" out="00:00:10.080"/>
  <entry producer="producer51" in="00:00:00.000" out="00:00:20.640"/>
  <entry producer="producer52" in="00:00:00.000" out="00:00:24.360"/>
  <entry producer="producer53" in="00:00:00.000" out="00:00:04.960"/>
  <entry producer="producer54" in="00:00:00.000" out="00:00:04.960"/>
  <entry producer="producer55" in="00:00:00.000" out="00:00:04.960"/>
  <entry producer="producer56" in="00:00:00.000" out="00:00:04.960"/>
  <entry producer="producer57" in="00:00:00.000" out="00:00:04.960"/>
  <entry producer="producer58" in="00:00:00.000" out="00:00:04.960"/>
  <entry producer="producer59" in="00:00:00.000" out="00:00:04.960"/>
  <entry producer="producer60" in="00:00:00.000" out="00:00:04.960"/>
  <entry producer="producer61" in="00:00:00.000" out="00:00:04.960"/>
  <entry producer="producer62" in="00:00:00.000" out="00:00:04.960"/>
  <entry producer="producer63" in="00:00:00.000" out="00:00:04.960"/>
 </playlist>
 <producer id="black_track" in="00:00:00.000" out="00:23:26.520">
  <property name="length">2147483647</property>
  <property name="eof">continue</property>
  <property name="resource">black</property>
  <property name="aspect_ratio">1</property>
  <property name="mlt_service">color</property>
  <property name="set.test_audio">0</property>
 </producer>
 <playlist id="playlist0">
  <entry producer="producer58" in="00:00:00.000" out="00:00:20.000">
   <property name="kdenlive:id">8</property>
   <property name="kdenlive:activeeffect">0</property>
   <filter id="filter0">
    <property name="rotate_center">1</property>
    <property name="mlt_service">qtblend</property>
    <property name="kdenlive_id">qtblend</property>
    <property name="rect">00:00:00.000=-528 -297 2976 1674 1</property>
    <property name="rotation">00:00:00.000=0</property>
    <property name="compositing">0</property>
    <property name="distort">0</property>
    <property name="kdenlive:collapsed">0</property>
   </filter>
  </entry>
  <entry producer="producer59" in="00:00:00.000" out="00:00:12.160">
   <property name="kdenlive:id">10</property>
   <property name="kdenlive:activeeffect">0</property>
   <filter id="filter1">
    <property name="rotate_center">1</property>
    <property name="mlt_service">qtblend</property>
    <property name="kdenlive_id">qtblend</property>
    <property name="rect">00:00:00.000=0 0 1920 1946 1</property>
    <property name="rotation">00:00:00.000=0</property>
    <property name="compositing">0</property>
    <property name="distort">0</property>
    <property name="kdenlive:collapsed">0</property>
   </filter>
  </entry>
  <entry producer="producer60" in="00:00:00.000" out="00:00:28.560">
   <property name="kdenlive:id">47</property>
   <property name="kdenlive:activeeffect">0</property>
   <filter id="filter2">
    <property name="rotate_center">1</property>
    <property name="mlt_service">qtblend</property>
    <property name="kdenlive_id">qtblend</property>
    <property name="rect">00:00:00.000=0 0 1920 1898 1</property>
    <property name="rotation">00:00:00.000=0</property>
    <property name="compositing">0</property>
    <property name="distort">0</property>
    <property name="kdenlive:collapsed">0</property>
   </filter>
  </entry>
  <entry producer="producer61" in="00:00:00.000" out="00:00:10.160">
   <property name="kdenlive:id">56</property>
   <property name="kdenlive:activeeffect">0</property>
   <filter id="filter3">
    <property name="rotate_center">1</property>
    <property name="mlt_service">qtblend</property>
    <property name="kdenlive_id">qtblend</property>
    <property name="rect">00:00:00.000=0 0 1920 1960 1</property>
    <property name="rotation">00:00:00.000=0</property>
    <property name="compositing">0</property>
    <property name="distort">0</property>
    <property name="kdenlive:collapsed">0</property>
   </filter>
  </entry>
  <entry producer="producer58" in="00:00:00.000" out="00:00:15.080">
   <property name="kdenlive:id">8</property>
   <property name="kdenlive:activeeffect">0</property>
   <filter id="filter4">
    <property name="rotate_center">1</property>
    <property name="mlt_service">qtblend</property>
    <property name="kdenlive_id">qtblend</property>
    <property name="rect">00:00:00.000=-966 -543 3852 2167 1</property>
    <property name="rotation">00:00:00.000=0</property>
    <property name="compositing">0</property>
    <property name="distort">0</property>
    <property name="kdenlive:collapsed">0</property>
   </filter>
  </entry>
  <entry producer="producer59" in="00:00:00.000" out="00:00:05.360">
   <property name="kdenlive:id">10</property>
   <filter id="filter5">
    <property name="rotate_center">1</property>
    <property name="mlt_service">qtblend</property>
    <property name="kdenlive_id">qtblend</property>
    <property name="rect">00:00:00.000=0 0 1920 1946 1</property>
    <property name="rotation">00:00:00.000=0</property>
    <property name="compositing">0</property>
    <property name="distort">0</property>
    <property name="kdenlive:collapsed">0</property>
   </filter>
  </entry>
  <entry producer="producer62" in="00:00:00.000" out="00:00:04.960">
   <property name="kdenlive:id">64</property>
   <filter id="filter6">
    <property name="rotate_center">1</property>
    <property name="mlt_service">qtblend</property>
    <property name="kdenlive_id">qtblend</property>
    <property name="rect">00:00:00.000=-1440 -810 4800 2700 1</property>
    <property name="rotation">00:00:00.000=0</property>
    <property name="compositing">0</property>
    <property name="distort">0</property>
    <property name="kdenlive:collapsed">0</property>
   </filter>
  </entry>
  <entry producer="producer4" in="00:00:00.000" out="00:00:33.280">
   <property name="kdenlive:id">12</property>
   <property name="kdenlive:activeeffect">0</property>
   <filter id="filter7">
    <property name="rotate_center">1</property>
    <property name="mlt_service">qtblend</property>
    <property name="kdenlive_id">qtblend</property>
    <property name="rect">00:00:00.000=-384 -216 2688 1512 1</property>
    <property name="rotation">00:00:00.000=0</property>
    <property name="compositing">0</property>
    <property name="distort">0</property>
    <property name="kdenlive:collapsed">0</property>
   </filter>
  </entry>
  <entry producer="producer60" in="00:00:00.000" out="00:00:04.960">
   <property name="kdenlive:id">47</property>
   <filter id="filter8">
    <property name="rotate_center">1</property>
    <property name="mlt_service">qtblend</property>
    <property name="kdenlive_id">qtblend</property>
    <property name="rect">00:00:00.000=0 0 1920 1920 1</property>
    <property name="rotation">00:00:00.000=0</property>
    <property name="compositing">0</property>
    <property name="distort">0</property>
    <property name="kdenlive:collapsed">0</property>
   </filter>
  </entry>
  <entry producer="producer59" in="00:00:00.000" out="00:01:11.600">
   <property name="kdenlive:id">10</property>
   <property name="kdenlive:activeeffect">0</property>
   <filter id="filter9">
    <property name="rotate_center">1</property>
    <property name="mlt_service">qtblend</property>
    <property name="kdenlive_id">qtblend</property>
    <property name="rect">00:00:00.000=0 0 1920 1920 1</property>
    <property name="rotation">00:00:00.000=0</property>
    <property name="compositing">0</property>
    <property name="distort">0</property>
    <property name="kdenlive:collapsed">0</property>
   </filter>
  </entry>
 </playlist>
 <playlist id="playlist1"/>
 <tractor id="tractor0" in="00:00:00.000" out="00:03:26.480">
  <property name="kdenlive:trackheight">56</property>
  <property name="kdenlive:collapsed">0</property>
  <property name="kdenlive:thumbs_format"/>
  <property name="kdenlive:audio_rec"/>
  <track hide="audio" producer="playlist0"/>
  <track hide="audio" producer="playlist1"/>
 </tractor>
 <playlist id="playlist2">
  <entry producer="producer63" in="00:00:00.000" out="00:00:20.000">
   <property name="kdenlive:id">65</property>
   <property name="kdenlive:activeeffect">0</property>
   <filter id="filter10">
    <property name="rotate_center">1</property>
    <property name="mlt_service">qtblend</property>
    <property name="kdenlive_id">qtblend</property>
    <property name="rect">00:00:00.000=0 -415 1920 1910 1</property>
    <property name="rotation">00:00:00.000=0</property>
    <property name="compositing">0</property>
    <property name="distort">0</property>
    <property name="kdenlive:collapsed">0</property>
   </filter>
  </entry>
 </playlist>
 <playlist id="playlist3"/>
 <tractor id="tractor1" in="00:00:00.000" out="00:00:20.000">
  <property name="kdenlive:trackheight">56</property>
  <track producer="playlist2"/>
  <track producer="playlist3"/>
 </tractor>
 <producer title="Anonymous Submission" id="producer64" in="00:00:00.000" out="00:00:38.800">
  <property name="length">971</property>
  <property name="eof">pause</property>
  <property name="resource">C:/Users/SERGEI/Pictures/Photo/2019/Phone/WhatsApp_Video/VID-20190627-WA0002.mp4</property>
  <property name="audio_index">1</property>
  <property name="video_index">0</property>
  <property name="mute_on_pause">1</property>
  <property name="mlt_service">avformat-novalidate</property>
  <property name="seekable">1</property>
  <property name="aspect_ratio">1</property>
  <property name="kdenlive:clipname"/>
  <property name="kdenlive:id">45</property>
  <property name="kdenlive:file_size">8808136</property>
  <property name="kdenlive:file_hash">88a8b22cdc3a1687bfbe147309b57ade</property>
  <property name="kdenlive:folderid">-1</property>
  <property name="global_feed">1</property>
  <property name="xml">was here</property>
  <property name="meta.media.nb_streams">2</property>
  <property name="meta.media.0.stream.type">video</property>
  <property name="meta.media.0.stream.frame_rate">30.024</property>
  <property name="meta.media.0.stream.sample_aspect_ratio">0</property>
  <property name="meta.media.0.codec.width">640</property>
  <property name="meta.media.0.codec.height">352</property>
  <property name="meta.media.0.codec.rotate">90</property>
  <property name="meta.media.0.codec.frame_rate">30024</property>
  <property name="meta.media.0.codec.pix_fmt">yuv420p</property>
  <property name="meta.media.0.codec.sample_aspect_ratio">0</property>
  <property name="meta.media.0.codec.colorspace">601</property>
  <property name="meta.media.0.codec.name">h264</property>
  <property name="meta.media.0.codec.long_name">H.264 / AVC / MPEG-4 AVC / MPEG-4 part 10</property>
  <property name="meta.media.0.codec.bit_rate">1525201</property>
  <property name="meta.attr.0.stream.rotate.markup">90</property>
  <property name="meta.media.1.stream.type">audio</property>
  <property name="meta.media.1.codec.sample_fmt">fltp</property>
  <property name="meta.media.1.codec.sample_rate">48000</property>
  <property name="meta.media.1.codec.channels">2</property>
  <property name="meta.media.1.codec.name">aac</property>
  <property name="meta.media.1.codec.long_name">AAC (Advanced Audio Coding)</property>
  <property name="meta.media.1.codec.bit_rate">286968</property>
  <property name="meta.attr.major_brand.markup">mp42</property>
  <property name="meta.attr.minor_version.markup">0</property>
  <property name="meta.attr.compatible_brands.markup">mp42isom</property>
  <property name="meta.media.sample_aspect_num">1</property>
  <property name="meta.media.sample_aspect_den">1</property>
  <property name="meta.media.frame_rate_num">3753</property>
  <property name="meta.media.frame_rate_den">125</property>
  <property name="meta.media.colorspace">601</property>
  <property name="meta.media.color_trc">2</property>
  <property name="meta.media.width">352</property>
  <property name="meta.media.height">640</property>
  <property name="meta.media.top_field_first">0</property>
  <property name="meta.media.progressive">1</property>
  <property name="set.test_audio">1</property>
  <property name="set.test_image">0</property>
 </producer>
 <producer title="Anonymous Submission" id="producer65" in="00:00:00.000" out="00:01:03.520">
  <property name="length">1589</property>
  <property name="eof">pause</property>
  <property name="resource">C:/Users/SERGEI/Pictures/Photo/2019/Phone/WhatsApp_Video/VID-20181110-WA0000.mp4</property>
  <property name="audio_index">1</property>
  <property name="video_index">0</property>
  <property name="mute_on_pause">1</property>
  <property name="mlt_service">avformat-novalidate</property>
  <property name="seekable">1</property>
  <property name="aspect_ratio">1</property>
  <property name="kdenlive:clipname"/>
  <property name="kdenlive:id">50</property>
  <property name="kdenlive:file_size">11075231</property>
  <property name="kdenlive:file_hash">c4f2ec73db844ae7bd9a21658a89830d</property>
  <property name="kdenlive:folderid">-1</property>
  <property name="global_feed">1</property>
  <property name="xml">was here</property>
  <property name="meta.media.nb_streams">2</property>
  <property name="meta.media.0.stream.type">video</property>
  <property name="meta.media.0.stream.frame_rate">29.9961</property>
  <property name="meta.media.0.stream.sample_aspect_ratio">0</property>
  <property name="meta.media.0.codec.width">848</property>
  <property name="meta.media.0.codec.height">480</property>
  <property name="meta.media.0.codec.rotate">0</property>
  <property name="meta.media.0.codec.frame_rate">600</property>
  <property name="meta.media.0.codec.pix_fmt">yuv420p</property>
  <property name="meta.media.0.codec.sample_aspect_ratio">0</property>
  <property name="meta.media.0.codec.colorspace">709</property>
  <property name="meta.media.0.codec.color_trc">1</property>
  <property name="meta.media.0.codec.name">h264</property>
  <property name="meta.media.0.codec.long_name">H.264 / AVC / MPEG-4 AVC / MPEG-4 part 10</property>
  <property name="meta.media.0.codec.bit_rate">1328886</property>
  <property name="meta.attr.0.stream.creation_time.markup">2018-11-10T11:16:47.000000Z</property>
  <property name="meta.attr.0.stream.handler_name.markup">Core Media Video</property>
  <property name="meta.media.1.stream.type">audio</property>
  <property name="meta.media.1.codec.sample_fmt">fltp</property>
  <property name="meta.media.1.codec.sample_rate">44100</property>
  <property name="meta.media.1.codec.channels">2</property>
  <property name="meta.media.1.codec.name">aac</property>
  <property name="meta.media.1.codec.long_name">AAC (Advanced Audio Coding)</property>
  <property name="meta.media.1.codec.bit_rate">61688</property>
  <property name="meta.attr.1.stream.creation_time.markup">2018-11-10T11:16:47.000000Z</property>
  <property name="meta.attr.1.stream.handler_name.markup">Core Media Audio</property>
  <property name="meta.attr.major_brand.markup">mp42</property>
  <property name="meta.attr.minor_version.markup">1</property>
  <property name="meta.attr.compatible_brands.markup">mp41mp42isom</property>
  <property name="meta.attr.creation_time.markup">2018-11-10T11:16:47.000000Z</property>
  <property name="meta.media.sample_aspect_num">1</property>
  <property name="meta.media.sample_aspect_den">1</property>
  <property name="meta.media.frame_rate_num">76280</property>
  <property name="meta.media.frame_rate_den">2543</property>
  <property name="meta.media.colorspace">709</property>
  <property name="meta.media.color_trc">1</property>
  <property name="meta.media.width">848</property>
  <property name="meta.media.height">480</property>
  <property name="meta.media.top_field_first">0</property>
  <property name="meta.media.progressive">1</property>
  <property name="set.test_audio">1</property>
  <property name="set.test_image">0</property>
 </producer>
 <producer title="Anonymous Submission" id="producer66" in="00:00:00.000" out="00:00:10.080">
  <property name="length">253</property>
  <property name="eof">pause</property>
  <property name="resource">C:/Users/SERGEI/Pictures/Photo/2019/Phone/WhatsApp_Video/VID-20181112-WA0031.mp4</property>
  <property name="audio_index">1</property>
  <property name="video_index">0</property>
  <property name="mute_on_pause">1</property>
  <property name="mlt_service">avformat-novalidate</property>
  <property name="seekable">1</property>
  <property name="aspect_ratio">1</property>
  <property name="kdenlive:clipname"/>
  <property name="kdenlive:id">60</property>
  <property name="kdenlive:file_size">2637935</property>
  <property name="kdenlive:file_hash">c11b51452e4e0afa1edcd2753ee809b9</property>
  <property name="kdenlive:folderid">-1</property>
  <property name="global_feed">1</property>
  <property name="xml">was here</property>
  <property name="meta.media.nb_streams">2</property>
  <property name="meta.media.0.stream.type">video</property>
  <property name="meta.media.0.stream.frame_rate">29.959</property>
  <property name="meta.media.0.stream.sample_aspect_ratio">0</property>
  <property name="meta.media.0.codec.width">352</property>
  <property name="meta.media.0.codec.height">640</property>
  <property name="meta.media.0.codec.rotate">0</property>
  <property name="meta.media.0.codec.frame_rate">29959</property>
  <property name="meta.media.0.codec.pix_fmt">yuv420p</property>
  <property name="meta.media.0.codec.sample_aspect_ratio">0</property>
  <property name="meta.media.0.codec.colorspace">601</property>
  <property name="meta.media.0.codec.name">h264</property>
  <property name="meta.media.0.codec.long_name">H.264 / AVC / MPEG-4 AVC / MPEG-4 part 10</property>
  <property name="meta.media.0.codec.bit_rate">1903624</property>
  <property name="meta.media.1.stream.type">audio</property>
  <property name="meta.media.1.codec.sample_fmt">fltp</property>
  <property name="meta.media.1.codec.sample_rate">44100</property>
  <property name="meta.media.1.codec.channels">2</property>
  <property name="meta.media.1.codec.name">aac</property>
  <property name="meta.media.1.codec.long_name">AAC (Advanced Audio Coding)</property>
  <property name="meta.media.1.codec.bit_rate">192333</property>
  <property name="meta.attr.major_brand.markup">mp42</property>
  <property name="meta.attr.minor_version.markup">0</property>
  <property name="meta.attr.compatible_brands.markup">mp42isom</property>
  <property name="meta.media.sample_aspect_num">1</property>
  <property name="meta.media.sample_aspect_den">1</property>
  <property name="meta.media.frame_rate_num">29959</property>
  <property name="meta.media.frame_rate_den">1000</property>
  <property name="meta.media.colorspace">601</property>
  <property name="meta.media.color_trc">2</property>
  <property name="meta.media.width">352</property>
  <property name="meta.media.height">640</property>
  <property name="meta.media.top_field_first">0</property>
  <property name="meta.media.progressive">1</property>
  <property name="set.test_audio">1</property>
  <property name="set.test_image">0</property>
 </producer>
 <producer title="Anonymous Submission" id="producer67" in="00:00:00.000" out="00:00:24.360">
  <property name="length">610</property>
  <property name="eof">pause</property>
  <property name="resource">C:/Users/SERGEI/Pictures/Photo/2019/Phone/WhatsApp_Video/VID-20190629-WA0017.mp4</property>
  <property name="audio_index">1</property>
  <property name="video_index">0</property>
  <property name="mute_on_pause">1</property>
  <property name="mlt_service">avformat-novalidate</property>
  <property name="seekable">1</property>
  <property name="aspect_ratio">1</property>
  <property name="kdenlive:clipname"/>
  <property name="kdenlive:id">62</property>
  <property name="kdenlive:file_size">4732061</property>
  <property name="kdenlive:file_hash">b17f144b3d547eec9f060f994ecdafba</property>
  <property name="kdenlive:folderid">-1</property>
  <property name="global_feed">1</property>
  <property name="xml">was here</property>
  <property name="meta.media.nb_streams">2</property>
  <property name="meta.media.0.stream.type">video</property>
  <property name="meta.media.0.stream.frame_rate">30.0061</property>
  <property name="meta.media.0.stream.sample_aspect_ratio">0</property>
  <property name="meta.media.0.codec.width">848</property>
  <property name="meta.media.0.codec.height">480</property>
  <property name="meta.media.0.codec.rotate">90</property>
  <property name="meta.media.0.codec.frame_rate">600</property>
  <property name="meta.media.0.codec.pix_fmt">yuv420p</property>
  <property name="meta.media.0.codec.sample_aspect_ratio">0</property>
  <property name="meta.media.0.codec.colorspace">709</property>
  <property name="meta.media.0.codec.color_trc">1</property>
  <property name="meta.media.0.codec.name">h264</property>
  <property name="meta.media.0.codec.long_name">H.264 / AVC / MPEG-4 AVC / MPEG-4 part 10</property>
  <property name="meta.media.0.codec.bit_rate">1485515</property>
  <property name="meta.attr.0.stream.rotate.markup">90</property>
  <property name="meta.attr.0.stream.creation_time.markup">2019-06-29T19:16:02.000000Z</property>
  <property name="meta.attr.0.stream.handler_name.markup">Core Media Video</property>
  <property name="meta.media.1.stream.type">audio</property>
  <property name="meta.media.1.codec.sample_fmt">fltp</property>
  <property name="meta.media.1.codec.sample_rate">44100</property>
  <property name="meta.media.1.codec.channels">2</property>
  <property name="meta.media.1.codec.name">aac</property>
  <property name="meta.media.1.codec.long_name">AAC (Advanced Audio Coding)</property>
  <property name="meta.media.1.codec.bit_rate">62859</property>
  <property name="meta.attr.1.stream.creation_time.markup">2019-06-29T19:16:02.000000Z</property>
  <property name="meta.attr.1.stream.handler_name.markup">Core Media Audio</property>
  <property name="meta.attr.major_brand.markup">mp42</property>
  <property name="meta.attr.minor_version.markup">1</property>
  <property name="meta.attr.compatible_brands.markup">mp41mp42isom</property>
  <property name="meta.attr.creation_time.markup">2019-06-29T19:16:02.000000Z</property>
  <property name="meta.media.sample_aspect_num">1</property>
  <property name="meta.media.sample_aspect_den">1</property>
  <property name="meta.media.frame_rate_num">146400</property>
  <property name="meta.media.frame_rate_den">4879</property>
  <property name="meta.media.colorspace">709</property>
  <property name="meta.media.color_trc">1</property>
  <property name="meta.media.width">480</property>
  <property name="meta.media.height">848</property>
  <property name="meta.media.top_field_first">0</property>
  <property name="meta.media.progressive">1</property>
  <property name="set.test_audio">1</property>
  <property name="set.test_image">0</property>
 </producer>
 <playlist id="playlist4">
  <entry producer="producer57" in="00:00:00.000" out="00:00:20.000">
   <property name="kdenlive:id">7</property>
   <property name="kdenlive:activeeffect">0</property>
   <filter id="filter11">
    <property name="rotate_center">1</property>
    <property name="mlt_service">qtblend</property>
    <property name="kdenlive_id">qtblend</property>
    <property name="rect">00:00:00.000=10 548 979 550 1;00:00:20.000|=-1744 -223 5568 3132 1</property>
    <property name="rotation">00:00:00.000=13;00:00:20.000|=-14</property>
    <property name="compositing">0</property>
    <property name="distort">0</property>
    <property name="kdenlive:collapsed">0</property>
   </filter>
  </entry>
  <blank length="00:00:12.200"/>
  <entry producer="producer64" in="00:00:32.440" out="00:00:37.680">
   <property name="kdenlive:id">45</property>
   <filter id="filter12">
    <property name="rotate_center">1</property>
    <property name="mlt_service">qtblend</property>
    <property name="kdenlive_id">qtblend</property>
    <property name="rect">00:00:00.000=-672 -378 3264 1836 1;00:00:32.440=-672 -418 3264 1836 1</property>
    <property name="rotation">00:00:00.000=-89;00:00:32.440=-89</property>
    <property name="compositing">0</property>
    <property name="distort">0</property>
    <property name="kdenlive:collapsed">0</property>
   </filter>
  </entry>
  <entry producer="producer64" in="00:00:02.080" out="00:00:14.320">
   <property name="kdenlive:id">45</property>
   <filter id="filter13">
    <property name="rotate_center">1</property>
    <property name="mlt_service">qtblend</property>
    <property name="kdenlive_id">qtblend</property>
    <property name="rect">00:00:00.000=-672 -378 3264 1836 1;00:00:02.080=-672 -428 3264 1836 1</property>
    <property name="rotation">00:00:00.000=-89;00:00:02.080=-89</property>
    <property name="compositing">0</property>
    <property name="distort">0</property>
    <property name="kdenlive:collapsed">0</property>
   </filter>
  </entry>
  <entry producer="producer64" in="00:00:14.360" out="00:00:16.240">
   <property name="kdenlive:id">45</property>
   <filter id="filter14">
    <property name="rotate_center">1</property>
    <property name="mlt_service">qtblend</property>
    <property name="kdenlive_id">qtblend</property>
    <property name="rect">00:00:00.000=-672 -378 3264 1836 1;00:00:14.360=-672 -428 3264 1836 1</property>
    <property name="rotation">00:00:00.000=-89;00:00:14.360=-89</property>
    <property name="compositing">0</property>
    <property name="distort">0</property>
    <property name="kdenlive:collapsed">0</property>
   </filter>
  </entry>
  <entry producer="producer64" in="00:00:22.920" out="00:00:24.440">
   <property name="kdenlive:id">45</property>
   <filter id="filter15">
    <property name="rotate_center">1</property>
    <property name="mlt_service">qtblend</property>
    <property name="kdenlive_id">qtblend</property>
    <property name="rect">00:00:00.000=-672 -378 3264 1836 1;00:00:22.920=-672 -438 3264 1836 1</property>
    <property name="rotation">00:00:00.000=-89;00:00:22.920=-89</property>
    <property name="compositing">0</property>
    <property name="distort">0</property>
    <property name="kdenlive:collapsed">0</property>
   </filter>
  </entry>
  <blank length="00:00:07.560"/>
  <entry producer="producer8" in="00:00:00.000" out="00:00:03.560">
   <property name="kdenlive:id">16</property>
   <filter id="filter16">
    <property name="rotate_center">1</property>
    <property name="mlt_service">qtblend</property>
    <property name="kdenlive_id">qtblend</property>
    <property name="rect">00:00:00.000=-209 -389 2592 1458 1;00:00:03.560|=-1488 -1162 5376 3024 1</property>
    <property name="rotation">00:00:00.000=1;00:00:03.560|=-9</property>
    <property name="compositing">0</property>
    <property name="distort">0</property>
    <property name="kdenlive:collapsed">0</property>
   </filter>
  </entry>
  <blank length="00:00:06.600"/>
  <entry producer="producer10" in="00:00:00.000" out="00:00:06.800">
   <property name="kdenlive:id">18</property>
   <filter id="filter17">
    <property name="rotate_center">1</property>
    <property name="mlt_service">qtblend</property>
    <property name="kdenlive_id">qtblend</property>
    <property name="rect">00:00:00.000=-576 -324 3072 1728 1;00:00:06.800|=-2166 -934 6912 3888 1</property>
    <property name="rotation">00:00:00.000=22;00:00:06.800|=-35</property>
    <property name="compositing">0</property>
    <property name="distort">0</property>
    <property name="kdenlive:collapsed">0</property>
   </filter>
  </entry>
  <blank length="00:00:08.280"/>
  <entry producer="producer5" in="00:00:00.000" out="00:00:05.360">
   <property name="kdenlive:id">13</property>
   <filter id="filter18">
    <property name="rotate_center">1</property>
    <property name="mlt_service">qtblend</property>
    <property name="kdenlive_id">qtblend</property>
    <property name="rect">00:00:00.000=198 162 1344 756 1;00:00:05.360|=-572 -111 2784 1566 1</property>
    <property name="rotation">00:00:00.000=-25;00:00:05.360|=6</property>
    <property name="compositing">0</property>
    <property name="distort">0</property>
    <property name="kdenlive:collapsed">0</property>
   </filter>
  </entry>
  <blank length="00:00:05.000"/>
  <entry producer="producer35" in="00:00:00.000" out="00:00:05.800">
   <property name="kdenlive:id">43</property>
   <filter id="filter19">
    <property name="rotate_center">1</property>
    <property name="mlt_service">qtblend</property>
    <property name="kdenlive_id">qtblend</property>
    <property name="rect">00:00:00.000=0 -50 2400 1350 1;00:00:05.800|=-1248 -922 4416 2484 1</property>
    <property name="rotation">00:00:00.000=-30;00:00:05.800|=22</property>
    <property name="compositing">0</property>
    <property name="distort">0</property>
    <property name="kdenlive:collapsed">0</property>
   </filter>
  </entry>
  <blank length="00:00:05.000"/>
  <entry producer="producer26" in="00:00:00.000" out="00:00:04.960">
   <property name="kdenlive:id">34</property>
   <filter id="filter20">
    <property name="rotate_center">1</property>
    <property name="mlt_service">qtblend</property>
    <property name="kdenlive_id">qtblend</property>
    <property name="rect">00:00:00.000=-48 -27 2016 1134 1;00:00:04.960|=-1784 -486 6528 3672 1</property>
    <property name="rotation">00:00:00.000=-7;00:00:04.960|=20</property>
    <property name="compositing">0</property>
    <property name="distort">0</property>
    <property name="kdenlive:collapsed">0</property>
   </filter>
   <filter id="filter21">
    <property name="version">0.2</property>
    <property name="mlt_service">frei0r.contrast0r</property>
    <property name="kdenlive_id">frei0r.contrast0r</property>
    <property name="Contrast">00:00:00.000=0.422;00:00:04.960|=0.768</property>
    <property name="kdenlive:collapsed">0</property>
   </filter>
  </entry>
  <blank length="00:00:04.280"/>
  <entry producer="producer22" in="00:00:00.000" out="00:00:04.960">
   <property name="kdenlive:id">30</property>
   <filter id="filter22">
    <property name="rotate_center">1</property>
    <property name="mlt_service">qtblend</property>
    <property name="kdenlive_id">qtblend</property>
    <property name="rect">00:00:00.000=-30 110 1920 1080 1;00:00:04.960|=-1660 -310 4800 2700 1</property>
    <property name="rotation">00:00:00.000=-16;00:00:04.960|=15</property>
    <property name="compositing">0</property>
    <property name="distort">0</property>
    <property name="kdenlive:collapsed">0</property>
   </filter>
   <filter id="filter23">
    <property name="version">0.2</property>
    <property name="mlt_service">frei0r.contrast0r</property>
    <property name="kdenlive_id">frei0r.contrast0r</property>
    <property name="Contrast">00:00:00.000=0.384;00:00:04.960|=0.65</property>
    <property name="kdenlive:collapsed">0</property>
   </filter>
  </entry>
  <blank length="00:00:04.560"/>
  <entry producer="producer65" in="00:00:20.080" out="00:00:23.680">
   <property name="kdenlive:id">50</property>
  </entry>
  <blank length="00:00:13.920"/>
  <entry producer="producer44" in="00:00:00.000" out="00:00:05.360">
   <property name="kdenlive:id">53</property>
   <filter id="filter24">
    <property name="rotate_center">1</property>
    <property name="mlt_service">qtblend</property>
    <property name="kdenlive_id">qtblend</property>
    <property name="rect">00:00:00.000=50 -220 1920 1570 1;00:00:05.360|=-4290 -1310 7680 4320 1</property>
    <property name="rotation">00:00:00.000=-13;00:00:05.360|=-13</property>
    <property name="compositing">0</property>
    <property name="distort">0</property>
    <property name="kdenlive:collapsed">0</property>
   </filter>
  </entry>
  <blank length="00:00:05.120"/>
  <entry producer="producer66" in="00:00:01.960" out="00:00:09.600">
   <property name="kdenlive:id">60</property>
  </entry>
  <blank length="00:00:08.600"/>
  <entry producer="producer18" in="00:00:00.000" out="00:00:06.520">
   <property name="kdenlive:id">26</property>
   <filter id="filter25">
    <property name="rotate_center">1</property>
    <property name="mlt_service">qtblend</property>
    <property name="kdenlive_id">qtblend</property>
    <property name="rect">00:00:00.000=-368 -202 2496 1404 1;00:00:06.520|=-1906 -282 7296 4104 1</property>
    <property name="rotation">00:00:00.000=-18;00:00:06.520|=30</property>
    <property name="compositing">0</property>
    <property name="distort">0</property>
    <property name="kdenlive:collapsed">0</property>
   </filter>
  </entry>
  <blank length="00:00:03.400"/>
  <entry producer="producer11" in="00:00:00.000" out="00:00:05.760">
   <property name="kdenlive:id">19</property>
   <filter id="filter26">
    <property name="rotate_center">1</property>
    <property name="mlt_service">qtblend</property>
    <property name="kdenlive_id">qtblend</property>
    <property name="rect">00:00:00.000=0 -200 1920 1080 1;00:00:05.760|=-1152 -1544 4704 2646 1</property>
    <property name="rotation">00:00:00.000=30;00:00:05.760|=-29</property>
    <property name="compositing">0</property>
    <property name="distort">0</property>
    <property name="kdenlive:collapsed">0</property>
   </filter>
   <filter id="filter27">
    <property name="version">0.2</property>
    <property name="mlt_service">frei0r.contrast0r</property>
    <property name="kdenlive_id">frei0r.contrast0r</property>
    <property name="Contrast">00:00:00.000=0.358;00:00:05.760|=0.796</property>
    <property name="kdenlive:collapsed">0</property>
   </filter>
  </entry>
  <entry producer="producer32" in="00:00:00.000" out="00:00:10.320">
   <property name="kdenlive:id">40</property>
   <filter id="filter28">
    <property name="rotate_center">1</property>
    <property name="mlt_service">qtblend</property>
    <property name="kdenlive_id">qtblend</property>
    <property name="rect">00:00:00.000=120 100 1920 1080 1;00:00:10.320=-1682 -614 5065 2849 1</property>
    <property name="rotation">00:00:00.000=16;00:00:10.320=26.4862</property>
    <property name="compositing">0</property>
    <property name="distort">0</property>
    <property name="kdenlive:collapsed">0</property>
   </filter>
   <filter id="filter29">
    <property name="version">0.2</property>
    <property name="mlt_service">frei0r.contrast0r</property>
    <property name="kdenlive_id">frei0r.contrast0r</property>
    <property name="Contrast">00:00:00.000=0.372;00:00:10.320|=0.634</property>
    <property name="kdenlive:collapsed">0</property>
   </filter>
  </entry>
  <entry producer="producer67" in="00:00:00.000" out="00:00:09.760">
   <property name="kdenlive:id">62</property>
   <filter id="filter30">
    <property name="rotate_center">1</property>
    <property name="mlt_service">qtblend</property>
    <property name="kdenlive_id">qtblend</property>
    <property name="rect">00:00:00.000=-432 -173 2784 1566 1</property>
    <property name="rotation">00:00:00.000=0</property>
    <property name="compositing">0</property>
    <property name="distort">0</property>
    <property name="kdenlive:collapsed">0</property>
   </filter>
  </entry>
 </playlist>
 <playlist id="playlist5"/>
 <tractor id="tractor2" in="00:00:00.000" out="00:03:26.480">
  <property name="kdenlive:trackheight">56</property>
  <property name="kdenlive:collapsed">0</property>
  <property name="kdenlive:thumbs_format"/>
  <property name="kdenlive:audio_rec"/>
  <property name="kdenlive:timeline_active">0</property>
  <track hide="audio" producer="playlist4"/>
  <track hide="audio" producer="playlist5"/>
 </tractor>
 <producer title="Anonymous Submission" id="producer68" in="00:00:00.000" out="00:00:23.520">
  <property name="length">589</property>
  <property name="eof">pause</property>
  <property name="resource">C:/Users/SERGEI/Pictures/Photo/2019/Phone/WhatsApp_Video/VID-20181112-WA0022.mp4</property>
  <property name="audio_index">1</property>
  <property name="video_index">0</property>
  <property name="mute_on_pause">1</property>
  <property name="mlt_service">avformat-novalidate</property>
  <property name="seekable">1</property>
  <property name="aspect_ratio">1</property>
  <property name="kdenlive:clipname"/>
  <property name="kdenlive:id">59</property>
  <property name="kdenlive:file_size">10981973</property>
  <property name="kdenlive:file_hash">58192a1545cd4d1b8fd045ded7913ed6</property>
  <property name="kdenlive:folderid">-1</property>
  <property name="global_feed">1</property>
  <property name="xml">was here</property>
  <property name="meta.media.nb_streams">2</property>
  <property name="meta.media.0.stream.type">video</property>
  <property name="meta.media.0.stream.frame_rate">29.766</property>
  <property name="meta.media.0.stream.sample_aspect_ratio">0</property>
  <property name="meta.media.0.codec.width">720</property>
  <property name="meta.media.0.codec.height">1280</property>
  <property name="meta.media.0.codec.rotate">0</property>
  <property name="meta.media.0.codec.frame_rate">29.766</property>
  <property name="meta.media.0.codec.pix_fmt">yuv420p</property>
  <property name="meta.media.0.codec.sample_aspect_ratio">1</property>
  <property name="meta.media.0.codec.colorspace">709</property>
  <property name="meta.media.0.codec.color_trc">1</property>
  <property name="meta.media.0.codec.name">h264</property>
  <property name="meta.media.0.codec.long_name">H.264 / AVC / MPEG-4 AVC / MPEG-4 part 10</property>
  <property name="meta.media.0.codec.bit_rate">3604535</property>
  <property name="meta.attr.0.stream.handler_name.markup">VideoHandler</property>
  <property name="meta.media.1.stream.type">audio</property>
  <property name="meta.media.1.codec.sample_fmt">fltp</property>
  <property name="meta.media.1.codec.sample_rate">44100</property>
  <property name="meta.media.1.codec.channels">2</property>
  <property name="meta.media.1.codec.name">aac</property>
  <property name="meta.media.1.codec.long_name">AAC (Advanced Audio Coding)</property>
  <property name="meta.media.1.codec.bit_rate">128100</property>
  <property name="meta.attr.1.stream.creation_time.markup">2018-10-20T15:42:07.000000Z</property>
  <property name="meta.attr.1.stream.language.markup">eng</property>
  <property name="meta.attr.1.stream.handler_name.markup">IsoMedia File Produced by Google, 5-11-2011</property>
  <property name="meta.attr.major_brand.markup">mp42</property>
  <property name="meta.attr.minor_version.markup">0</property>
  <property name="meta.attr.compatible_brands.markup">isommp42</property>
  <property name="meta.attr.creation_time.markup">2018-10-20T11:50:08.000000Z</property>
  <property name="meta.media.sample_aspect_num">1</property>
  <property name="meta.media.sample_aspect_den">1</property>
  <property name="meta.media.frame_rate_num">14883</property>
  <property name="meta.media.frame_rate_den">500</property>
  <property name="meta.media.colorspace">709</property>
  <property name="meta.media.color_trc">1</property>
  <property name="meta.media.width">720</property>
  <property name="meta.media.height">1280</property>
  <property name="meta.media.top_field_first">0</property>
  <property name="meta.media.progressive">1</property>
  <property name="set.test_audio">1</property>
  <property name="set.test_image">0</property>
 </producer>
 <producer title="Anonymous Submission" id="producer69" in="00:00:00.000" out="00:00:34.040">
  <property name="length">852</property>
  <property name="eof">pause</property>
  <property name="resource">C:/Users/SERGEI/Pictures/Photo/2019/Phone/WhatsApp_Video/VID-20190627-WA0001.mp4</property>
  <property name="audio_index">1</property>
  <property name="video_index">0</property>
  <property name="mute_on_pause">1</property>
  <property name="mlt_service">avformat-novalidate</property>
  <property name="seekable">1</property>
  <property name="aspect_ratio">1</property>
  <property name="kdenlive:clipname"/>
  <property name="kdenlive:id">46</property>
  <property name="kdenlive:file_size">7831522</property>
  <property name="kdenlive:file_hash">695af7383276ffa886ad488856689cb0</property>
  <property name="kdenlive:folderid">-1</property>
  <property name="global_feed">1</property>
  <property name="xml">was here</property>
  <property name="meta.media.nb_streams">2</property>
  <property name="meta.media.0.stream.type">video</property>
  <property name="meta.media.0.stream.frame_rate">30.069</property>
  <property name="meta.media.0.stream.sample_aspect_ratio">0</property>
  <property name="meta.media.0.codec.width">640</property>
  <property name="meta.media.0.codec.height">352</property>
  <property name="meta.media.0.codec.rotate">90</property>
  <property name="meta.media.0.codec.frame_rate">30069</property>
  <property name="meta.media.0.codec.pix_fmt">yuv420p</property>
  <property name="meta.media.0.codec.sample_aspect_ratio">0</property>
  <property name="meta.media.0.codec.colorspace">601</property>
  <property name="meta.media.0.codec.name">h264</property>
  <property name="meta.media.0.codec.long_name">H.264 / AVC / MPEG-4 AVC / MPEG-4 part 10</property>
  <property name="meta.media.0.codec.bit_rate">1579971</property>
  <property name="meta.attr.0.stream.rotate.markup">90</property>
  <property name="meta.media.1.stream.type">audio</property>
  <property name="meta.media.1.codec.sample_fmt">fltp</property>
  <property name="meta.media.1.codec.sample_rate">48000</property>
  <property name="meta.media.1.codec.channels">2</property>
  <property name="meta.media.1.codec.name">aac</property>
  <property name="meta.media.1.codec.long_name">AAC (Advanced Audio Coding)</property>
  <property name="meta.media.1.codec.bit_rate">256015</property>
  <property name="meta.attr.major_brand.markup">mp42</property>
  <property name="meta.attr.minor_version.markup">0</property>
  <property name="meta.attr.compatible_brands.markup">mp42isom</property>
  <property name="meta.media.sample_aspect_num">1</property>
  <property name="meta.media.sample_aspect_den">1</property>
  <property name="meta.media.frame_rate_num">30069</property>
  <property name="meta.media.frame_rate_den">1000</property>
  <property name="meta.media.colorspace">601</property>
  <property name="meta.media.color_trc">2</property>
  <property name="meta.media.width">352</property>
  <property name="meta.media.height">640</property>
  <property name="meta.media.top_field_first">0</property>
  <property name="meta.media.progressive">1</property>
  <property name="set.test_audio">1</property>
  <property name="set.test_image">0</property>
 </producer>
 <producer title="Anonymous Submission" id="producer70" in="00:00:00.000" out="00:00:10.760">
  <property name="length">270</property>
  <property name="eof">pause</property>
  <property name="resource">C:/Users/SERGEI/Pictures/Photo/2019/Phone/WhatsApp_Video/VID-20170909-WA0001.mp4</property>
  <property name="audio_index">-1</property>
  <property name="video_index">0</property>
  <property name="mute_on_pause">1</property>
  <property name="mlt_service">avformat-novalidate</property>
  <property name="seekable">1</property>
  <property name="aspect_ratio">1</property>
  <property name="kdenlive:clipname"/>
  <property name="kdenlive:id">58</property>
  <property name="kdenlive:file_size">4113530</property>
  <property name="kdenlive:file_hash">fd6b28435ce44a372db3c476c8e1dae7</property>
  <property name="kdenlive:folderid">-1</property>
  <property name="global_feed">1</property>
  <property name="xml">was here</property>
  <property name="meta.media.nb_streams">1</property>
  <property name="meta.media.0.stream.type">video</property>
  <property name="meta.media.0.stream.frame_rate">2.86772</property>
  <property name="meta.media.0.stream.sample_aspect_ratio">0</property>
  <property name="meta.media.0.codec.width">680</property>
  <property name="meta.media.0.codec.height">906</property>
  <property name="meta.media.0.codec.rotate">0</property>
  <property name="meta.media.0.codec.frame_rate">100</property>
  <property name="meta.media.0.codec.pix_fmt">yuv420p</property>
  <property name="meta.media.0.codec.sample_aspect_ratio">0</property>
  <property name="meta.media.0.codec.colorspace">601</property>
  <property name="meta.media.0.codec.name">h264</property>
  <property name="meta.media.0.codec.long_name">H.264 / AVC / MPEG-4 AVC / MPEG-4 part 10</property>
  <property name="meta.media.0.codec.bit_rate">3043453</property>
  <property name="meta.attr.0.stream.handler_name.markup">VideoHandler</property>
  <property name="meta.attr.major_brand.markup">isom</property>
  <property name="meta.attr.minor_version.markup">512</property>
  <property name="meta.attr.compatible_brands.markup">isomiso2avc1mp41</property>
  <property name="meta.attr.encoder.markup">Google</property>
  <property name="meta.media.sample_aspect_num">1</property>
  <property name="meta.media.sample_aspect_den">1</property>
  <property name="meta.media.frame_rate_num">3100</property>
  <property name="meta.media.frame_rate_den">1081</property>
  <property name="meta.media.colorspace">601</property>
  <property name="meta.media.color_trc">2</property>
  <property name="meta.media.width">680</property>
  <property name="meta.media.height">906</property>
  <property name="meta.media.variable_frame_rate">1</property>
  <property name="meta.media.top_field_first">0</property>
  <property name="meta.media.progressive">1</property>
  <property name="set.test_audio">1</property>
  <property name="set.test_image">0</property>
 </producer>
 <producer title="Anonymous Submission" id="producer71" in="00:00:00.000" out="00:00:20.640">
  <property name="length">517</property>
  <property name="eof">pause</property>
  <property name="resource">C:/Users/SERGEI/Pictures/Photo/2019/Phone/WhatsApp_Video/VID-20190309-WA0015.mp4</property>
  <property name="audio_index">1</property>
  <property name="video_index">0</property>
  <property name="mute_on_pause">1</property>
  <property name="mlt_service">avformat-novalidate</property>
  <property name="seekable">1</property>
  <property name="aspect_ratio">1</property>
  <property name="kdenlive:clipname"/>
  <property name="kdenlive:id">61</property>
  <property name="kdenlive:file_size">4082937</property>
  <property name="kdenlive:file_hash">a18acf318848865960f4b9a066cbaf52</property>
  <property name="kdenlive:folderid">-1</property>
  <property name="global_feed">1</property>
  <property name="xml">was here</property>
  <property name="meta.media.nb_streams">2</property>
  <property name="meta.media.0.stream.type">video</property>
  <property name="meta.media.0.stream.frame_rate">30.0072</property>
  <property name="meta.media.0.stream.sample_aspect_ratio">0</property>
  <property name="meta.media.0.codec.width">480</property>
  <property name="meta.media.0.codec.height">848</property>
  <property name="meta.media.0.codec.rotate">0</property>
  <property name="meta.media.0.codec.frame_rate">600</property>
  <property name="meta.media.0.codec.pix_fmt">yuv420p</property>
  <property name="meta.media.0.codec.sample_aspect_ratio">0</property>
  <property name="meta.media.0.codec.colorspace">709</property>
  <property name="meta.media.0.codec.color_trc">1</property>
  <property name="meta.media.0.codec.name">h264</property>
  <property name="meta.media.0.codec.long_name">H.264 / AVC / MPEG-4 AVC / MPEG-4 part 10</property>
  <property name="meta.media.0.codec.bit_rate">1511920</property>
  <property name="meta.attr.0.stream.creation_time.markup">2019-03-09T16:18:50.000000Z</property>
  <property name="meta.attr.0.stream.handler_name.markup">Core Media Video</property>
  <property name="meta.media.1.stream.type">audio</property>
  <property name="meta.media.1.codec.sample_fmt">fltp</property>
  <property name="meta.media.1.codec.sample_rate">44100</property>
  <property name="meta.media.1.codec.channels">2</property>
  <property name="meta.media.1.codec.name">aac</property>
  <property name="meta.media.1.codec.long_name">AAC (Advanced Audio Coding)</property>
  <property name="meta.media.1.codec.bit_rate">62841</property>
  <property name="meta.attr.1.stream.creation_time.markup">2019-03-09T16:18:50.000000Z</property>
  <property name="meta.attr.1.stream.handler_name.markup">Core Media Audio</property>
  <property name="meta.attr.major_brand.markup">mp42</property>
  <property name="meta.attr.minor_version.markup">1</property>
  <property name="meta.attr.compatible_brands.markup">mp41mp42isom</property>
  <property name="meta.attr.creation_time.markup">2019-03-09T16:18:50.000000Z</property>
  <property name="meta.media.sample_aspect_num">1</property>
  <property name="meta.media.sample_aspect_den">1</property>
  <property name="meta.media.frame_rate_num">124200</property>
  <property name="meta.media.frame_rate_den">4139</property>
  <property name="meta.media.colorspace">709</property>
  <property name="meta.media.color_trc">1</property>
  <property name="meta.media.width">480</property>
  <property name="meta.media.height">848</property>
  <property name="meta.media.top_field_first">0</property>
  <property name="meta.media.progressive">1</property>
  <property name="set.test_audio">1</property>
  <property name="set.test_image">0</property>
 </producer>
 <producer title="Anonymous Submission" id="producer72" in="00:00:00.000" out="00:00:29.960">
  <property name="length">750</property>
  <property name="eof">pause</property>
  <property name="resource">C:/Users/SERGEI/Pictures/Photo/2019/Phone/WhatsApp_Video/VID-20170408-WA0000.mp4</property>
  <property name="audio_index">1</property>
  <property name="video_index">0</property>
  <property name="mute_on_pause">1</property>
  <property name="mlt_service">avformat-novalidate</property>
  <property name="seekable">1</property>
  <property name="aspect_ratio">1</property>
  <property name="kdenlive:clipname"/>
  <property name="kdenlive:id">57</property>
  <property name="kdenlive:file_size">5614372</property>
  <property name="kdenlive:file_hash">6f45d9428d5d2892a7da8ed6d93de755</property>
  <property name="kdenlive:folderid">-1</property>
  <property name="global_feed">1</property>
  <property name="xml">was here</property>
  <property name="meta.media.nb_streams">2</property>
  <property name="meta.media.0.stream.type">video</property>
  <property name="meta.media.0.stream.frame_rate">29.9833</property>
  <property name="meta.media.0.stream.sample_aspect_ratio">0</property>
  <property name="meta.media.0.codec.width">848</property>
  <property name="meta.media.0.codec.height">480</property>
  <property name="meta.media.0.codec.rotate">0</property>
  <property name="meta.media.0.codec.frame_rate">600</property>
  <property name="meta.media.0.codec.pix_fmt">yuv420p</property>
  <property name="meta.media.0.codec.sample_aspect_ratio">0</property>
  <property name="meta.media.0.codec.colorspace">709</property>
  <property name="meta.media.0.codec.color_trc">1</property>
  <property name="meta.media.0.codec.name">h264</property>
  <property name="meta.media.0.codec.long_name">H.264 / AVC / MPEG-4 AVC / MPEG-4 part 10</property>
  <property name="meta.media.0.codec.bit_rate">1427854</property>
  <property name="meta.attr.0.stream.creation_time.markup">2017-04-07T17:20:53.000000Z</property>
  <property name="meta.attr.0.stream.handler_name.markup">Core Media Video</property>
  <property name="meta.media.1.stream.type">audio</property>
  <property name="meta.media.1.codec.sample_fmt">fltp</property>
  <property name="meta.media.1.codec.sample_rate">44100</property>
  <property name="meta.media.1.codec.channels">2</property>
  <property name="meta.media.1.codec.name">aac</property>
  <property name="meta.media.1.codec.long_name">AAC (Advanced Audio Coding)</property>
  <property name="meta.media.1.codec.bit_rate">63399</property>
  <property name="meta.attr.1.stream.creation_time.markup">2017-04-07T17:20:53.000000Z</property>
  <property name="meta.attr.1.stream.handler_name.markup">Core Media Audio</property>
  <property name="meta.attr.major_brand.markup">mp42</property>
  <property name="meta.attr.minor_version.markup">1</property>
  <property name="meta.attr.compatible_brands.markup">mp41mp42isom</property>
  <property name="meta.attr.creation_time.markup">2017-04-07T17:20:53.000000Z</property>
  <property name="meta.media.sample_aspect_num">1</property>
  <property name="meta.media.sample_aspect_den">1</property>
  <property name="meta.media.frame_rate_num">54000</property>
  <property name="meta.media.frame_rate_den">1801</property>
  <property name="meta.media.colorspace">709</property>
  <property name="meta.media.color_trc">1</property>
  <property name="meta.media.width">848</property>
  <property name="meta.media.height">480</property>
  <property name="meta.media.top_field_first">0</property>
  <property name="meta.media.progressive">1</property>
  <property name="set.test_audio">1</property>
  <property name="set.test_image">0</property>
 </producer>
 <playlist id="playlist6">
  <entry producer="producer2" in="00:00:00.000" out="00:00:20.000">
   <property name="kdenlive:id">9</property>
  </entry>
  <entry producer="producer68" in="00:00:05.960" out="00:00:18.120">
   <property name="kdenlive:id">59</property>
   <filter id="filter31">
    <property name="rotate_center">1</property>
    <property name="mlt_service">qtblend</property>
    <property name="kdenlive_id">qtblend</property>
    <property name="rect">00:00:05.960=-1104 -621 4128 2322 1;00:00:18.120|=-197 -111 2315 1302 1</property>
    <property name="rotation">00:00:05.960=0;00:00:18.120|=0</property>
    <property name="compositing">0</property>
    <property name="distort">0</property>
    <property name="kdenlive:collapsed">0</property>
   </filter>
  </entry>
  <blank length="00:00:21.040"/>
  <entry producer="producer69" in="00:00:16.360" out="00:00:21.200">
   <property name="kdenlive:id">46</property>
   <filter id="filter32">
    <property name="rotate_center">1</property>
    <property name="mlt_service">qtblend</property>
    <property name="kdenlive_id">qtblend</property>
    <property name="rect">00:00:16.360=-624 -161 3168 1782 1</property>
    <property name="rotation">00:00:16.360=0</property>
    <property name="compositing">0</property>
    <property name="distort">0</property>
    <property name="kdenlive:collapsed">0</property>
   </filter>
   <filter id="filter33">
    <property name="version">0.2</property>
    <property name="mlt_service">frei0r.contrast0r</property>
    <property name="kdenlive_id">frei0r.contrast0r</property>
    <property name="Contrast">00:00:16.360=0.48</property>
    <property name="kdenlive:collapsed">0</property>
   </filter>
  </entry>
  <entry producer="producer69" in="00:00:31.400" out="00:00:34.040">
   <property name="kdenlive:id">46</property>
   <filter id="filter34">
    <property name="rotate_center">1</property>
    <property name="mlt_service">qtblend</property>
    <property name="kdenlive_id">qtblend</property>
    <property name="rect">00:00:31.400=-1752 -453 5664 3186 1</property>
    <property name="rotation">00:00:31.400=0</property>
    <property name="compositing">0</property>
    <property name="distort">0</property>
    <property name="kdenlive:collapsed">0</property>
   </filter>
  </entry>
  <blank length="00:00:03.600"/>
  <entry producer="producer9" in="00:00:00.000" out="00:00:06.560">
   <property name="kdenlive:id">17</property>
   <property name="kdenlive:activeeffect">0</property>
   <filter id="filter35">
    <property name="rotate_center">1</property>
    <property name="mlt_service">qtblend</property>
    <property name="kdenlive_id">qtblend</property>
    <property name="rect">00:00:00.000=-750 -1560 6048 3402 1;00:00:06.560|=-36 -63 2208 1242 1</property>
    <property name="rotation">00:00:00.000=-20;00:00:06.560|=8</property>
    <property name="compositing">0</property>
    <property name="distort">0</property>
    <property name="kdenlive:collapsed">0</property>
   </filter>
   <filter id="filter36">
    <property name="version">0.2</property>
    <property name="mlt_service">frei0r.contrast0r</property>
    <property name="kdenlive_id">frei0r.contrast0r</property>
    <property name="Contrast">00:00:00.000=0.634;00:00:06.560|=0.434</property>
    <property name="kdenlive:collapsed">0</property>
   </filter>
  </entry>
  <blank length="00:00:06.840"/>
  <entry producer="producer70" in="00:00:00.000" out="00:00:08.240">
   <property name="kdenlive:id">58</property>
   <filter id="filter37">
    <property name="rotate_center">1</property>
    <property name="mlt_service">qtblend</property>
    <property name="kdenlive_id">qtblend</property>
    <property name="rect">00:00:00.000=-1440 -810 4800 2700 1</property>
    <property name="rotation">00:00:00.000=0</property>
    <property name="compositing">0</property>
    <property name="distort">0</property>
    <property name="kdenlive:collapsed">0</property>
   </filter>
  </entry>
  <blank length="00:00:05.400"/>
  <entry producer="producer24" in="00:00:00.000" out="00:00:04.960">
   <property name="kdenlive:id">32</property>
   <filter id="filter38">
    <property name="rotate_center">1</property>
    <property name="mlt_service">qtblend</property>
    <property name="kdenlive_id">qtblend</property>
    <property name="rect">00:00:00.000=240 135 1440 810 1;00:00:04.960|=-122 -108 2304 1296 1</property>
    <property name="rotation">00:00:00.000=-17;00:00:04.960|=21</property>
    <property name="compositing">0</property>
    <property name="distort">0</property>
    <property name="kdenlive:collapsed">0</property>
   </filter>
  </entry>
  <blank length="00:00:05.840"/>
  <entry producer="producer27" in="00:00:00.000" out="00:00:04.960">
   <property name="kdenlive:id">35</property>
   <filter id="filter39">
    <property name="rotate_center">1</property>
    <property name="mlt_service">qtblend</property>
    <property name="kdenlive_id">qtblend</property>
    <property name="rect">00:00:00.000=-186 -89 2592 1458 1;00:00:04.960|=-1296 -1369 5184 2916 1</property>
    <property name="rotation">00:00:00.000=20;00:00:04.960|=-50</property>
    <property name="compositing">0</property>
    <property name="distort">0</property>
    <property name="kdenlive:collapsed">0</property>
   </filter>
  </entry>
  <blank length="00:00:05.000"/>
  <entry producer="producer21" in="00:00:00.000" out="00:00:04.240">
   <property name="kdenlive:id">29</property>
   <filter id="filter40">
    <property name="rotate_center">1</property>
    <property name="mlt_service">qtblend</property>
    <property name="kdenlive_id">qtblend</property>
    <property name="rect">00:00:00.000=0 -40 2016 1134 1;00:00:04.240|=-1888 -367 4896 2754 1</property>
    <property name="rotation">00:00:00.000=-20;00:00:04.240|=19</property>
    <property name="compositing">0</property>
    <property name="distort">0</property>
    <property name="kdenlive:collapsed">0</property>
   </filter>
   <filter id="filter41">
    <property name="version">0.2</property>
    <property name="mlt_service">frei0r.contrast0r</property>
    <property name="kdenlive_id">frei0r.contrast0r</property>
    <property name="Contrast">00:00:00.000=0.47;00:00:04.240|=0.822</property>
    <property name="kdenlive:collapsed">0</property>
   </filter>
  </entry>
  <blank length="00:00:05.000"/>
  <entry producer="producer25" in="00:00:00.000" out="00:00:04.520">
   <property name="kdenlive:id">33</property>
   <filter id="filter42">
    <property name="rotate_center">1</property>
    <property name="mlt_service">qtblend</property>
    <property name="kdenlive_id">qtblend</property>
    <property name="rect">00:00:00.000=-240 -285 2400 1350 1;00:00:04.520|=-3638 -777 7776 4374 1</property>
    <property name="rotation">00:00:00.000=13;00:00:04.520|=-10</property>
    <property name="compositing">0</property>
    <property name="distort">0</property>
    <property name="kdenlive:collapsed">0</property>
   </filter>
   <filter id="filter43">
    <property name="version">0.2</property>
    <property name="mlt_service">frei0r.contrast0r</property>
    <property name="kdenlive_id">frei0r.contrast0r</property>
    <property name="Contrast">00:00:00.000=0.39;00:00:04.520|=0.774</property>
    <property name="kdenlive:collapsed">0</property>
   </filter>
  </entry>
  <blank length="00:00:03.640"/>
  <entry producer="producer42" in="00:00:00.000" out="00:00:04.960">
   <property name="kdenlive:id">51</property>
   <filter id="filter44">
    <property name="rotate_center">1</property>
    <property name="mlt_service">qtblend</property>
    <property name="kdenlive_id">qtblend</property>
    <property name="rect">00:00:00.000=-528 -290 2976 1674 1;00:00:04.960|=-1678 -927 5856 3294 1</property>
    <property name="rotation">00:00:00.000=-18;00:00:04.960|=22</property>
    <property name="compositing">11</property>
    <property name="distort">0</property>
    <property name="kdenlive:collapsed">0</property>
   </filter>
  </entry>
  <entry producer="producer71" in="00:00:00.000" out="00:00:03.880">
   <property name="kdenlive:id">61</property>
   <filter id="filter45">
    <property name="rotate_center">1</property>
    <property name="mlt_service">qtblend</property>
    <property name="kdenlive_id">qtblend</property>
    <property name="rect">00:00:00.000=-768 0 3456 1944 1</property>
    <property name="rotation">00:00:00.000=0</property>
    <property name="compositing">0</property>
    <property name="distort">0</property>
    <property name="kdenlive:collapsed">0</property>
   </filter>
  </entry>
  <entry producer="producer31" in="00:00:00.000" out="00:00:04.960">
   <property name="kdenlive:id">39</property>
   <filter id="filter46">
    <property name="rotate_center">1</property>
    <property name="mlt_service">qtblend</property>
    <property name="kdenlive_id">qtblend</property>
    <property name="rect">00:00:00.000=-288 -112 2496 1404 1;00:00:04.960|=-3628 -922 10176 5724 1</property>
    <property name="rotation">00:00:00.000=15;00:00:04.960|=-4</property>
    <property name="compositing">0</property>
    <property name="distort">0</property>
    <property name="kdenlive:collapsed">0</property>
   </filter>
   <filter id="filter47">
    <property name="version">0.2</property>
    <property name="mlt_service">frei0r.contrast0r</property>
    <property name="kdenlive_id">frei0r.contrast0r</property>
    <property name="Contrast">00:00:00.000=0.396;00:00:04.960|=0.736</property>
    <property name="kdenlive:collapsed">0</property>
   </filter>
  </entry>
  <blank length="00:00:05.520"/>
  <entry producer="producer19" in="00:00:00.000" out="00:00:04.960">
   <property name="kdenlive:id">27</property>
   <filter id="filter48">
    <property name="rotate_center">1</property>
    <property name="mlt_service">qtblend</property>
    <property name="kdenlive_id">qtblend</property>
    <property name="rect">00:00:00.000=0 0 1920 1080 1;00:00:04.960|=-1536 -660 4992 2808 1</property>
    <property name="rotation">00:00:00.000=12;00:00:04.960|=-10</property>
    <property name="compositing">0</property>
    <property name="distort">0</property>
    <property name="kdenlive:collapsed">0</property>
   </filter>
  </entry>
  <blank length="00:00:07.680"/>
  <entry producer="producer72" in="00:00:00.000" out="00:00:08.560">
   <property name="kdenlive:id">57</property>
  </entry>
  <blank length="00:00:06.560"/>
  <entry producer="producer12" in="00:00:00.000" out="00:00:03.360">
   <property name="kdenlive:id">20</property>
   <filter id="filter49">
    <property name="rotate_center">1</property>
    <property name="mlt_service">qtblend</property>
    <property name="kdenlive_id">qtblend</property>
    <property name="rect">00:00:00.000=288 162 1344 756 1;00:00:03.360|=-3342 -308 6144 3456 1</property>
    <property name="rotation">00:00:00.000=-10;00:00:03.360|=12</property>
    <property name="compositing">0</property>
    <property name="distort">0</property>
    <property name="kdenlive:collapsed">0</property>
   </filter>
  </entry>
  <blank length="00:00:14.360"/>
  <entry producer="producer2" in="00:00:00.000" out="00:00:11.560">
   <property name="kdenlive:id">9</property>
  </entry>
 </playlist>
 <playlist id="playlist7"/>
 <tractor id="tractor3" in="00:00:00.000" out="00:03:26.480">
  <property name="kdenlive:trackheight">56</property>
  <property name="kdenlive:collapsed">0</property>
  <property name="kdenlive:thumbs_format"/>
  <property name="kdenlive:audio_rec"/>
  <property name="kdenlive:timeline_active">0</property>
  <track hide="audio" producer="playlist6"/>
  <track hide="audio" producer="playlist7"/>
 </tractor>
 <producer title="Anonymous Submission" id="producer73" in="00:00:00.000" out="00:03:29.480">
  <property name="length">5238</property>
  <property name="eof">pause</property>
  <property name="resource">C:/Users/SERGEI/Music/Fredi_Mercury/freddi_merkjuri_-_dont_stop_me_now_(zf.fm).mp3</property>
  <property name="meta.media.nb_streams">1</property>
  <property name="meta.media.0.stream.type">audio</property>
  <property name="meta.media.0.codec.sample_fmt">fltp</property>
  <property name="meta.media.0.codec.sample_rate">44100</property>
  <property name="meta.media.0.codec.channels">2</property>
  <property name="meta.media.0.codec.name">mp3float</property>
  <property name="meta.media.0.codec.long_name">MP3 (MPEG audio layer 3)</property>
  <property name="meta.media.0.codec.bit_rate">239513</property>
  <property name="meta.attr.0.stream.encoder.markup">LAME3.92 </property>
  <property name="meta.attr.title.markup">Don't stop me now</property>
  <property name="meta.attr.artist.markup">Фредди Меркьюри</property>
  <property name="seekable">1</property>
  <property name="audio_index">0</property>
  <property name="video_index">-1</property>
  <property name="mute_on_pause">1</property>
  <property name="mlt_service">avformat-novalidate</property>
  <property name="kdenlive:clipname"/>
  <property name="kdenlive:id">2</property>
  <property name="kdenlive:file_size">6273024</property>
  <property name="kdenlive:file_hash">038ef90b483ad2f8a87616ae0616f37e</property>
  <property name="kdenlive:folderid">-1</property>
  <property name="global_feed">1</property>
  <property name="xml">was here</property>
  <property name="set.test_audio">0</property>
  <property name="set.test_image">1</property>
 </producer>
 <playlist id="playlist8">
  <property name="kdenlive:audio_track">1</property>
  <entry producer="producer73" in="00:00:03.000" out="00:03:29.480">
   <property name="kdenlive:id">2</property>
  </entry>
 </playlist>
 <playlist id="playlist9">
  <property name="kdenlive:audio_track">1</property>
 </playlist>
 <tractor id="tractor4" in="00:00:00.000" out="00:03:26.480">
  <property name="kdenlive:audio_track">1</property>
  <property name="kdenlive:trackheight">56</property>
  <property name="kdenlive:collapsed">0</property>
  <property name="kdenlive:thumbs_format"/>
  <property name="kdenlive:audio_rec"/>
  <track hide="video" producer="playlist8"/>
  <track hide="video" producer="playlist9"/>
 </tractor>
 <tractor title="Anonymous Submission" id="tractor5" global_feed="1" in="00:00:00.000" out="00:23:26.520">
  <track producer="black_track"/>
  <track producer="tractor0"/>
  <track producer="tractor1"/>
  <track producer="tractor2"/>
  <track producer="tractor3"/>
  <track producer="tractor4"/>
  <transition id="transition0">
   <property name="a_track">0</property>
   <property name="b_track">1</property>
   <property name="compositing">0</property>
   <property name="distort">0</property>
   <property name="rotate_center">0</property>
   <property name="mlt_service">qtblend</property>
   <property name="kdenlive_id">qtblend</property>
   <property name="internal_added">237</property>
   <property name="always_active">1</property>
  </transition>
  <transition id="transition1">
   <property name="a_track">0</property>
   <property name="b_track">2</property>
   <property name="compositing">0</property>
   <property name="distort">0</property>
   <property name="rotate_center">0</property>
   <property name="mlt_service">qtblend</property>
   <property name="kdenlive_id">qtblend</property>
   <property name="internal_added">237</property>
   <property name="always_active">1</property>
  </transition>
  <transition id="transition2">
   <property name="a_track">0</property>
   <property name="b_track">3</property>
   <property name="compositing">0</property>
   <property name="distort">0</property>
   <property name="rotate_center">0</property>
   <property name="mlt_service">qtblend</property>
   <property name="kdenlive_id">qtblend</property>
   <property name="internal_added">237</property>
   <property name="always_active">1</property>
  </transition>
  <transition id="transition3">
   <property name="a_track">0</property>
   <property name="b_track">4</property>
   <property name="compositing">0</property>
   <property name="distort">0</property>
   <property name="rotate_center">0</property>
   <property name="mlt_service">qtblend</property>
   <property name="kdenlive_id">qtblend</property>
   <property name="internal_added">237</property>
   <property name="always_active">1</property>
  </transition>
  <transition id="transition4">
   <property name="a_track">0</property>
   <property name="b_track">5</property>
   <property name="mlt_service">mix</property>
   <property name="kdenlive_id">mix</property>
   <property name="internal_added">237</property>
   <property name="always_active">1</property>
   <property name="sum">1</property>
  </transition>
 </tractor>
</mlt>
