<?xml version='1.0' encoding='utf-8'?>
<mlt title="Anonymous Submission" LC_NUMERIC="en_US" producer="main_bin" version="6.17.0" root="C:/Users/SERGEI/Pictures/Photo/2019/Ark_Ben_1/AB_1">
 <profile frame_rate_num="25" sample_aspect_num="1" display_aspect_den="9" colorspace="709" progressive="1" description="HD 1080p 25 fps" display_aspect_num="16" frame_rate_den="1" width="1920" height="1080" sample_aspect_den="1"/>
 <producer title="Anonymous Submission" id="producer0" in="00:00:00.000" out="00:03:13.760">
  <property name="length">4845</property>
  <property name="eof">pause</property>
  <property name="resource">C:/Users/SERGEI/Downloads/VID-20190812-WA0000.mp4</property>
  <property name="audio_index">1</property>
  <property name="video_index">0</property>
  <property name="mute_on_pause">1</property>
  <property name="mlt_service">avformat-novalidate</property>
  <property name="meta.media.nb_streams">2</property>
  <property name="meta.media.0.stream.type">video</property>
  <property name="meta.media.0.stream.frame_rate">30</property>
  <property name="meta.media.0.stream.sample_aspect_ratio">0</property>
  <property name="meta.media.0.codec.width">1920</property>
  <property name="meta.media.0.codec.height">1080</property>
  <property name="meta.media.0.codec.rotate">0</property>
  <property name="meta.media.0.codec.frame_rate">30</property>
  <property name="meta.media.0.codec.pix_fmt">yuv420p</property>
  <property name="meta.media.0.codec.sample_aspect_ratio">1</property>
  <property name="meta.media.0.codec.colorspace">709</property>
  <property name="meta.media.0.codec.color_trc">1</property>
  <property name="meta.media.0.codec.name">h264</property>
  <property name="meta.media.0.codec.long_name">H.264 / AVC / MPEG-4 AVC / MPEG-4 part 10</property>
  <property name="meta.media.0.codec.bit_rate">1466494</property>
  <property name="meta.attr.0.stream.creation_time.markup">2019-08-12T08:15:03.000000Z</property>
  <property name="meta.attr.0.stream.handler_name.markup">ISO Media file produced by Google Inc. Created on: 08/12/2019.</property>
  <property name="meta.media.1.stream.type">audio</property>
  <property name="meta.media.1.codec.sample_fmt">fltp</property>
  <property name="meta.media.1.codec.sample_rate">44100</property>
  <property name="meta.media.1.codec.channels">2</property>
  <property name="meta.media.1.codec.name">aac</property>
  <property name="meta.media.1.codec.long_name">AAC (Advanced Audio Coding)</property>
  <property name="meta.media.1.codec.bit_rate">127999</property>
  <property name="meta.attr.1.stream.creation_time.markup">2019-08-12T08:15:03.000000Z</property>
  <property name="meta.attr.1.stream.handler_name.markup">ISO Media file produced by Google Inc. Created on: 08/12/2019.</property>
  <property name="meta.attr.major_brand.markup">mp42</property>
  <property name="meta.attr.minor_version.markup">0</property>
  <property name="meta.attr.compatible_brands.markup">isommp42</property>
  <property name="meta.attr.creation_time.markup">2019-08-11T20:53:00.000000Z</property>
  <property name="meta.attr.encoder.markup">Google</property>
  <property name="seekable">1</property>
  <property name="meta.media.sample_aspect_num">1</property>
  <property name="meta.media.sample_aspect_den">1</property>
  <property name="aspect_ratio">1</property>
  <property name="kdenlive:clipname"/>
  <property name="meta.media.frame_rate_num">30</property>
  <property name="meta.media.frame_rate_den">1</property>
  <property name="meta.media.colorspace">709</property>
  <property name="meta.media.color_trc">1</property>
  <property name="meta.media.width">1920</property>
  <property name="meta.media.height">1080</property>
  <property name="meta.media.top_field_first">0</property>
  <property name="meta.media.progressive">1</property>
  <property name="kdenlive:id">2</property>
  <property name="kdenlive:file_size">38676625</property>
  <property name="kdenlive:file_hash">e995e3b3773666083d6530da64c2c8f7</property>
  <property name="kdenlive:folderid">-1</property>
  <property name="global_feed">1</property>
 </producer>
 <producer title="Anonymous Submission" id="producer1" in="00:00:00.000" out="00:00:04.960">
  <property name="length">00:00:05.000</property>
  <property name="eof">loop</property>
  <property name="resource">C:/Users/SERGEI/Downloads/VID-20190430-WA0000-ANIMATION.gif</property>
  <property name="meta.media.nb_streams">1</property>
  <property name="meta.media.0.stream.type">video</property>
  <property name="meta.media.0.stream.frame_rate">13.3333</property>
  <property name="meta.media.0.stream.sample_aspect_ratio">0</property>
  <property name="meta.media.0.codec.width">640</property>
  <property name="meta.media.0.codec.height">360</property>
  <property name="meta.media.0.codec.rotate">0</property>
  <property name="meta.media.0.codec.frame_rate">100</property>
  <property name="meta.media.0.codec.pix_fmt">bgra</property>
  <property name="meta.media.0.codec.sample_aspect_ratio">0</property>
  <property name="meta.media.0.codec.colorspace">601</property>
  <property name="meta.media.0.codec.name">gif</property>
  <property name="meta.media.0.codec.long_name">GIF (Graphics Interchange Format)</property>
  <property name="meta.media.0.codec.bit_rate">0</property>
  <property name="seekable">0</property>
  <property name="meta.media.sample_aspect_num">1</property>
  <property name="meta.media.sample_aspect_den">1</property>
  <property name="aspect_ratio">1</property>
  <property name="audio_index">-1</property>
  <property name="video_index">0</property>
  <property name="mute_on_pause">1</property>
  <property name="mlt_service">avformat-novalidate</property>
  <property name="kdenlive:clipname"/>
  <property name="kdenlive:duration">00:00:05.000</property>
  <property name="meta.media.frame_rate_num">40</property>
  <property name="meta.media.frame_rate_den">3</property>
  <property name="meta.media.colorspace">601</property>
  <property name="meta.media.color_trc">2</property>
  <property name="meta.media.width">640</property>
  <property name="meta.media.height">360</property>
  <property name="kdenlive:id">3</property>
  <property name="kdenlive:file_size">4953996</property>
  <property name="kdenlive:file_hash">e8a44fb17fce1e564d4868ac309803de</property>
  <property name="kdenlive:folderid">-1</property>
  <property name="meta.media.top_field_first">0</property>
  <property name="meta.media.progressive">1</property>
  <property name="global_feed">1</property>
 </producer>
 <producer title="Anonymous Submission" id="producer2" in="00:00:00.000" out="00:00:20.800">
  <property name="length">521</property>
  <property name="eof">pause</property>
  <property name="resource">C:/Users/SERGEI/Downloads/VID-20190516-WA0001.mp4</property>
  <property name="meta.media.nb_streams">2</property>
  <property name="meta.media.0.stream.type">video</property>
  <property name="meta.media.0.stream.frame_rate">30</property>
  <property name="meta.media.0.stream.sample_aspect_ratio">0</property>
  <property name="meta.media.0.codec.width">640</property>
  <property name="meta.media.0.codec.height">352</property>
  <property name="meta.media.0.codec.rotate">0</property>
  <property name="meta.media.0.codec.frame_rate">30</property>
  <property name="meta.media.0.codec.pix_fmt">yuv420p</property>
  <property name="meta.media.0.codec.sample_aspect_ratio">1</property>
  <property name="meta.media.0.codec.colorspace">601</property>
  <property name="meta.media.0.codec.name">h264</property>
  <property name="meta.media.0.codec.long_name">H.264 / AVC / MPEG-4 AVC / MPEG-4 part 10</property>
  <property name="meta.media.0.codec.bit_rate">393840</property>
  <property name="meta.attr.0.stream.creation_time.markup">2019-05-16T17:14:40.000000Z</property>
  <property name="meta.attr.0.stream.handler_name.markup">ISO Media file produced by Google Inc. Created on: 05/16/2019.</property>
  <property name="meta.media.1.stream.type">audio</property>
  <property name="meta.media.1.codec.sample_fmt">fltp</property>
  <property name="meta.media.1.codec.sample_rate">44100</property>
  <property name="meta.media.1.codec.channels">2</property>
  <property name="meta.media.1.codec.name">aac</property>
  <property name="meta.media.1.codec.long_name">AAC (Advanced Audio Coding)</property>
  <property name="meta.media.1.codec.bit_rate">128187</property>
  <property name="meta.attr.1.stream.creation_time.markup">2019-05-16T17:14:40.000000Z</property>
  <property name="meta.attr.1.stream.handler_name.markup">ISO Media file produced by Google Inc. Created on: 05/16/2019.</property>
  <property name="meta.attr.major_brand.markup">mp42</property>
  <property name="meta.attr.minor_version.markup">0</property>
  <property name="meta.attr.compatible_brands.markup">isommp42</property>
  <property name="meta.attr.creation_time.markup">2019-05-16T17:14:40.000000Z</property>
  <property name="meta.attr.encoder.markup">Google</property>
  <property name="seekable">1</property>
  <property name="meta.media.sample_aspect_num">1</property>
  <property name="meta.media.sample_aspect_den">1</property>
  <property name="aspect_ratio">1</property>
  <property name="audio_index">1</property>
  <property name="video_index">0</property>
  <property name="mute_on_pause">1</property>
  <property name="mlt_service">avformat-novalidate</property>
  <property name="kdenlive:clipname"/>
  <property name="meta.media.frame_rate_num">30</property>
  <property name="meta.media.frame_rate_den">1</property>
  <property name="meta.media.colorspace">601</property>
  <property name="meta.media.color_trc">2</property>
  <property name="meta.media.width">640</property>
  <property name="meta.media.height">352</property>
  <property name="kdenlive:id">4</property>
  <property name="kdenlive:file_size">1365936</property>
  <property name="kdenlive:file_hash">b45bfd31a09f350cc71c9a5f54418318</property>
  <property name="kdenlive:folderid">-1</property>
  <property name="meta.media.top_field_first">0</property>
  <property name="meta.media.progressive">1</property>
  <property name="global_feed">1</property>
 </producer>
 <producer title="Anonymous Submission" id="producer3" in="00:00:00.000" out="00:01:10.400">
  <property name="length">1761</property>
  <property name="eof">pause</property>
  <property name="resource">C:/Users/SERGEI/Downloads/VID-20190204-WA0000.mp4</property>
  <property name="meta.media.nb_streams">2</property>
  <property name="meta.media.0.stream.type">video</property>
  <property name="meta.media.0.stream.frame_rate">30</property>
  <property name="meta.media.0.stream.sample_aspect_ratio">0</property>
  <property name="meta.media.0.codec.width">1920</property>
  <property name="meta.media.0.codec.height">1080</property>
  <property name="meta.media.0.codec.rotate">0</property>
  <property name="meta.media.0.codec.frame_rate">30</property>
  <property name="meta.media.0.codec.pix_fmt">yuv420p</property>
  <property name="meta.media.0.codec.sample_aspect_ratio">1</property>
  <property name="meta.media.0.codec.colorspace">709</property>
  <property name="meta.media.0.codec.color_trc">1</property>
  <property name="meta.media.0.codec.name">h264</property>
  <property name="meta.media.0.codec.long_name">H.264 / AVC / MPEG-4 AVC / MPEG-4 part 10</property>
  <property name="meta.media.0.codec.bit_rate">1411528</property>
  <property name="meta.attr.0.stream.handler_name.markup">VideoHandler</property>
  <property name="meta.media.1.stream.type">audio</property>
  <property name="meta.media.1.codec.sample_fmt">fltp</property>
  <property name="meta.media.1.codec.sample_rate">44100</property>
  <property name="meta.media.1.codec.channels">2</property>
  <property name="meta.media.1.codec.name">aac</property>
  <property name="meta.media.1.codec.long_name">AAC (Advanced Audio Coding)</property>
  <property name="meta.media.1.codec.bit_rate">127999</property>
  <property name="meta.attr.1.stream.creation_time.markup">2019-02-04T08:35:44.000000Z</property>
  <property name="meta.attr.1.stream.handler_name.markup">IsoMedia File Produced by Google, 5-11-2011</property>
  <property name="meta.attr.major_brand.markup">mp42</property>
  <property name="meta.attr.minor_version.markup">0</property>
  <property name="meta.attr.compatible_brands.markup">isommp42</property>
  <property name="meta.attr.creation_time.markup">2019-02-03T18:04:43.000000Z</property>
  <property name="seekable">1</property>
  <property name="meta.media.sample_aspect_num">1</property>
  <property name="meta.media.sample_aspect_den">1</property>
  <property name="aspect_ratio">1</property>
  <property name="audio_index">1</property>
  <property name="video_index">0</property>
  <property name="mute_on_pause">1</property>
  <property name="mlt_service">avformat-novalidate</property>
  <property name="kdenlive:clipname"/>
  <property name="meta.media.frame_rate_num">30</property>
  <property name="meta.media.frame_rate_den">1</property>
  <property name="meta.media.colorspace">709</property>
  <property name="meta.media.color_trc">1</property>
  <property name="meta.media.width">1920</property>
  <property name="meta.media.height">1080</property>
  <property name="kdenlive:id">5</property>
  <property name="kdenlive:file_size">13560931</property>
  <property name="kdenlive:file_hash">8d9a3b381fe8d1f11de90545a4575de2</property>
  <property name="kdenlive:folderid">-1</property>
  <property name="meta.media.top_field_first">0</property>
  <property name="meta.media.progressive">1</property>
  <property name="global_feed">1</property>
 </producer>
 <playlist id="main_bin">
  <property name="kdenlive:docproperties.activeTrack">1</property>
  <property name="kdenlive:docproperties.audioTarget">-1</property>
  <property name="kdenlive:docproperties.decimalPoint">.</property>
  <property name="kdenlive:docproperties.disablepreview">0</property>
  <property name="kdenlive:docproperties.documentid">1568902387311</property>
  <property name="kdenlive:docproperties.enableTimelineZone">0</property>
  <property name="kdenlive:docproperties.enableexternalproxy">0</property>
  <property name="kdenlive:docproperties.enableproxy">0</property>
  <property name="kdenlive:docproperties.externalproxyparams"/>
  <property name="kdenlive:docproperties.generateimageproxy">0</property>
  <property name="kdenlive:docproperties.generateproxy">0</property>
  <property name="kdenlive:docproperties.groups">[
]
</property>
  <property name="kdenlive:docproperties.kdenliveversion">19.04.2</property>
  <property name="kdenlive:docproperties.position">7160</property>
  <property name="kdenlive:docproperties.previewextension"/>
  <property name="kdenlive:docproperties.previewparameters"/>
  <property name="kdenlive:docproperties.profile">atsc_1080p_25</property>
  <property name="kdenlive:docproperties.proxyextension">mkv</property>
  <property name="kdenlive:docproperties.proxyimageminsize">2000</property>
  <property name="kdenlive:docproperties.proxyimagesize">800</property>
  <property name="kdenlive:docproperties.proxyminsize">1000</property>
  <property name="kdenlive:docproperties.proxyparams">-vf yadif,scale=960:-2 -qscale 3 -vcodec mjpeg -acodec pcm_s16le</property>
  <property name="kdenlive:docproperties.scrollPos">7554</property>
  <property name="kdenlive:docproperties.seekOffset">30000</property>
  <property name="kdenlive:docproperties.version">0.98</property>
  <property name="kdenlive:docproperties.verticalzoom">1</property>
  <property name="kdenlive:docproperties.videoTarget">1</property>
  <property name="kdenlive:docproperties.zonein">0</property>
  <property name="kdenlive:docproperties.zoneout">75</property>
  <property name="kdenlive:docproperties.zoom">6</property>
  <property name="kdenlive:documentnotes"/>
  <property name="xml_retain">1</property>
  <entry producer="producer0" in="00:00:00.000" out="00:03:13.760"/>
  <entry producer="producer1" in="00:00:00.000" out="00:00:04.960"/>
  <entry producer="producer2" in="00:00:00.000" out="00:00:20.800"/>
  <entry producer="producer3" in="00:00:00.000" out="00:01:10.400"/>
 </playlist>
 <producer id="black_track" in="00:00:00.000" out="00:24:50.080">
  <property name="length">2147483647</property>
  <property name="eof">continue</property>
  <property name="resource">black</property>
  <property name="aspect_ratio">1</property>
  <property name="mlt_service">color</property>
  <property name="set.test_audio">0</property>
 </producer>
 <playlist id="playlist0"/>
 <playlist id="playlist1"/>
 <tractor id="tractor0" in="00:00:00.000">
  <property name="kdenlive:trackheight">56</property>
  <track producer="playlist0"/>
  <track producer="playlist1"/>
 </tractor>
 <producer title="Anonymous Submission" id="producer4" in="00:00:00.000" out="00:03:13.760">
  <property name="length">4845</property>
  <property name="eof">pause</property>
  <property name="resource">C:/Users/SERGEI/Downloads/VID-20190812-WA0000.mp4</property>
  <property name="audio_index">1</property>
  <property name="video_index">0</property>
  <property name="mute_on_pause">1</property>
  <property name="mlt_service">avformat-novalidate</property>
  <property name="seekable">1</property>
  <property name="aspect_ratio">1</property>
  <property name="kdenlive:clipname"/>
  <property name="kdenlive:id">2</property>
  <property name="kdenlive:file_size">38676625</property>
  <property name="kdenlive:file_hash">e995e3b3773666083d6530da64c2c8f7</property>
  <property name="kdenlive:folderid">-1</property>
  <property name="global_feed">1</property>
  <property name="xml">was here</property>
  <property name="meta.media.nb_streams">2</property>
  <property name="meta.media.0.stream.type">video</property>
  <property name="meta.media.0.stream.frame_rate">30</property>
  <property name="meta.media.0.stream.sample_aspect_ratio">0</property>
  <property name="meta.media.0.codec.width">1920</property>
  <property name="meta.media.0.codec.height">1080</property>
  <property name="meta.media.0.codec.rotate">0</property>
  <property name="meta.media.0.codec.frame_rate">30</property>
  <property name="meta.media.0.codec.pix_fmt">yuv420p</property>
  <property name="meta.media.0.codec.sample_aspect_ratio">1</property>
  <property name="meta.media.0.codec.colorspace">709</property>
  <property name="meta.media.0.codec.color_trc">1</property>
  <property name="meta.media.0.codec.name">h264</property>
  <property name="meta.media.0.codec.long_name">H.264 / AVC / MPEG-4 AVC / MPEG-4 part 10</property>
  <property name="meta.media.0.codec.bit_rate">1466494</property>
  <property name="meta.attr.0.stream.creation_time.markup">2019-08-12T08:15:03.000000Z</property>
  <property name="meta.attr.0.stream.handler_name.markup">ISO Media file produced by Google Inc. Created on: 08/12/2019.</property>
  <property name="meta.media.1.stream.type">audio</property>
  <property name="meta.media.1.codec.sample_fmt">fltp</property>
  <property name="meta.media.1.codec.sample_rate">44100</property>
  <property name="meta.media.1.codec.channels">2</property>
  <property name="meta.media.1.codec.name">aac</property>
  <property name="meta.media.1.codec.long_name">AAC (Advanced Audio Coding)</property>
  <property name="meta.media.1.codec.bit_rate">127999</property>
  <property name="meta.attr.1.stream.creation_time.markup">2019-08-12T08:15:03.000000Z</property>
  <property name="meta.attr.1.stream.handler_name.markup">ISO Media file produced by Google Inc. Created on: 08/12/2019.</property>
  <property name="meta.attr.major_brand.markup">mp42</property>
  <property name="meta.attr.minor_version.markup">0</property>
  <property name="meta.attr.compatible_brands.markup">isommp42</property>
  <property name="meta.attr.creation_time.markup">2019-08-11T20:53:00.000000Z</property>
  <property name="meta.attr.encoder.markup">Google</property>
  <property name="meta.media.sample_aspect_num">1</property>
  <property name="meta.media.sample_aspect_den">1</property>
  <property name="meta.media.frame_rate_num">30</property>
  <property name="meta.media.frame_rate_den">1</property>
  <property name="meta.media.colorspace">709</property>
  <property name="meta.media.color_trc">1</property>
  <property name="meta.media.width">1920</property>
  <property name="meta.media.height">1080</property>
  <property name="meta.media.top_field_first">0</property>
  <property name="meta.media.progressive">1</property>
  <property name="set.test_audio">1</property>
  <property name="set.test_image">0</property>
 </producer>
 <producer title="Anonymous Submission" id="producer5" in="00:00:00.000" out="00:00:04.960">
  <property name="length">00:00:05.000</property>
  <property name="eof">loop</property>
  <property name="resource">C:/Users/SERGEI/Downloads/VID-20190430-WA0000-ANIMATION.gif</property>
  <property name="audio_index">-1</property>
  <property name="video_index">0</property>
  <property name="mute_on_pause">1</property>
  <property name="mlt_service">avformat-novalidate</property>
  <property name="seekable">1</property>
  <property name="aspect_ratio">1</property>
  <property name="kdenlive:clipname"/>
  <property name="kdenlive:duration">00:00:05.000</property>
  <property name="kdenlive:id">3</property>
  <property name="kdenlive:file_size">4953996</property>
  <property name="kdenlive:file_hash">e8a44fb17fce1e564d4868ac309803de</property>
  <property name="kdenlive:folderid">-1</property>
  <property name="global_feed">1</property>
  <property name="xml">was here</property>
  <property name="meta.media.nb_streams">1</property>
  <property name="meta.media.0.stream.type">video</property>
  <property name="meta.media.0.stream.frame_rate">13.3333</property>
  <property name="meta.media.0.stream.sample_aspect_ratio">0</property>
  <property name="meta.media.0.codec.width">640</property>
  <property name="meta.media.0.codec.height">360</property>
  <property name="meta.media.0.codec.rotate">0</property>
  <property name="meta.media.0.codec.frame_rate">100</property>
  <property name="meta.media.0.codec.pix_fmt">bgra</property>
  <property name="meta.media.0.codec.sample_aspect_ratio">0</property>
  <property name="meta.media.0.codec.colorspace">601</property>
  <property name="meta.media.0.codec.name">gif</property>
  <property name="meta.media.0.codec.long_name">GIF (Graphics Interchange Format)</property>
  <property name="meta.media.0.codec.bit_rate">0</property>
  <property name="meta.media.sample_aspect_num">1</property>
  <property name="meta.media.sample_aspect_den">1</property>
  <property name="meta.media.frame_rate_num">40</property>
  <property name="meta.media.frame_rate_den">3</property>
  <property name="meta.media.colorspace">601</property>
  <property name="meta.media.color_trc">2</property>
  <property name="meta.media.width">640</property>
  <property name="meta.media.height">360</property>
  <property name="meta.media.top_field_first">0</property>
  <property name="meta.media.progressive">1</property>
  <property name="set.test_audio">1</property>
  <property name="set.test_image">0</property>
 </producer>
 <producer title="Anonymous Submission" id="producer6" in="00:00:00.000" out="00:01:10.400">
  <property name="length">1761</property>
  <property name="eof">pause</property>
  <property name="resource">C:/Users/SERGEI/Downloads/VID-20190204-WA0000.mp4</property>
  <property name="audio_index">1</property>
  <property name="video_index">0</property>
  <property name="mute_on_pause">1</property>
  <property name="mlt_service">avformat-novalidate</property>
  <property name="seekable">1</property>
  <property name="aspect_ratio">1</property>
  <property name="kdenlive:clipname"/>
  <property name="kdenlive:id">5</property>
  <property name="kdenlive:file_size">13560931</property>
  <property name="kdenlive:file_hash">8d9a3b381fe8d1f11de90545a4575de2</property>
  <property name="kdenlive:folderid">-1</property>
  <property name="global_feed">1</property>
  <property name="xml">was here</property>
  <property name="meta.media.nb_streams">2</property>
  <property name="meta.media.0.stream.type">video</property>
  <property name="meta.media.0.stream.frame_rate">30</property>
  <property name="meta.media.0.stream.sample_aspect_ratio">0</property>
  <property name="meta.media.0.codec.width">1920</property>
  <property name="meta.media.0.codec.height">1080</property>
  <property name="meta.media.0.codec.rotate">0</property>
  <property name="meta.media.0.codec.frame_rate">30</property>
  <property name="meta.media.0.codec.pix_fmt">yuv420p</property>
  <property name="meta.media.0.codec.sample_aspect_ratio">1</property>
  <property name="meta.media.0.codec.colorspace">709</property>
  <property name="meta.media.0.codec.color_trc">1</property>
  <property name="meta.media.0.codec.name">h264</property>
  <property name="meta.media.0.codec.long_name">H.264 / AVC / MPEG-4 AVC / MPEG-4 part 10</property>
  <property name="meta.media.0.codec.bit_rate">1411528</property>
  <property name="meta.attr.0.stream.handler_name.markup">VideoHandler</property>
  <property name="meta.media.1.stream.type">audio</property>
  <property name="meta.media.1.codec.sample_fmt">fltp</property>
  <property name="meta.media.1.codec.sample_rate">44100</property>
  <property name="meta.media.1.codec.channels">2</property>
  <property name="meta.media.1.codec.name">aac</property>
  <property name="meta.media.1.codec.long_name">AAC (Advanced Audio Coding)</property>
  <property name="meta.media.1.codec.bit_rate">127999</property>
  <property name="meta.attr.1.stream.creation_time.markup">2019-02-04T08:35:44.000000Z</property>
  <property name="meta.attr.1.stream.handler_name.markup">IsoMedia File Produced by Google, 5-11-2011</property>
  <property name="meta.attr.major_brand.markup">mp42</property>
  <property name="meta.attr.minor_version.markup">0</property>
  <property name="meta.attr.compatible_brands.markup">isommp42</property>
  <property name="meta.attr.creation_time.markup">2019-02-03T18:04:43.000000Z</property>
  <property name="meta.media.sample_aspect_num">1</property>
  <property name="meta.media.sample_aspect_den">1</property>
  <property name="meta.media.frame_rate_num">30</property>
  <property name="meta.media.frame_rate_den">1</property>
  <property name="meta.media.colorspace">709</property>
  <property name="meta.media.color_trc">1</property>
  <property name="meta.media.width">1920</property>
  <property name="meta.media.height">1080</property>
  <property name="meta.media.top_field_first">0</property>
  <property name="meta.media.progressive">1</property>
  <property name="set.test_audio">1</property>
  <property name="set.test_image">0</property>
 </producer>
 <playlist id="playlist2">
  <blank length="00:00:04.000"/>
  <entry producer="producer4" in="00:00:04.000" out="00:00:05.240">
   <property name="kdenlive:id">2</property>
  </entry>
  <blank length="00:00:01.880"/>
  <entry producer="producer4" in="00:00:07.160" out="00:00:07.680">
   <property name="kdenlive:id">2</property>
  </entry>
  <blank length="00:00:02.040"/>
  <entry producer="producer4" in="00:00:09.760" out="00:00:14.840">
   <property name="kdenlive:id">2</property>
  </entry>
  <blank length="00:00:01.080"/>
  <entry producer="producer4" in="00:00:15.960" out="00:00:24.080">
   <property name="kdenlive:id">2</property>
  </entry>
  <blank length="00:00:02.040"/>
  <entry producer="producer4" in="00:00:26.160" out="00:00:27.960">
   <property name="kdenlive:id">2</property>
  </entry>
  <blank length="00:00:08.080"/>
  <entry producer="producer4" in="00:00:36.080" out="00:00:43.640">
   <property name="kdenlive:id">2</property>
  </entry>
  <blank length="00:00:01.960"/>
  <entry producer="producer4" in="00:00:45.640" out="00:00:54.640">
   <property name="kdenlive:id">2</property>
  </entry>
  <blank length="00:00:02.000"/>
  <entry producer="producer4" in="00:00:56.680" out="00:00:58.600">
   <property name="kdenlive:id">2</property>
  </entry>
  <blank length="00:00:03.960"/>
  <entry producer="producer4" in="00:01:02.600" out="00:01:12.120">
   <property name="kdenlive:id">2</property>
  </entry>
  <blank length="00:00:08.360"/>
  <entry producer="producer4" in="00:01:20.520" out="00:01:25.200">
   <property name="kdenlive:id">2</property>
  </entry>
  <blank length="00:00:09.840"/>
  <entry producer="producer4" in="00:01:35.080" out="00:01:38.920">
   <property name="kdenlive:id">2</property>
  </entry>
  <blank length="00:00:04.040"/>
  <entry producer="producer4" in="00:01:43.000" out="00:01:50.960">
   <property name="kdenlive:id">2</property>
  </entry>
  <blank length="00:00:05.880"/>
  <entry producer="producer4" in="00:01:56.880" out="00:02:56.960">
   <property name="kdenlive:id">2</property>
  </entry>
  <blank length="00:00:16.800"/>
  <entry producer="producer5" in="00:00:00.000" out="00:00:04.960">
   <property name="kdenlive:id">3</property>
  </entry>
  <blank length="00:00:20.840"/>
  <entry producer="producer6" in="00:00:00.000" out="00:00:02.760">
   <property name="kdenlive:id">5</property>
  </entry>
  <blank length="00:00:09.320"/>
  <entry producer="producer6" in="00:00:12.120" out="00:00:14.360">
   <property name="kdenlive:id">5</property>
  </entry>
  <blank length="00:00:02.360"/>
  <entry producer="producer6" in="00:00:16.760" out="00:00:19.520">
   <property name="kdenlive:id">5</property>
  </entry>
  <blank length="00:00:02.000"/>
  <entry producer="producer6" in="00:00:21.560" out="00:00:26.200">
   <property name="kdenlive:id">5</property>
  </entry>
  <blank length="00:00:02.120"/>
  <entry producer="producer6" in="00:00:28.360" out="00:00:30.920">
   <property name="kdenlive:id">5</property>
  </entry>
  <blank length="00:00:02.040"/>
  <entry producer="producer6" in="00:00:33.000" out="00:00:35.640">
   <property name="kdenlive:id">5</property>
  </entry>
  <blank length="00:00:01.880"/>
  <entry producer="producer6" in="00:00:37.560" out="00:00:41.000">
   <property name="kdenlive:id">5</property>
  </entry>
  <blank length="00:00:03.800"/>
  <entry producer="producer6" in="00:00:44.840" out="00:00:48.160">
   <property name="kdenlive:id">5</property>
  </entry>
  <blank length="00:00:05.800"/>
  <entry producer="producer6" in="00:00:54.000" out="00:00:56.200">
   <property name="kdenlive:id">5</property>
  </entry>
  <blank length="00:00:02.040"/>
  <entry producer="producer6" in="00:00:58.280" out="00:01:01.000">
   <property name="kdenlive:id">5</property>
  </entry>
  <blank length="00:00:02.240"/>
  <entry producer="producer6" in="00:01:03.280" out="00:01:10.400">
   <property name="kdenlive:id">5</property>
  </entry>
 </playlist>
 <playlist id="playlist3"/>
 <tractor id="tractor1" in="00:00:00.000" out="00:04:50.040">
  <property name="kdenlive:trackheight">56</property>
  <property name="kdenlive:collapsed">0</property>
  <property name="kdenlive:thumbs_format"/>
  <property name="kdenlive:audio_rec"/>
  <track hide="audio" producer="playlist2"/>
  <track hide="audio" producer="playlist3"/>
 </tractor>
 <producer title="Anonymous Submission" id="producer7" in="00:00:00.000" out="00:03:13.760">
  <property name="length">4845</property>
  <property name="eof">pause</property>
  <property name="resource">C:/Users/SERGEI/Downloads/VID-20190812-WA0000.mp4</property>
  <property name="audio_index">1</property>
  <property name="video_index">0</property>
  <property name="mute_on_pause">1</property>
  <property name="mlt_service">avformat-novalidate</property>
  <property name="seekable">1</property>
  <property name="aspect_ratio">1</property>
  <property name="kdenlive:clipname"/>
  <property name="kdenlive:id">2</property>
  <property name="kdenlive:file_size">38676625</property>
  <property name="kdenlive:file_hash">e995e3b3773666083d6530da64c2c8f7</property>
  <property name="kdenlive:folderid">-1</property>
  <property name="global_feed">1</property>
  <property name="xml">was here</property>
  <property name="meta.media.nb_streams">2</property>
  <property name="meta.media.0.stream.type">video</property>
  <property name="meta.media.0.stream.frame_rate">30</property>
  <property name="meta.media.0.stream.sample_aspect_ratio">0</property>
  <property name="meta.media.0.codec.width">1920</property>
  <property name="meta.media.0.codec.height">1080</property>
  <property name="meta.media.0.codec.rotate">0</property>
  <property name="meta.media.0.codec.frame_rate">30</property>
  <property name="meta.media.0.codec.pix_fmt">yuv420p</property>
  <property name="meta.media.0.codec.sample_aspect_ratio">1</property>
  <property name="meta.media.0.codec.colorspace">709</property>
  <property name="meta.media.0.codec.color_trc">1</property>
  <property name="meta.media.0.codec.name">h264</property>
  <property name="meta.media.0.codec.long_name">H.264 / AVC / MPEG-4 AVC / MPEG-4 part 10</property>
  <property name="meta.media.0.codec.bit_rate">1466494</property>
  <property name="meta.attr.0.stream.creation_time.markup">2019-08-12T08:15:03.000000Z</property>
  <property name="meta.attr.0.stream.handler_name.markup">ISO Media file produced by Google Inc. Created on: 08/12/2019.</property>
  <property name="meta.media.1.stream.type">audio</property>
  <property name="meta.media.1.codec.sample_fmt">fltp</property>
  <property name="meta.media.1.codec.sample_rate">44100</property>
  <property name="meta.media.1.codec.channels">2</property>
  <property name="meta.media.1.codec.name">aac</property>
  <property name="meta.media.1.codec.long_name">AAC (Advanced Audio Coding)</property>
  <property name="meta.media.1.codec.bit_rate">127999</property>
  <property name="meta.attr.1.stream.creation_time.markup">2019-08-12T08:15:03.000000Z</property>
  <property name="meta.attr.1.stream.handler_name.markup">ISO Media file produced by Google Inc. Created on: 08/12/2019.</property>
  <property name="meta.attr.major_brand.markup">mp42</property>
  <property name="meta.attr.minor_version.markup">0</property>
  <property name="meta.attr.compatible_brands.markup">isommp42</property>
  <property name="meta.attr.creation_time.markup">2019-08-11T20:53:00.000000Z</property>
  <property name="meta.attr.encoder.markup">Google</property>
  <property name="meta.media.sample_aspect_num">1</property>
  <property name="meta.media.sample_aspect_den">1</property>
  <property name="meta.media.frame_rate_num">30</property>
  <property name="meta.media.frame_rate_den">1</property>
  <property name="meta.media.colorspace">709</property>
  <property name="meta.media.color_trc">1</property>
  <property name="meta.media.width">1920</property>
  <property name="meta.media.height">1080</property>
  <property name="meta.media.top_field_first">0</property>
  <property name="meta.media.progressive">1</property>
  <property name="set.test_audio">1</property>
  <property name="set.test_image">0</property>
 </producer>
 <producer title="Anonymous Submission" id="producer8" in="00:00:00.000" out="00:00:20.800">
  <property name="length">521</property>
  <property name="eof">pause</property>
  <property name="resource">C:/Users/SERGEI/Downloads/VID-20190516-WA0001.mp4</property>
  <property name="audio_index">1</property>
  <property name="video_index">0</property>
  <property name="mute_on_pause">1</property>
  <property name="mlt_service">avformat-novalidate</property>
  <property name="seekable">1</property>
  <property name="aspect_ratio">1</property>
  <property name="kdenlive:clipname"/>
  <property name="kdenlive:id">4</property>
  <property name="kdenlive:file_size">1365936</property>
  <property name="kdenlive:file_hash">b45bfd31a09f350cc71c9a5f54418318</property>
  <property name="kdenlive:folderid">-1</property>
  <property name="global_feed">1</property>
  <property name="xml">was here</property>
  <property name="meta.media.nb_streams">2</property>
  <property name="meta.media.0.stream.type">video</property>
  <property name="meta.media.0.stream.frame_rate">30</property>
  <property name="meta.media.0.stream.sample_aspect_ratio">0</property>
  <property name="meta.media.0.codec.width">640</property>
  <property name="meta.media.0.codec.height">352</property>
  <property name="meta.media.0.codec.rotate">0</property>
  <property name="meta.media.0.codec.frame_rate">30</property>
  <property name="meta.media.0.codec.pix_fmt">yuv420p</property>
  <property name="meta.media.0.codec.sample_aspect_ratio">1</property>
  <property name="meta.media.0.codec.colorspace">601</property>
  <property name="meta.media.0.codec.name">h264</property>
  <property name="meta.media.0.codec.long_name">H.264 / AVC / MPEG-4 AVC / MPEG-4 part 10</property>
  <property name="meta.media.0.codec.bit_rate">393840</property>
  <property name="meta.attr.0.stream.creation_time.markup">2019-05-16T17:14:40.000000Z</property>
  <property name="meta.attr.0.stream.handler_name.markup">ISO Media file produced by Google Inc. Created on: 05/16/2019.</property>
  <property name="meta.media.1.stream.type">audio</property>
  <property name="meta.media.1.codec.sample_fmt">fltp</property>
  <property name="meta.media.1.codec.sample_rate">44100</property>
  <property name="meta.media.1.codec.channels">2</property>
  <property name="meta.media.1.codec.name">aac</property>
  <property name="meta.media.1.codec.long_name">AAC (Advanced Audio Coding)</property>
  <property name="meta.media.1.codec.bit_rate">128187</property>
  <property name="meta.attr.1.stream.creation_time.markup">2019-05-16T17:14:40.000000Z</property>
  <property name="meta.attr.1.stream.handler_name.markup">ISO Media file produced by Google Inc. Created on: 05/16/2019.</property>
  <property name="meta.attr.major_brand.markup">mp42</property>
  <property name="meta.attr.minor_version.markup">0</property>
  <property name="meta.attr.compatible_brands.markup">isommp42</property>
  <property name="meta.attr.creation_time.markup">2019-05-16T17:14:40.000000Z</property>
  <property name="meta.attr.encoder.markup">Google</property>
  <property name="meta.media.sample_aspect_num">1</property>
  <property name="meta.media.sample_aspect_den">1</property>
  <property name="meta.media.frame_rate_num">30</property>
  <property name="meta.media.frame_rate_den">1</property>
  <property name="meta.media.colorspace">601</property>
  <property name="meta.media.color_trc">2</property>
  <property name="meta.media.width">640</property>
  <property name="meta.media.height">352</property>
  <property name="meta.media.top_field_first">0</property>
  <property name="meta.media.progressive">1</property>
  <property name="set.test_audio">1</property>
  <property name="set.test_image">0</property>
 </producer>
 <producer title="Anonymous Submission" id="producer9" in="00:00:00.000" out="00:01:10.400">
  <property name="length">1761</property>
  <property name="eof">pause</property>
  <property name="resource">C:/Users/SERGEI/Downloads/VID-20190204-WA0000.mp4</property>
  <property name="audio_index">1</property>
  <property name="video_index">0</property>
  <property name="mute_on_pause">1</property>
  <property name="mlt_service">avformat-novalidate</property>
  <property name="seekable">1</property>
  <property name="aspect_ratio">1</property>
  <property name="kdenlive:clipname"/>
  <property name="kdenlive:id">5</property>
  <property name="kdenlive:file_size">13560931</property>
  <property name="kdenlive:file_hash">8d9a3b381fe8d1f11de90545a4575de2</property>
  <property name="kdenlive:folderid">-1</property>
  <property name="global_feed">1</property>
  <property name="xml">was here</property>
  <property name="meta.media.nb_streams">2</property>
  <property name="meta.media.0.stream.type">video</property>
  <property name="meta.media.0.stream.frame_rate">30</property>
  <property name="meta.media.0.stream.sample_aspect_ratio">0</property>
  <property name="meta.media.0.codec.width">1920</property>
  <property name="meta.media.0.codec.height">1080</property>
  <property name="meta.media.0.codec.rotate">0</property>
  <property name="meta.media.0.codec.frame_rate">30</property>
  <property name="meta.media.0.codec.pix_fmt">yuv420p</property>
  <property name="meta.media.0.codec.sample_aspect_ratio">1</property>
  <property name="meta.media.0.codec.colorspace">709</property>
  <property name="meta.media.0.codec.color_trc">1</property>
  <property name="meta.media.0.codec.name">h264</property>
  <property name="meta.media.0.codec.long_name">H.264 / AVC / MPEG-4 AVC / MPEG-4 part 10</property>
  <property name="meta.media.0.codec.bit_rate">1411528</property>
  <property name="meta.attr.0.stream.handler_name.markup">VideoHandler</property>
  <property name="meta.media.1.stream.type">audio</property>
  <property name="meta.media.1.codec.sample_fmt">fltp</property>
  <property name="meta.media.1.codec.sample_rate">44100</property>
  <property name="meta.media.1.codec.channels">2</property>
  <property name="meta.media.1.codec.name">aac</property>
  <property name="meta.media.1.codec.long_name">AAC (Advanced Audio Coding)</property>
  <property name="meta.media.1.codec.bit_rate">127999</property>
  <property name="meta.attr.1.stream.creation_time.markup">2019-02-04T08:35:44.000000Z</property>
  <property name="meta.attr.1.stream.handler_name.markup">IsoMedia File Produced by Google, 5-11-2011</property>
  <property name="meta.attr.major_brand.markup">mp42</property>
  <property name="meta.attr.minor_version.markup">0</property>
  <property name="meta.attr.compatible_brands.markup">isommp42</property>
  <property name="meta.attr.creation_time.markup">2019-02-03T18:04:43.000000Z</property>
  <property name="meta.media.sample_aspect_num">1</property>
  <property name="meta.media.sample_aspect_den">1</property>
  <property name="meta.media.frame_rate_num">30</property>
  <property name="meta.media.frame_rate_den">1</property>
  <property name="meta.media.colorspace">709</property>
  <property name="meta.media.color_trc">1</property>
  <property name="meta.media.width">1920</property>
  <property name="meta.media.height">1080</property>
  <property name="meta.media.top_field_first">0</property>
  <property name="meta.media.progressive">1</property>
  <property name="set.test_audio">1</property>
  <property name="set.test_image">0</property>
 </producer>
 <playlist id="playlist4">
  <entry producer="producer7" in="00:00:00.000" out="00:00:03.960">
   <property name="kdenlive:id">2</property>
  </entry>
  <blank length="00:00:01.280"/>
  <entry producer="producer7" in="00:00:05.280" out="00:00:07.120">
   <property name="kdenlive:id">2</property>
  </entry>
  <blank length="00:00:00.560"/>
  <entry producer="producer7" in="00:00:07.720" out="00:00:09.720">
   <property name="kdenlive:id">2</property>
  </entry>
  <blank length="00:00:05.120"/>
  <entry producer="producer7" in="00:00:14.880" out="00:00:15.920">
   <property name="kdenlive:id">2</property>
  </entry>
  <blank length="00:00:08.160"/>
  <entry producer="producer7" in="00:00:24.120" out="00:00:26.120">
   <property name="kdenlive:id">2</property>
  </entry>
  <blank length="00:00:01.840"/>
  <entry producer="producer7" in="00:00:28.000" out="00:00:36.040">
   <property name="kdenlive:id">2</property>
  </entry>
  <blank length="00:00:07.600"/>
  <entry producer="producer7" in="00:00:43.680" out="00:00:45.600">
   <property name="kdenlive:id">2</property>
  </entry>
  <blank length="00:00:09.040"/>
  <entry producer="producer7" in="00:00:54.680" out="00:00:56.640">
   <property name="kdenlive:id">2</property>
  </entry>
  <blank length="00:00:01.960"/>
  <entry producer="producer7" in="00:00:58.640" out="00:01:02.560">
   <property name="kdenlive:id">2</property>
  </entry>
  <blank length="00:00:09.560"/>
  <entry producer="producer7" in="00:01:12.160" out="00:01:20.480">
   <property name="kdenlive:id">2</property>
  </entry>
  <blank length="00:00:04.720"/>
  <entry producer="producer7" in="00:01:25.240" out="00:01:31.040">
   <property name="kdenlive:id">2</property>
  </entry>
  <entry producer="producer7" in="00:01:31.080" out="00:01:35.040">
   <property name="kdenlive:id">2</property>
  </entry>
  <blank length="00:00:03.880"/>
  <entry producer="producer7" in="00:01:38.960" out="00:01:42.960">
   <property name="kdenlive:id">2</property>
  </entry>
  <blank length="00:00:08.000"/>
  <entry producer="producer7" in="00:01:51.000" out="00:01:56.840">
   <property name="kdenlive:id">2</property>
  </entry>
  <blank length="00:01:00.120"/>
  <entry producer="producer7" in="00:02:57.000" out="00:03:13.760">
   <property name="kdenlive:id">2</property>
  </entry>
  <blank length="00:00:05.000"/>
  <entry producer="producer8" in="00:00:00.000" out="00:00:20.800">
   <property name="kdenlive:id">4</property>
  </entry>
  <blank length="00:00:02.800"/>
  <entry producer="producer9" in="00:00:02.800" out="00:00:12.080">
   <property name="kdenlive:id">5</property>
  </entry>
  <blank length="00:00:02.280"/>
  <entry producer="producer9" in="00:00:14.400" out="00:00:16.720">
   <property name="kdenlive:id">5</property>
  </entry>
  <blank length="00:00:02.800"/>
  <entry producer="producer9" in="00:00:19.560" out="00:00:21.520">
   <property name="kdenlive:id">5</property>
  </entry>
  <blank length="00:00:04.680"/>
  <entry producer="producer9" in="00:00:26.240" out="00:00:28.320">
   <property name="kdenlive:id">5</property>
  </entry>
  <blank length="00:00:02.600"/>
  <entry producer="producer9" in="00:00:30.960" out="00:00:32.960">
   <property name="kdenlive:id">5</property>
  </entry>
  <blank length="00:00:02.680"/>
  <entry producer="producer9" in="00:00:35.680" out="00:00:37.520">
   <property name="kdenlive:id">5</property>
  </entry>
  <blank length="00:00:03.480"/>
  <entry producer="producer9" in="00:00:41.040" out="00:00:44.800">
   <property name="kdenlive:id">5</property>
  </entry>
  <blank length="00:00:03.360"/>
  <entry producer="producer9" in="00:00:48.200" out="00:00:53.960">
   <property name="kdenlive:id">5</property>
  </entry>
  <blank length="00:00:02.240"/>
  <entry producer="producer9" in="00:00:56.240" out="00:00:58.240">
   <property name="kdenlive:id">5</property>
  </entry>
  <blank length="00:00:02.760"/>
  <entry producer="producer9" in="00:01:01.040" out="00:01:03.240">
   <property name="kdenlive:id">5</property>
  </entry>
 </playlist>
 <playlist id="playlist5"/>
 <tractor id="tractor2" in="00:00:00.000" out="00:04:42.880">
  <property name="kdenlive:trackheight">56</property>
  <property name="kdenlive:collapsed">0</property>
  <property name="kdenlive:thumbs_format"/>
  <property name="kdenlive:audio_rec"/>
  <track hide="audio" producer="playlist4"/>
  <track hide="audio" producer="playlist5"/>
 </tractor>
 <tractor title="Anonymous Submission" id="tractor3" global_feed="1" in="00:00:00.000" out="00:24:50.080">
  <track producer="black_track"/>
  <track producer="tractor0"/>
  <track producer="tractor1"/>
  <track producer="tractor2"/>
  <transition id="transition0">
   <property name="a_track">0</property>
   <property name="b_track">1</property>
   <property name="compositing">0</property>
   <property name="distort">0</property>
   <property name="rotate_center">0</property>
   <property name="mlt_service">qtblend</property>
   <property name="kdenlive_id">qtblend</property>
   <property name="internal_added">237</property>
   <property name="always_active">1</property>
  </transition>
  <transition id="transition1">
   <property name="a_track">0</property>
   <property name="b_track">2</property>
   <property name="compositing">0</property>
   <property name="distort">0</property>
   <property name="rotate_center">0</property>
   <property name="mlt_service">qtblend</property>
   <property name="kdenlive_id">qtblend</property>
   <property name="internal_added">237</property>
   <property name="always_active">1</property>
  </transition>
  <transition id="transition2">
   <property name="a_track">0</property>
   <property name="b_track">3</property>
   <property name="compositing">0</property>
   <property name="distort">0</property>
   <property name="rotate_center">0</property>
   <property name="mlt_service">qtblend</property>
   <property name="kdenlive_id">qtblend</property>
   <property name="internal_added">237</property>
   <property name="always_active">1</property>
  </transition>
 </tractor>
</mlt>
